<svg xmlns="http://www.w3.org/2000/svg" width="50" height="50" viewBox="0 0 50 50">
    <g fill="none" fill-rule="evenodd">
        <path fill="#D4E9FC" d="M24.561 50C5.261 50 0 38.936 0 25.287 0 11.638 4.638 4.127 24.561.574 44.485-2.98 50 10.579 50 24.228 50 37.876 43.86 50 24.561 50z"/>
        <path fill="#2692EE" d="M20.065 14a56.171 56.171 0 0 0-4.483.466c-.857.123-1.676.701-1.573 1.55.198 1.873.366 3.745.452 5.618 0 .403.026 6.536 0 7.062-.1 1.735-.231 3.47-.452 5.209-.1.845.722 1.408 1.58 1.543 1.6.252 3.183.439 4.76.548.502.036.953-.18 1.237-.586.297-.41.33-.896.1-1.341 0-.033 0-.055-.034-.081a2.794 2.794 0 0 1-.33-1.279c0-1.535 1.27-2.777 2.84-2.777 1.57 0 2.848 1.239 2.848 2.777 0 .452-.066.911-.264 1.285-.231.446-.198.948.066 1.367.296.42.748.64 1.263.598 1.382-.11 2.758-.28 4.124-.51.854-.145 1.735-.717 1.576-1.549a44.48 44.48 0 0 1-.702-5.6c0-.397.099-.75.392-1.033a1.37 1.37 0 0 1 1.053-.403c.366.032.725.12 1.069.29.392.197.834.31 1.306.31 1.57 0 2.844-1.24 2.844-2.778 0-1.535-1.27-2.784-2.844-2.784-.59 0-1.138.18-1.597.485-.445.3-.996.316-1.468.052a1.3 1.3 0 0 1-.683-1.267c.132-1.718.343-3.44.63-5.158.132-.839-.715-1.43-1.576-1.543a69.332 69.332 0 0 0-4.942-.466 1.34 1.34 0 0 0-1.141.478c-.297.336-.386.749-.297 1.178.066.277.165.542.297.787.197.381.296.818.296 1.28 0 1.534-1.266 2.777-2.84 2.777-1.57 0-2.847-1.243-2.847-2.778 0-.593.198-1.145.515-1.6.33-.432.343-.971.066-1.436a1.36 1.36 0 0 0-1.293-.686l.052-.005z"/>
    </g>
</svg>
