<svg xmlns="http://www.w3.org/2000/svg" width="75" height="24" viewBox="0 0 75 24">
    <g fill="none" fill-rule="evenodd">
        <path fill="#EB1A3B" d="M12 2.571c2.412 0 4.612.906 6.28 2.395l-.075.065-.084.092-6.852 8.398-2.355-2.983c-.365-.463-1.036-.541-1.498-.176-.463.365-.542 1.036-.177 1.498l3.18 4.027c.422.535 1.232.542 1.663.013l7.62-9.34c1.087 1.536 1.727 3.414 1.727 5.44 0 5.207-4.222 9.429-9.429 9.429S2.571 17.207 2.571 12 6.793 2.571 12 2.571z"/>
        <path fill="#E3193A" fill-rule="nonzero" d="M25.714 3.429h1.235v4.885l1.902-2.047h1.584L28.317 8.51l2.252 2.695h-1.635l-1.965-2.52h-.02v2.52h-1.235V3.429zm8.352 7.097h-.03c-.179.28-.405.485-.68.612-.274.127-.575.19-.905.19-.226 0-.447-.03-.663-.093-.216-.061-.408-.154-.576-.277-.168-.124-.303-.278-.406-.463-.103-.185-.155-.401-.155-.648 0-.268.048-.496.144-.684.096-.189.225-.346.386-.473s.348-.228.56-.304c.213-.075.434-.132.664-.17.23-.037.461-.061.694-.071.234-.01.453-.016.659-.016h.308v-.134c0-.308-.106-.54-.319-.694-.212-.154-.483-.231-.812-.231-.26 0-.504.046-.73.139-.227.092-.422.217-.587.375l-.648-.648c.275-.281.595-.483.962-.607.367-.123.746-.185 1.137-.185.35 0 .644.04.884.118.24.08.439.18.597.304.157.123.28.265.365.427.086.16.147.324.185.488.038.165.06.324.067.478.007.155.01.29.01.407v2.839h-1.11v-.68zm-.072-1.533h-.257c-.171 0-.363.007-.576.02-.212.014-.413.047-.602.098-.188.052-.348.127-.478.227s-.195.238-.195.416c0 .117.025.215.077.293.051.08.118.146.2.201.083.055.175.094.278.118.103.024.206.036.309.036.425 0 .739-.1.94-.303.203-.202.304-.478.304-.828v-.278zM36 8.736c0-.39.07-.746.21-1.065.141-.318.332-.591.572-.817.24-.227.524-.401.853-.525.33-.123.68-.185 1.05-.185s.72.062 1.049.185c.329.124.613.298.853.525.24.226.43.499.571.817.14.32.211.674.211 1.065 0 .39-.07.746-.21 1.065-.141.318-.332.591-.572.817-.24.227-.524.401-.853.525-.33.123-.68.185-1.05.185s-.72-.062-1.049-.185c-.329-.124-.613-.298-.853-.525-.24-.226-.43-.499-.571-.817-.14-.32-.211-.674-.211-1.065zm1.234 0c0 .192.033.377.098.555.065.179.161.336.288.474.127.137.28.246.458.329.178.082.38.123.607.123.226 0 .428-.041.606-.123.179-.083.331-.192.458-.33.127-.137.223-.294.288-.473.065-.178.098-.363.098-.555 0-.192-.033-.377-.098-.555-.065-.179-.161-.336-.288-.474-.127-.137-.28-.246-.458-.329-.178-.082-.38-.123-.606-.123-.227 0-.429.041-.607.123-.179.083-.331.192-.458.33-.127.137-.223.294-.288.473-.065.178-.098.363-.098.555zm8.939 1.728h-.021c-.178.302-.418.521-.72.658s-.627.206-.977.206c-.384 0-.725-.067-1.024-.2-.298-.134-.553-.318-.766-.55-.212-.234-.374-.508-.483-.824-.11-.315-.165-.655-.165-1.018s.058-.703.175-1.018c.117-.316.28-.59.489-.823.209-.233.46-.417.756-.55.294-.134.617-.201.966-.201.234 0 .44.024.618.072.178.048.336.11.473.185.137.076.253.156.35.242.095.086.174.17.236.252h.03V3.429h1.235v7.776h-1.172v-.741zM43.25 8.736c0 .192.033.377.098.555.065.179.161.336.288.474.127.137.28.246.458.329.178.082.38.123.607.123.226 0 .428-.041.607-.123.178-.083.33-.192.457-.33.127-.137.223-.294.288-.473.065-.178.098-.363.098-.555 0-.192-.033-.377-.098-.555-.065-.179-.16-.336-.288-.474-.127-.137-.28-.246-.457-.329-.179-.082-.381-.123-.607-.123-.227 0-.429.041-.607.123-.178.083-.331.192-.458.33-.127.137-.223.294-.288.473-.065.178-.098.363-.098.555zm5.267-2.469h1.234v4.938h-1.234V6.267zm-.175-1.676c0-.199.074-.372.221-.52.147-.147.334-.22.56-.22.227 0 .417.07.571.21.155.14.232.317.232.53 0 .212-.077.389-.232.53-.154.14-.344.21-.57.21-.227 0-.414-.073-.561-.22-.147-.148-.221-.321-.221-.52zm2.52 1.676h1.172v.772h.021c.11-.233.286-.44.53-.622.243-.182.57-.273.982-.273.775 0 1.29.305 1.543.915.178-.315.401-.546.668-.694.268-.147.587-.221.957-.221.33 0 .607.055.833.165.226.11.41.26.55.452.141.192.242.417.304.674.062.257.092.533.092.828v2.942h-1.234V8.407c0-.151-.014-.297-.041-.437-.027-.14-.075-.264-.144-.37-.069-.107-.161-.19-.278-.253-.116-.061-.267-.092-.452-.092-.192 0-.355.036-.489.108-.134.072-.243.168-.329.288-.086.12-.147.257-.185.411-.038.155-.057.31-.057.468v2.675h-1.234V8.263c0-.309-.065-.554-.195-.736-.13-.181-.347-.272-.648-.272-.206 0-.38.034-.52.103-.14.068-.257.16-.35.277-.092.117-.159.25-.2.402-.041.15-.062.308-.062.473v2.695h-1.234V6.267zM31.042 13.858v4.495c0 .446-.055.849-.164 1.209-.11.36-.28.665-.51.915-.23.25-.519.444-.869.581-.35.137-.764.206-1.244.206-.46 0-.895-.058-1.306-.175-.412-.116-.792-.329-1.142-.638l.74-1.008c.247.227.504.402.772.525.267.123.576.185.926.185.294 0 .543-.041.745-.123.203-.083.364-.196.484-.34.12-.144.205-.317.257-.52.051-.201.077-.426.077-.673v-.36h-.02c-.179.24-.415.42-.71.54-.295.12-.597.18-.905.18-.37 0-.707-.067-1.008-.2-.302-.134-.561-.314-.777-.54-.216-.227-.382-.494-.499-.803-.116-.308-.175-.637-.175-.987 0-.364.055-.703.165-1.018.11-.316.27-.59.483-.823.213-.233.468-.417.767-.55.298-.134.639-.201 1.023-.201.35 0 .675.068.977.206.302.137.542.356.72.658h.02v-.74h1.173zm-2.633.988c-.22 0-.418.036-.596.108-.179.072-.331.171-.458.298-.127.127-.226.281-.298.463-.072.182-.108.382-.108.602 0 .198.036.384.108.555.072.171.173.322.303.453.13.13.285.233.463.308.178.076.37.113.576.113.226 0 .43-.037.612-.113.182-.075.336-.176.463-.303s.224-.28.293-.458c.068-.178.103-.37.103-.576 0-.432-.13-.782-.391-1.05-.26-.267-.617-.4-1.07-.4zm8.28 3.95h-1.172v-.793h-.021c-.117.247-.295.462-.535.643-.24.182-.566.273-.977.273-.33 0-.609-.053-.838-.16-.23-.106-.417-.25-.56-.432-.145-.181-.248-.389-.31-.622-.061-.233-.092-.476-.092-.73v-3.117h1.234v2.5c0 .137.007.29.02.457.015.168.05.326.109.474.058.147.147.27.267.37.12.1.29.149.51.149.205 0 .378-.034.519-.103.14-.068.257-.161.35-.278.092-.116.159-.25.2-.4.041-.152.062-.31.062-.474v-2.695h1.234v4.937zm4.228-.68h-.031c-.179.282-.405.486-.68.613-.273.126-.575.19-.904.19-.227 0-.448-.031-.664-.093-.216-.061-.408-.154-.576-.277-.168-.124-.303-.278-.406-.463-.103-.185-.154-.401-.154-.648 0-.268.048-.496.144-.684.096-.189.224-.347.385-.473.162-.127.348-.228.561-.304.213-.075.434-.132.663-.17.23-.037.462-.061.695-.072.233-.01.452-.015.658-.015h.309v-.134c0-.308-.107-.54-.32-.694-.212-.154-.483-.231-.812-.231-.26 0-.504.046-.73.138-.226.093-.422.218-.586.376l-.648-.648c.274-.281.594-.484.961-.607s.746-.185 1.137-.185c.35 0 .644.04.884.118.24.079.44.18.597.304.158.123.28.265.365.426.086.162.148.324.185.489.038.165.06.324.067.478.007.155.01.29.01.407v2.838h-1.11v-.678zm-.072-1.532h-.258c-.171 0-.363.007-.576.02-.212.014-.413.047-.601.098-.189.052-.348.127-.479.227-.13.099-.195.238-.195.416 0 .117.026.214.077.293.052.08.118.146.2.2.083.056.176.095.278.12.103.023.206.035.309.035.425 0 .739-.101.941-.303.202-.203.304-.479.304-.828v-.278zm2.252-2.726h1.234v.782h.021c.137-.288.333-.51.586-.669.254-.157.545-.236.875-.236.075 0 .149.007.22.02.073.014.146.031.222.052V15c-.103-.027-.204-.05-.304-.067-.099-.017-.197-.026-.293-.026-.288 0-.52.054-.694.16-.175.106-.309.228-.401.365-.093.137-.154.274-.185.411-.031.138-.047.24-.047.309v2.643h-1.234v-4.937zm6.83 4.259h-.031c-.178.28-.405.485-.679.612-.274.126-.576.19-.905.19-.226 0-.447-.031-.663-.093-.216-.061-.408-.154-.576-.277-.168-.124-.304-.278-.407-.463-.103-.185-.154-.401-.154-.648 0-.268.048-.496.144-.684.096-.189.225-.347.386-.473.16-.127.348-.228.56-.304.213-.075.434-.132.664-.17.23-.037.46-.061.694-.072.233-.01.453-.015.658-.015h.309v-.134c0-.308-.106-.54-.319-.694-.213-.154-.483-.231-.813-.231-.26 0-.504.046-.73.138-.226.093-.422.218-.586.376l-.648-.648c.274-.281.595-.484.962-.607.366-.123.745-.185 1.136-.185.35 0 .645.04.885.118.24.079.439.18.596.304.158.123.28.265.365.426.086.162.148.324.186.489.037.165.06.324.066.478.007.155.01.29.01.407v2.838h-1.11v-.678zm-.072-1.533h-.257c-.172 0-.364.007-.576.02-.213.014-.413.047-.602.098-.189.052-.348.127-.478.227-.13.099-.196.238-.196.416 0 .117.026.214.077.293.052.08.119.146.201.2.082.056.175.095.278.12.103.023.205.035.308.035.425 0 .74-.101.941-.303.203-.203.304-.479.304-.828v-.278zm2.252-2.726h1.173v.792h.02c.117-.247.295-.46.535-.643.24-.181.566-.272.978-.272.329 0 .608.055.838.164.23.11.416.254.56.432.144.179.247.384.309.618.062.233.093.476.093.73v3.116h-1.235v-2.499c0-.137-.007-.29-.02-.458-.014-.168-.05-.325-.108-.473-.059-.147-.15-.27-.273-.37-.123-.1-.291-.15-.504-.15-.206 0-.379.035-.52.104-.14.068-.256.16-.349.277-.093.117-.16.25-.2.401-.042.151-.062.309-.062.474v2.694h-1.235v-4.937zm5.071 1.05v-1.05h1.019v-1.43h1.234v1.43h1.358v1.05H59.43v2.16c0 .246.046.442.139.586.092.144.276.216.55.216.11 0 .23-.012.36-.036.13-.024.233-.064.309-.119v1.04c-.13.061-.29.104-.479.128-.188.024-.355.036-.499.036-.329 0-.598-.036-.807-.108-.21-.072-.374-.182-.494-.33-.12-.147-.202-.33-.247-.55-.044-.219-.066-.473-.066-.76v-2.264h-1.019zm5.308 1.85c.04.371.185.66.432.865.247.206.545.308.895.308.308 0 .567-.063.776-.19.21-.127.393-.286.55-.478l.885.668c-.288.357-.61.61-.967.762-.356.15-.73.226-1.121.226-.37 0-.72-.062-1.05-.185-.328-.124-.613-.299-.853-.525-.24-.226-.43-.499-.57-.818-.141-.318-.212-.673-.212-1.064s.07-.746.211-1.065c.14-.319.331-.591.571-.817.24-.227.525-.402.854-.525.329-.123.679-.185 1.049-.185.343 0 .657.06.941.18.285.12.528.293.73.52.203.226.36.505.474.838.113.332.17.714.17 1.146v.34h-3.765zm2.53-.925c-.007-.363-.12-.65-.34-.859-.219-.209-.524-.313-.915-.313-.37 0-.663.106-.88.318-.215.213-.347.498-.395.854h2.53zm3.117.926c.04.37.185.658.432.864.246.206.545.308.894.308.309 0 .568-.063.777-.19.21-.127.393-.286.55-.478l.885.668c-.288.357-.61.61-.967.762-.357.15-.73.226-1.121.226-.37 0-.72-.062-1.05-.185-.328-.124-.613-.299-.853-.525-.24-.226-.43-.499-.57-.818-.141-.318-.212-.673-.212-1.064s.07-.746.211-1.065c.14-.319.331-.591.571-.817.24-.227.525-.402.854-.525.329-.123.679-.185 1.049-.185.343 0 .656.06.941.18.285.12.528.293.73.52.203.226.36.505.473.838.114.332.17.714.17 1.146v.34h-3.764zm2.53-.926c-.007-.363-.12-.65-.34-.859-.219-.209-.524-.313-.915-.313-.37 0-.663.106-.88.318-.215.213-.347.498-.395.854h2.53z"/>
    </g>
</svg>
