<svg xmlns="http://www.w3.org/2000/svg" width="25" height="24" viewBox="0 0 25 24">
    <defs>
        <filter id="zy8q2jpgsa">
            <feColorMatrix in="SourceGraphic" values="0 0 0 0 0.929412 0 0 0 0 0.098039 0 0 0 0 0.227451 0 0 0 1.000000 0"/>
        </filter>
    </defs>
    <g fill="none" fill-rule="evenodd">
        <g>
            <g>
                <g filter="url(#zy8q2jpgsa)" transform="translate(-451 -429) translate(0 -41) translate(439.5 462)">
                    <g fill="#99A2A9" fill-rule="nonzero">
                        <g>
                            <path d="M20 6c1.105 0 2 .895 2 2v8c0 1.105-.895 2-2 2H4c-1.105 0-2-.895-2-2V8c0-1.105.895-2 2-2h16zM8.006 9.404c-.141 0-.253.048-.337.145-.066.078-.106.186-.12.325l-.004.11v2.981l-1.952-2.953-.159-.25c-.051-.08-.101-.144-.15-.194-.05-.05-.106-.09-.171-.12-.065-.03-.143-.044-.234-.044-.117 0-.225.032-.325.097s-.172.149-.215.251c-.028.07-.045.16-.052.27l-.003.117v3.865c0 .19.043.334.13.433.086.099.201.148.345.148.139 0 .253-.049.342-.147.07-.078.114-.186.128-.324l.005-.11v-2.936l1.904 2.92.164.233c.055.077.114.143.178.2.064.057.132.099.205.125.073.026.155.04.246.04.328 0 .509-.179.541-.535l.006-.125V9.985c0-.194-.042-.34-.127-.436-.084-.097-.2-.145-.345-.145zm11.669 0c-.132 0-.233.034-.302.102-.07.069-.119.146-.147.233-.022.065-.044.148-.067.25l-.68 3.034-.742-2.737c-.061-.226-.11-.388-.147-.486-.036-.098-.102-.188-.196-.271-.095-.084-.228-.125-.399-.125-.168 0-.302.04-.4.12-.098.08-.168.174-.211.283-.033.082-.069.192-.107.33l-.775 2.886-.657-2.925c-.047-.226-.103-.398-.167-.516-.064-.119-.188-.178-.373-.178-.134 0-.247.044-.338.133-.091.089-.137.198-.137.328 0 .077.014.18.043.31l.867 3.512c.025.1.053.209.085.326.032.117.073.219.123.304.05.086.116.152.197.198.08.047.184.07.309.07.155 0 .279-.039.372-.117.094-.08.16-.168.197-.267.03-.08.068-.2.115-.362l.037-.129.82-3.004.81 3.004.073.249c.032.108.06.19.081.249.037.097.102.184.195.261.093.078.218.116.373.116.164 0 .29-.04.38-.12.09-.079.155-.172.192-.278l.078-.256.064-.244.834-3.374c.05-.205.075-.354.075-.448 0-.132-.046-.242-.138-.33-.093-.087-.205-.131-.337-.131zm-6.785.085h-2.68c-.143 0-.26.021-.353.063-.092.043-.16.11-.203.202-.033.07-.053.154-.061.253l-.004.104v3.767c0 .219.048.377.145.475.077.078.195.125.352.141l.125.006h2.758c.16 0 .28-.037.36-.111.081-.074.122-.17.122-.289 0-.123-.04-.222-.121-.296-.065-.059-.155-.094-.27-.106l-.091-.005h-2.365v-1.425h2.105c.157 0 .274-.036.349-.108.075-.071.113-.164.113-.278 0-.114-.039-.206-.115-.275-.057-.052-.136-.085-.238-.098l-.109-.007h-2.105v-1.23h2.286c.162 0 .282-.036.361-.108.079-.071.118-.167.118-.285 0-.116-.04-.21-.118-.282-.063-.057-.152-.092-.269-.103l-.092-.005z" transform="translate(12 8)"/>
                        </g>
                    </g>
                </g>
            </g>
        </g>
    </g>
</svg>
