<?xml version="1.0" encoding="utf-8"?>
<!-- Generator: Adobe Illustrator 24.0.0, SVG Export Plug-In . SVG Version: 6.00 Build 0)  -->
<svg width="130" height="32" version="1.1" id="trafft-logo-white_x5F__x28_horizontal-lockup_x29_"
	 xmlns="http://www.w3.org/2000/svg" xmlns:xlink="http://www.w3.org/1999/xlink" x="0px" y="0px" viewBox="0 0 850 256"
	 style="enable-background:new 0 0 850 256;" xml:space="preserve">
<style type="text/css">
	.st0{fill:#FFFFFF;}
</style>
<g id="typography">
	<polygon class="st0" points="320,88 362.4,88 362.4,200.2 395.7,200.2 395.7,88 438,88 438,60.6 320,60.6 	"/>
	<path class="st0" d="M501.6,94c-5.7,0-10.8,1.7-15.1,5.1c-4.3,3.4-7.4,8.5-9.3,15.4h-1.1V95.5h-32.4v104.7H477v-56.9
		c0-4.2,0.9-7.8,2.7-10.9c1.8-3.1,4.3-5.5,7.4-7.3c3.2-1.8,6.7-2.6,10.7-2.6c2,0,4.3,0.2,6.9,0.5c2.6,0.3,4.6,0.8,6.2,1.3v-29
		c-1.4-0.4-2.9-0.7-4.6-0.9C504.7,94.1,503.1,94,501.6,94z"/>
	<path class="st0" d="M603.5,103.3c-4.2-3-9.1-5.3-14.7-6.8c-5.6-1.6-11.8-2.4-18.5-2.4c-9.4,0-17.4,1.4-24,4.3
		c-6.7,2.9-11.9,6.8-15.7,11.9c-3.8,5-6.1,10.7-7.1,17.1l30.8,1.1c0.7-3.4,2.4-6,5.1-7.9c2.7-1.9,6.2-2.9,10.6-2.9
		c4.1,0,7.3,1,9.8,2.9c2.4,1.9,3.6,4.6,3.6,8.1v0.3c0,2.1-0.8,3.8-2.5,4.9c-1.7,1.2-4.3,2-7.9,2.7s-8.4,1.2-14.4,1.7
		c-5.3,0.5-10.3,1.3-15,2.6c-4.7,1.3-8.8,3.2-12.4,5.7c-3.6,2.5-6.4,5.8-8.5,9.8c-2,4-3.1,8.9-3.1,14.7c0,6.9,1.5,12.6,4.5,17.2
		c3,4.6,7,8,12.2,10.2c5.2,2.3,11.1,3.4,17.8,3.4c4.9,0,9.2-0.6,13.1-1.8c3.9-1.2,7.3-3.1,10.2-5.5c2.9-2.5,5.3-5.5,7.1-9h0.8v14.6
		h31.4V129c0-5.5-1.1-10.5-3.4-14.8C610.9,109.9,607.7,106.3,603.5,103.3z M583.6,163c0,3.4-0.9,6.4-2.6,9c-1.7,2.6-4,4.6-6.9,6
		s-6.1,2.2-9.7,2.2c-3.8,0-7-0.9-9.4-2.7c-2.5-1.8-3.7-4.5-3.7-7.9c0-2.3,0.6-4.2,1.7-5.9c1.2-1.7,2.8-3,5-4.1c2.2-1,4.9-1.8,8-2.3
		c1.5-0.2,3.2-0.5,4.8-0.8c1.7-0.3,3.3-0.6,4.9-1c1.6-0.4,3.1-0.8,4.4-1.2c1.3-0.4,2.5-0.9,3.4-1.4V163z"/>
	<path class="st0" d="M754.3,82.5c1.5-1.7,4.1-2.6,8-2.6c1.5,0,3.2,0.1,4.9,0.4s3.2,0.6,4.5,1l5.3-24.4c-2-0.5-5.1-1.2-9.2-1.9
		c-4.1-0.7-8.5-1.1-13.1-1.1c-7.1,0-13.3,1.3-18.8,4c-5.4,2.7-9.6,6.7-12.7,12c-3,5.3-4.6,12.1-4.6,20.1v5.3h-14h-28.2v-5.9
		c0-3,0.7-5.4,2.2-7.1c1.5-1.7,4.1-2.6,8-2.6c1.5,0,3.2,0.1,4.9,0.4s3.2,0.6,4.5,1l5.3-24.4c-2-0.5-5.1-1.2-9.2-1.9
		c-4.1-0.7-8.5-1.1-13.1-1.1c-7.1,0-13.3,1.3-18.8,4c-5.4,2.7-9.6,6.7-12.7,12c-3,5.3-4.6,12.1-4.6,20.1v5.3h-14V120h14v80.2h33.3
		V120h28.2h14v80.2h33.3V120h20V95.5h-20v-5.9C752.1,86.6,752.9,84.3,754.3,82.5z"/>
	<path class="st0" d="M844.9,174.6c-0.7,0.2-1.8,0.4-3.2,0.6c-1.4,0.3-2.8,0.4-4.1,0.4c-1.8,0-3.3-0.3-4.6-0.8
		c-1.3-0.5-2.2-1.4-2.9-2.7c-0.7-1.3-1-2.9-1-4.9V120h18.9V95.5h-18.9V70.4h-33.3v25.1H782V120h13.8V171c-0.1,7.1,1.3,13,4.3,17.7
		c2.9,4.7,7.2,8.1,12.8,10.3c5.6,2.2,12.3,3.1,20.1,2.8c4-0.2,7.4-0.6,10.3-1.3c2.9-0.7,5.1-1.3,6.7-1.7L844.9,174.6z"/>
</g>
<g id="BRANDMARK_12_">
	<circle class="st0" cx="128" cy="32" r="32"/>
	<circle class="st0" cx="224" cy="32" r="32"/>
	<circle class="st0" cx="128" cy="224" r="32"/>
	<path class="st0" d="M224,192c-1.7,0-3.4,0.2-5,0.4l0,0c-22.1,3.5-54-25.1-59-49.3V112c0-8.8-7.2-16-16-16h-31.1
		C92.3,91.7,68.3,67.8,64,47.1V0H0v64h47.1c20.7,4.3,44.6,28.2,48.9,48.9V144c0,8.8,7.2,16,16,16h31.1c24.2,5,52.8,36.9,49.3,59l0,0
		c-0.3,1.6-0.4,3.3-0.4,5c0,19.8,17.9,35.4,38.4,31.4c12.5-2.4,22.5-12.5,25-25C259.4,209.9,243.8,192,224,192z"/>
</g>
</svg>
