<svg xmlns="http://www.w3.org/2000/svg" width="48" height="48" viewBox="0 0 48 48">
    <g fill="none" fill-rule="evenodd">
        <circle cx="24" cy="24" r="24" fill="#F2F2F2"/>
        <path fill="#BDC6CE" d="M34.627 28.83c-1.31-1.863-5.839-3.03-7.69-4.253 1.567-1.557 2.763-4.17 2.62-6.893-.142-3.058-2.477-5.531-5.582-5.559h-.057c-3.104.028-5.468 2.501-5.61 5.531-.143 2.752 1.054 5.336 2.62 6.92-1.851 1.224-6.38 2.419-7.69 4.253-1.651 2.335-.854 5.62-.854 5.62 0 1.446 22.755 1.53 23.097.14.684-2.08.399-4-.854-5.76z"/>
    </g>
</svg>
