<?xml version="1.0" encoding="UTF-8"?>
<svg width="48px" height="48px" viewBox="0 0 48 48" version="1.1" xmlns="http://www.w3.org/2000/svg" xmlns:xlink="http://www.w3.org/1999/xlink">
    <title>Artboard</title>
    <g id="Designs" stroke="none" stroke-width="1" fill="none" fill-rule="evenodd">
        <g id="Group" fill="#ED193A">
            <path d="M35.5220243,12.4555199 C35.5220243,12.6195381 35.3889387,12.7526237 35.2249205,12.7526237 L34.035298,12.7526237 L34.035298,13.9340981 C34.035298,14.0981163 33.9023633,14.2312019 33.7381942,14.2312019 L32.7076106,14.2312019 C32.5435924,14.2312019 32.4105067,14.0981163 32.4105067,13.9340981 L32.4105067,12.7526237 L31.2210352,12.7526237 C31.0568661,12.7526237 30.9237805,12.6195381 30.9237805,12.4555199 L30.9237805,11.4249363 C30.9237805,11.260918 31.0568661,11.1278324 31.2210352,11.1278324 L32.4105067,11.1278324 L32.4105067,9.93021277 C32.4105067,9.76604367 32.5435924,9.63295805 32.7076106,9.63295805 L33.7381942,9.63295805 C33.9023633,9.63295805 34.035298,9.76604367 34.035298,9.93021277 L34.035298,11.1278324 L35.2249205,11.1278324 C35.3889387,11.1278324 35.5220243,11.260918 35.5220243,11.4249363 L35.5220243,12.4555199 Z M32.9781576,24.4048579 C30.116666,23.1043308 28.2558816,24.6308922 27.9779409,24.8821253 C27.7606583,25.1399975 27.3330339,25.2066912 27.0286874,24.9029482 C26.5244106,24.4416753 25.5244578,23.968482 24.2977162,23.8530506 L24.2977162,31.4900827 C24.2977162,32.7230107 23.2945947,33.7262832 22.0615157,33.7262832 C20.8285876,33.7262832 19.8254661,32.7230107 19.8254661,31.4900827 C19.8254661,31.1373002 20.1115549,30.8512113 20.4643374,30.8512113 C20.8171199,30.8512113 21.1032087,31.1373002 21.1032087,31.4900827 C21.1032087,32.018502 21.5332473,32.4483896 22.0615157,32.4483896 C22.5900859,32.4483896 23.0199736,32.018502 23.0199736,31.4900827 L23.0199736,23.8530506 C21.8283895,23.9651624 20.8300965,24.4163256 20.2926238,24.8997795 C20.2155186,24.9709999 20.1436946,25.0392025 20.0091001,25.0781323 C19.7691838,25.1528232 19.5012019,25.0719458 19.3414087,24.8840869 C19.0602992,24.629836 17.1999675,23.1047835 14.3395321,24.4048579 C13.9177925,24.59664 13.4363003,24.2879176 13.4363003,23.8231742 C13.4363003,18.54049 17.862076,14.561049 23.0199736,14.2579096 L23.0199736,13.9200652 C23.0199736,13.5672827 23.3060624,13.2811939 23.6588449,13.2811939 C24.0117783,13.2811939 24.2977162,13.5672827 24.2977162,13.9200652 L24.2977162,14.2579096 C29.4519924,14.5608981 33.8813895,18.5376231 33.8813895,23.8231742 C33.8813895,24.2882194 33.3997463,24.5964891 32.9781576,24.4048579 L32.9781576,24.4048579 Z M5,2 L5,26.3486322 C5,36.6535632 13.353763,45.0073262 23.6588449,45.0073262 L23.6588449,45.0073262 C33.9639267,45.0073262 42.3176897,36.6535632 42.3176897,26.3484813 L42.3176897,2 L5,2 Z" id="Fill-20"></path>
        </g>
    </g>
</svg>