<?xml version="1.0" encoding="UTF-8"?>
<svg width="1440px" height="287px" viewBox="0 0 1440 287" version="1.1" xmlns="http://www.w3.org/2000/svg" xmlns:xlink="http://www.w3.org/1999/xlink">
    <title>fallback_vendordirectoryheader</title>
    <defs>
        <polygon id="path-1" points="0 2.96125259e-15 1440 2.96125259e-15 1440 198 -2.49800181e-15 198"></polygon>
        <radialGradient cx="50%" cy="52.2249789%" fx="50%" fy="52.2249789%" r="97.7750211%" gradientTransform="translate(0.500000,0.522250),scale(0.198611,1.000000),rotate(90.000000),scale(1.000000,2.846342),translate(-0.500000,-0.522250)" id="radialGradient-3">
            <stop stop-color="#E81134" offset="0%"></stop>
            <stop stop-color="#A50B24" offset="100%"></stop>
        </radialGradient>
        <polygon id="path-4" points="0 4.27736485e-15 1440 4.27736485e-15 1440 286 -2.49800181e-15 286"></polygon>
        <filter id="filter-6">
            <feColorMatrix in="SourceGraphic" type="matrix" values="0 0 0 0 1.000000 0 0 0 0 1.000000 0 0 0 0 1.000000 0 0 0 1.000000 0"></feColorMatrix>
        </filter>
    </defs>
    <g id="Page-1" stroke="none" stroke-width="1" fill="none" fill-rule="evenodd">
        <g id="Covid-19-Awareness-campaign-Hero-Image-&amp;-App-Icons" transform="translate(-2002.000000, -1252.000000)">
            <g id="Combined-Shape" transform="translate(2002.000000, 1252.572513)">
                <g id="Bitmap" transform="translate(0.000000, 38.000000)">
                    <mask id="mask-2" fill="white">
                        <use xlink:href="#path-1"></use>
                    </mask>
                    <g id="Mask">
                        <use fill="#F2F2F2" xlink:href="#path-1"></use>
                        <use fill="#FFFFFF" xlink:href="#path-1"></use>
                    </g>
                </g>
                <g id="Bitmap">
                    <mask id="mask-5" fill="white">
                        <use xlink:href="#path-4"></use>
                    </mask>
                    <use id="Mask" fill="url(#radialGradient-3)" xlink:href="#path-4"></use>
                    <g id="Benefits-#1" mask="url(#mask-5)">
                        <g transform="translate(12.000000, 97.000000)">
                            <rect id="Rectangle" fill="#FFFFFF" transform="translate(73.599996, 71.999996) rotate(21.000000) translate(-73.599996, -71.999996) " x="16.799999" y="16.799999" width="113.599993" height="110.399993" rx="11.9999993"></rect>
                            <g id="Group" stroke-width="1" fill="none" transform="translate(46.399997, 42.399997)">
                                <g id="Logo/Thumb/Red" transform="translate(23.999999, 23.999999) rotate(23.000000) translate(-23.999999, -23.999999) " fill="#E3193A" fill-rule="nonzero">
                                    <path d="M34.6811166,40.574462 L34.6801049,40.574462 C34.2632362,41.1427353 33.6415047,41.5586684 32.8357314,41.7875805 C28.3468827,43.1138421 23.7110178,43.8566627 19.0636911,43.9999998 L18.7973777,43.9999998 C16.4950591,43.9999998 14.8617404,42.9185694 13.9747308,40.7580906 C12.6129886,37.4610368 11.1478556,33.9217641 9.62763527,30.4258721 C9.53710976,30.2232307 9.25301874,29.8787996 9.00857649,29.5853558 L8.76156116,29.3074814 C8.62857989,29.1318192 8.4572364,28.9635258 8.280045,28.7697982 C7.88437604,28.3649907 7.43666075,27.9100279 7.05724894,27.3028166 C5.83094414,25.3232295 6.36298616,23.0192971 8.3003957,21.691015 C8.90623822,21.2827608 9.59839576,20.9600796 10.3064596,20.7793067 C12.7733381,20.1186124 15.2153045,19.5020119 17.5642893,18.9175012 C17.5110734,18.80899 17.4400799,18.6841961 17.3610163,18.5138822 C16.8941199,17.6719396 16.576111,17.0479703 16.2964644,16.5352459 C15.9483973,15.855773 15.6749495,15.3268847 15.2363569,14.5659987 C14.3852535,13.0060755 13.0673705,10.6424798 13.3097075,7.885724 C13.316842,7.74999582 13.598009,4.88520421 15.5661785,4.20882149 C15.9182222,4.07475723 16.2964644,3.99999976 16.6717827,3.99999976 C18.0531738,3.99999976 19.2604144,4.90029832 19.9793554,6.46949197 C20.6360746,7.885724 21.4851898,9.67990315 22.2847148,10.9343786 C23.3781553,12.686009 24.9817667,14.2241824 27.5116855,15.933264 C28.7225519,16.7659362 29.6559938,17.3777827 30.5854592,18.0080511 C31.5373805,18.6447375 32.4814656,19.2779772 33.7271854,20.1186124 C34.1948035,20.4337175 34.5182528,20.9212899 34.7418865,21.43822 L34.742779,21.43822 C34.8747408,21.1119097 35.2046493,20.8749988 35.59693,20.8749988 L37.7551511,20.8749988 L37.7551511,41.4999998 L35.59693,41.4999998 C35.0861502,41.4999998 34.6811166,41.1058701 34.6811166,40.6169481 L34.6811166,40.574462 L34.6811166,40.574462 Z M39.6685765,20.8749988 L40.6777872,20.8749988 C41.1871099,20.8749988 41.5999975,21.2947318 41.5999975,21.8124987 L41.5999975,40.5624976 C41.5999975,41.0802645 41.1871099,41.4999975 40.6777872,41.4999975 L39.6685765,41.4999975 L39.6685765,20.8749988 Z M32.2432221,39.6874781 C32.8994735,39.5034963 33.1510502,39.1986428 33.1381848,38.449523 C33.0923373,36.0116453 33.1129219,33.5675872 33.1129219,31.1348201 C33.1129219,28.6871965 33.1510502,26.2405238 33.1009922,23.7964657 C33.0923373,23.4053261 32.8357314,22.1393221 32.5406463,21.9496355 C30.0742357,20.2505373 28.7758847,19.4157258 26.3119302,17.7462217 C24.0436464,16.2065032 21.9463553,14.4573687 20.4649651,12.1135023 C19.6172534,10.750991 18.7231093,8.86375131 18.0462733,7.3901141 C17.7723576,6.80881242 17.1649946,5.88616981 16.2628974,6.26173991 C15.8533105,6.35575128 15.5011499,7.45809704 15.4427878,8.07053777 C15.2771753,10.0538093 16.1596235,11.7857104 17.102656,13.4958617 C17.885456,14.8870161 18.1924708,15.5347557 19.2364381,17.4739334 C20.281341,19.3955211 20.0987695,20.5347108 18.0826472,21.0334108 C15.6575228,21.6260034 13.2473689,22.2487842 10.8545249,22.8858271 C10.3697339,23.0146619 9.89652175,23.2182542 9.49254876,23.4987432 C8.53314215,24.1557532 8.26062997,25.1568377 8.87723264,26.1463935 C9.27699514,26.8050674 9.91640461,27.3028166 10.4138271,27.9017083 C10.8355777,28.4258425 11.3151055,28.9411817 11.5802494,29.5448275 C13.0673705,32.9796299 14.5161295,36.4448583 15.9483973,39.9128202 C16.5265208,41.2914952 17.4400799,41.8701822 18.9833409,41.8307235 C23.5037682,41.6659956 27.9036119,40.9575231 32.2432221,39.6874781 Z" id="ic_kaodim"></path>
                                </g>
                            </g>
                        </g>
                    </g>
                    <g id="Benefits-#4" mask="url(#mask-5)">
                        <g transform="translate(1117.500000, 93.000000) rotate(-1.000000) translate(-1117.500000, -93.000000) translate(1035.000000, 12.000000)">
                            <path d="M32.5000005,19 L133.300005,19 C140.755849,19 146.800005,25.0441561 146.800005,32.5000005 L146.800005,129.700004 C146.800005,137.155849 140.755849,143.200005 133.300005,143.200005 L32.5000005,143.200005 C25.0441561,143.200005 19,137.155849 19,129.700004 L19,32.5000005 C19,25.0441561 25.0441561,19 32.5000005,19 Z" id="Rectangle" fill="#FFFFFF" transform="translate(82.900003, 81.100002) rotate(21.000000) translate(-82.900003, -81.100002) "></path>
                            <g id="Group" stroke-width="1" fill="none" transform="translate(48.000000, 46.000000)">
                                <g id="Logo/Thumb/Red" transform="translate(35.000000, 35.000000) rotate(23.000000) translate(-35.000000, -35.000000) " fill="#E3193A" fill-rule="nonzero">
                                    <path d="M50.5766314,59.1710939 L50.575156,59.1710939 C49.9672225,59.9998259 49.0605306,60.606395 47.8854445,60.9402252 C41.3392064,62.8743568 34.5785697,63.9576369 27.8012178,64.1666667 L27.4128441,64.1666667 C24.055296,64.1666667 21.6733727,62.5895842 20.379817,59.4388857 C18.3939429,54.630682 16.2572903,49.4692423 14.0403023,44.3710661 C13.9082859,44.0755473 13.4939865,43.573252 13.1375082,43.145313 L12.7772775,42.7400796 C12.5833464,42.4839056 12.3334705,42.2384776 12.0750664,41.9559582 C11.4980491,41.3656138 10.8451309,40.7021264 10.291822,39.81661 C8.50346072,36.9297118 9.27935537,33.5698103 12.1047445,31.6327321 C12.9882649,31.0373614 13.9976613,30.5667845 15.0302545,30.3031575 C18.6277858,29.3396448 22.188987,28.4404357 25.6145901,27.5880242 C25.5369836,27.4297787 25.4334513,27.2477876 25.3181502,26.9994132 C24.6372596,25.7715802 24.1734967,24.8616249 23.7656787,24.1139016 C23.2580808,23.1230037 22.8593027,22.3517082 22.2196885,21.2420828 C20.9784959,18.9671946 19.0565832,15.520284 19.4099913,11.5000149 C19.4203957,11.3020779 19.830431,7.12425656 22.7006784,6.13786503 C23.2140754,5.94235464 23.7656787,5.83333333 24.3130178,5.83333333 C26.3275467,5.83333333 28.0881061,7.14626881 29.1365617,9.43467635 C30.0942773,11.5000149 31.3325704,14.1165263 32.4985444,15.9459697 C34.0931452,18.5004308 36.4317453,20.7436006 40.1212105,23.2360114 C41.8870573,24.4503251 43.2483269,25.3426013 44.6037973,26.2617428 C45.9920159,27.1902438 47.3688068,28.1137184 49.1854816,29.3396448 C49.8674247,29.7991732 50.3391217,30.5102162 50.6652542,31.2640726 L50.6665558,31.2640726 C50.8590001,30.7882035 51.3401166,30.4427083 51.9121926,30.4427083 L55.0595986,30.4427083 L55.0595986,60.5208333 L51.9121926,60.5208333 C51.1673055,60.5208333 50.5766314,59.9460641 50.5766314,59.2330528 L50.5766314,59.1710939 L50.5766314,59.1710939 Z M57.8500109,30.4427083 L59.3217765,30.4427083 C60.0645388,30.4427083 60.6666667,31.054819 60.6666667,31.8098958 L60.6666667,59.1536458 C60.6666667,59.9087226 60.0645388,60.5208333 59.3217765,60.5208333 L57.8500109,60.5208333 L57.8500109,30.4427083 Z M47.0213683,57.8775757 C47.9784017,57.6092689 48.3452844,57.1646908 48.3265224,56.0722245 C48.2596614,52.5169858 48.2896806,48.9527343 48.2896806,45.4049487 C48.2896806,41.8354974 48.3452844,38.2674328 48.2722831,34.7031813 C48.2596614,34.1327693 47.8854445,32.2865133 47.455112,32.0098869 C43.858263,29.5320354 41.9648344,28.3146019 38.3715672,25.8799082 C35.0636531,23.6344852 32.0051034,21.0836639 29.8447425,17.6655252 C28.6084962,15.6785295 27.3045361,12.9263048 26.3174834,10.7772504 C25.9180231,9.9295187 25.0322853,8.58399816 23.7167269,9.13170458 C23.1194125,9.2688045 22.6058449,10.8763922 22.5207336,11.7695349 C22.2792153,14.6618061 23.566119,17.1874954 24.9413748,19.6814661 C26.0829582,21.7102331 26.5306882,22.6548533 28.0531405,25.482821 C29.5769573,28.2851367 29.3107073,29.946455 26.3705288,30.6737259 C22.8338887,31.5379235 19.3190808,32.4461455 15.8295164,33.3751665 C15.1225295,33.5630506 14.4324284,33.859956 13.8433011,34.2690026 C12.4441664,35.2271422 12.0467528,36.6870571 12.945965,38.1301595 C13.528952,39.0907256 14.4614243,39.81661 15.186832,40.6899937 C15.801885,41.4543561 16.5011965,42.2058925 16.8878646,43.0862093 C19.0565832,48.0952965 21.1693567,53.1487548 23.2580808,58.2061996 C24.1011776,60.2167674 25.4334513,61.060686 27.6840405,61.0031421 C34.2763307,60.7629139 40.6927697,59.7297247 47.0213683,57.8775757 Z" id="ic_kaodim"></path>
                                </g>
                            </g>
                        </g>
                    </g>
                    <g id="Benefits-#6" mask="url(#mask-5)">
                        <g transform="translate(1282.500000, 239.500000) rotate(-8.000000) translate(-1282.500000, -239.500000) translate(1230.000000, 188.000000)">
                            <path d="M20.4768001,11.9448001 L84.1824006,11.9448001 C88.8944941,11.9448001 92.7144007,15.7647066 92.7144007,20.4768001 L92.7144007,81.9072006 C92.7144007,86.6192941 88.8944941,90.4392007 84.1824006,90.4392007 L20.4768001,90.4392007 C15.7647066,90.4392007 11.9448001,86.6192941 11.9448001,81.9072006 L11.9448001,20.4768001 C11.9448001,15.7647066 15.7647066,11.9448001 20.4768001,11.9448001 Z" id="Rectangle" fill="#FFFFFF" transform="translate(52.329600, 51.192000) rotate(21.000000) translate(-52.329600, -51.192000) "></path>
                            <g id="Group" stroke-width="1" fill="none" transform="translate(32.607252, 32.440024)">
                                <g id="Icons-/-Cards-/-Insurance" transform="translate(18.170000, 18.170000) rotate(20.000000) translate(-18.170000, -18.170000) " fill="#ED193A">
                                    <path d="M18.1890162,4.62214918 C20.1649912,5.35455687 22.1409661,5.84282866 24.116941,6.08696455 C26.0929159,6.33110045 28.0562136,6.40739292 30.0068342,6.31584196 L30.0068342,6.31584196 L30.0448657,18.3169155 C30.002521,28.2583253 18.1890162,31.7212337 18.1890162,31.7212337 L18.1890162,31.7212337 L18.1642613,31.713789 C17.5673333,31.5319383 6.37438227,27.993221 6.33316678,18.3169155 L6.33316678,18.3169155 L6.29513527,6.31584196 C8.29646452,6.40739292 10.2851166,6.33110045 12.2610915,6.08696455 C14.2370664,5.84282866 16.2130413,5.35455687 18.1890162,4.62214918 Z M18.7009144,10.5441519 L18.2294227,10.5441519 C17.5783422,10.5441519 17.0505372,11.0719569 17.0505372,11.7230375 L17.0505372,11.7230375 L17.0496695,15.9921519 L12.924555,15.9923944 C12.2734745,15.9923944 11.7456695,16.5201995 11.7456695,17.17128 L11.7456695,17.17128 L11.7456695,17.7192382 C11.7456695,18.3703187 12.2734745,18.8981238 12.924555,18.8981238 L12.924555,18.8981238 L17.0496695,18.8971519 L17.0505372,23.1674807 C17.0505372,23.8185612 17.5783422,24.3463663 18.2294227,24.3463663 L18.2294227,24.3463663 L18.7009144,24.3463663 C19.3519949,24.3463663 19.8798,23.8185612 19.8798,23.1674807 L19.8798,23.1674807 L19.8796695,18.8971519 L24.0057821,18.8981238 C24.6568627,18.8981238 25.1846677,18.3703187 25.1846677,17.7192382 L25.1846677,17.7192382 L25.1846677,17.17128 C25.1846677,16.5201995 24.6568627,15.9923944 24.0057821,15.9923944 L24.0057821,15.9923944 L19.8796695,15.9921519 L19.8798,11.7230375 C19.8798,11.0719569 19.3519949,10.5441519 18.7009144,10.5441519 L18.7009144,10.5441519 Z" id="Combined-Shape"></path>
                                </g>
                            </g>
                        </g>
                    </g>
                    <g id="Benefits-#5" mask="url(#mask-5)">
                        <g transform="translate(1398.500000, 119.500000) rotate(-65.000000) translate(-1398.500000, -119.500000) translate(1341.000000, 63.000000)">
                            <path d="M22.5244807,13.1392804 L92.6006427,13.1392804 C97.7839457,13.1392804 101.985843,17.3411777 101.985843,22.5244807 L101.985843,90.0979226 C101.985843,95.2812256 97.7839457,99.4831229 92.6006427,99.4831229 L22.5244807,99.4831229 C17.3411777,99.4831229 13.1392804,95.2812256 13.1392804,90.0979226 L13.1392804,22.5244807 C13.1392804,17.3411777 17.3411777,13.1392804 22.5244807,13.1392804 Z" id="Rectangle" fill="#FFFFFF" transform="translate(57.562562, 56.311202) rotate(21.000000) translate(-57.562562, -56.311202) "></path>
                            <g id="Group" stroke-width="1" fill="none" transform="translate(36.412739, 32.119867)">
                                <g id="Icons-/-Cards-/-Insurance" transform="translate(19.987001, 19.987001) rotate(20.000000) translate(-19.987001, -19.987001) " fill="#E3193A">
                                    <g id="noun_Call-support_2075371" transform="translate(1.665583, 1.665583)">
                                        <path d="M31.2783241,5.36451106 C27.8192404,1.90542743 23.2169003,0 18.3214176,0 C13.4259348,0 8.8235947,1.90542743 5.36451106,5.36451106 C1.90542743,8.8235947 0,13.4259348 0,18.3214176 C0,23.2169003 1.90542743,27.8192404 5.36451106,31.2783241 C8.8235947,34.7374077 13.4259348,36.6428351 18.3214176,36.6428351 C23.2169003,36.6428351 27.8192404,34.7374077 31.2783241,31.2783241 C34.7374077,27.8192404 36.6428351,23.2169003 36.6428351,18.3214176 C36.6428351,13.4259348 34.7374077,8.8235947 31.2783241,5.36451106 Z M31.286764,22.6765339 C31.286764,24.305045 30.1760359,25.6496105 28.6894977,26.033772 C28.1383093,28.0714986 26.2676095,29.5997936 24.0210994,29.5997936 L22.5679665,29.5997936 C21.9833728,31.1197372 20.5302399,32.1970599 18.8349182,32.1970599 C16.6552188,32.1970599 14.8596811,30.4015221 14.8596811,28.2218227 C14.8596811,26.0421234 16.6552188,24.2465856 18.8349182,24.2465856 C20.5636453,24.2465856 22.0167782,25.3155569 22.5679665,26.8438519 L24.0210994,26.8438519 C24.6474498,26.8438519 25.1986382,26.5682577 25.5744484,26.1506908 L24.0210994,26.1506908 L24.0210994,14.7177083 L25.4074216,14.7177083 C25.2320435,10.8760926 22.0501835,7.80279999 18.1417571,7.80279999 C14.2333307,7.80279999 11.0514707,10.8844439 10.8760926,14.7177083 L12.2624148,14.7177083 L12.2624148,26.1339881 L8.4542044,26.1339881 C6.55009921,26.1339881 4.99675024,24.5806391 4.99675024,22.6765339 L4.99675024,18.1751625 C4.99675024,16.3796247 6.34966709,14.8930864 8.11179952,14.7177083 C8.28717763,9.32274361 12.7133871,4.99675024 18.1417571,4.99675024 C23.5701272,4.99675024 27.9963366,9.32274361 28.1717147,14.7177083 C29.9338471,14.8930864 31.286764,16.3796247 31.286764,18.1751625 L31.286764,22.6765339 L31.286764,22.6765339 Z" id="Shape"></path>
                                    </g>
                                </g>
                            </g>
                        </g>
                    </g>
                    <g id="Benefits-#3" mask="url(#mask-5)">
                        <g transform="translate(361.500000, 55.500000) rotate(-4.000000) translate(-361.500000, -55.500000) translate(309.000000, 4.000000)">
                            <path d="M20.4768001,11.9448001 L84.1824006,11.9448001 C88.8944941,11.9448001 92.7144007,15.7647066 92.7144007,20.4768001 L92.7144007,81.9072006 C92.7144007,86.6192941 88.8944941,90.4392007 84.1824006,90.4392007 L20.4768001,90.4392007 C15.7647066,90.4392007 11.9448001,86.6192941 11.9448001,81.9072006 L11.9448001,20.4768001 C11.9448001,15.7647066 15.7647066,11.9448001 20.4768001,11.9448001 Z" id="Rectangle" fill="#FFFFFF" transform="translate(52.329600, 51.192000) rotate(21.000000) translate(-52.329600, -51.192000) "></path>
                            <g id="Group" stroke-width="1" fill="none" transform="translate(31.330662, 36.360523)">
                                <g id="Icons-/-Cards-/-Insurance" transform="translate(18.170000, 18.170000) rotate(20.000000) translate(-18.170000, -18.170000) " fill="#EB1A3B">
                                    <path d="M18.1700005,1.51416671 C22.4302681,1.51416671 26.3169535,3.11366277 29.2622931,5.74489153 C29.1605764,5.82443534 29.0670491,5.91693729 28.9823017,6.02082116 L28.9823017,6.02082116 L16.8791638,20.8569257 L12.7189151,15.5872772 C12.0739195,14.7702828 10.8887424,14.6308503 10.071748,15.2758458 C9.25475364,15.9208414 9.11532104,17.1060185 9.76031663,17.9230129 L9.76031663,17.9230129 L15.375767,25.0359167 C16.1226893,25.9820182 17.553516,25.9934689 18.3154846,25.0594428 L18.3154846,25.0594428 L31.7751312,8.55945444 C33.6966793,11.2747336 34.8258343,14.5905029 34.8258343,18.1700005 C34.8258343,27.3687635 27.3687635,34.8258343 18.1700005,34.8258343 C8.9712375,34.8258343 1.51416671,27.3687635 1.51416671,18.1700005 C1.51416671,8.9712375 8.9712375,1.51416671 18.1700005,1.51416671 Z" id="Combined-Shape"></path>
                                </g>
                            </g>
                        </g>
                    </g>
                    <g id="Benefits-#2" mask="url(#mask-5)">
                        <g transform="translate(276.000000, 235.500000) rotate(-36.000000) translate(-276.000000, -235.500000) translate(214.000000, 174.000000)">
                            <path d="M23.8339215,14.630401 L99.3571205,14.630401 C105.011633,14.630401 109.595521,19.2142891 109.595521,24.8688015 L109.595521,97.9920043 C109.595521,103.646517 105.011633,108.230405 99.3571205,108.230405 L23.8339215,108.230405 C18.179409,108.230405 13.595521,103.646517 13.595521,97.9920043 L13.595521,24.8688015 C13.595521,19.2142891 18.179409,14.630401 23.8339215,14.630401 Z" id="Rectangle" fill="#FFFFFF" transform="translate(61.595523, 61.430403) rotate(21.000000) translate(-61.595523, -61.430403) "></path>
                            <g id="Group" stroke-width="1" fill="none" transform="translate(44.324895, 38.354091)">
                                <g id="Icons-/-Cards-/-Insurance" transform="translate(19.200001, 19.200001) rotate(20.000000) translate(-19.200001, -19.200001) " fill="#E3193A">
                                    <path d="M29.0461647,2.00000008 C31.0357154,2.00000008 32.6485649,3.61284958 32.6485649,5.60240028 C32.6485649,5.6632825 32.6470215,5.72415494 32.6439362,5.78495893 L32.0037708,18.3820001 L34.2586823,18.3928258 C35.2534514,18.3970394 36.0564514,19.2068787 36.0522331,20.2016477 C36.0505636,20.5953475 35.9199474,20.9776576 35.6803715,21.2900767 C33.147,24.5937222 30.8017107,27.3288286 28.6445036,29.4953958 C26.3574798,31.7921545 23.8591121,33.8744839 21.1494006,35.7423841 L20.4051495,36.2464965 C19.81878,36.6367313 19.058746,36.6493739 18.459722,36.2788575 C15.9277446,34.7127445 13.157191,32.4251232 10.1480613,29.4159934 C7.57333675,26.8412689 5.17361482,24.0879847 2.94889549,21.1561409 C2.34758287,20.3636833 2.50252382,19.2338077 3.29497463,18.6324862 C3.61027577,18.3932318 3.99560515,18.2644941 4.39140139,18.2661725 L6.65177075,18.2760001 L6.01914161,5.78495893 C5.91831725,3.79796462 7.44736011,2.10545317 9.43435442,2.00462881 C9.49515841,2.00154349 9.55603085,2.00000008 9.61691307,2.00000008 L29.0461647,2.00000008 Z M19.2691056,6.40000025 C18.9278116,6.40000025 18.7195853,6.5810696 18.6444265,6.94320829 L18.6444265,6.94320829 L18.6444265,8.58114412 C17.9599126,8.64633592 17.2998555,8.80931298 16.6642355,9.07008019 C16.0286154,9.3308474 15.4663445,9.67717365 14.977406,10.1090693 C14.4884675,10.540965 14.0973226,11.0502683 13.8039594,11.6369946 C13.5105963,12.2237208 13.363917,12.8837779 13.363917,13.6171856 C13.363917,14.4320832 13.5024475,15.1125124 13.7795126,15.6584937 C14.0565778,16.2044751 14.4354995,16.6689597 14.916289,17.0519615 C15.3970785,17.4349633 15.9471261,17.7446198 16.5664482,17.98094 C17.1857704,18.2172603 17.8376786,18.4332049 18.5221925,18.6287803 L18.5221925,18.6287803 L18.6444265,18.6532271 L18.6444265,23.8115027 C17.9599126,23.7463109 17.3080044,23.5670361 16.6886823,23.273673 C16.0693601,22.9803099 15.5641313,22.5565695 15.1729804,22.0024392 C14.535687,21.7530086 13.9326658,21.915507 13.363917,22.4899343 C12.7951682,23.0643617 12.6566363,23.6597142 12.9483213,24.2759919 C13.698027,25.0582936 14.5658799,25.6205644 15.5519059,25.9628214 C16.5379319,26.3050783 17.5687618,26.4680554 18.6444265,26.4517574 L18.6444265,26.4517574 L18.6444265,28.1874805 C18.6444265,28.6355204 18.8644478,28.8595403 19.3044902,28.8595403 C19.7445327,28.8595403 19.9645539,28.6355204 19.9645539,28.1874805 L19.9645539,28.1874805 L19.9645539,26.4273106 C20.7468555,26.3458209 21.4761779,26.174695 22.1525428,25.9139278 C22.8289078,25.6531606 23.4196996,25.2986855 23.9249361,24.8504918 C24.4301725,24.4022982 24.8294663,23.8644739 25.1228294,23.2370028 C25.4161926,22.6095317 25.5628719,21.8883582 25.5628719,21.0734607 C25.5628719,20.2422652 25.4039693,19.5496127 25.0861592,18.9954824 C24.7683492,18.4413521 24.3527577,17.9809419 23.8393723,17.614238 C23.3259868,17.2475341 22.7392694,16.950101 22.0792024,16.7219297 C21.4191354,16.4937584 20.7468551,16.290037 20.0623411,16.1107596 L20.0623411,16.1107596 L19.9645539,16.0863128 L19.9645539,11.1969521 C20.5349822,11.1969521 21.0809553,11.3151105 21.6024897,11.5514307 C22.1240242,11.787751 22.5722111,12.1096307 22.9470639,12.5170795 C23.6726198,12.8647114 24.2955367,12.749759 24.8158146,12.1722224 C25.3360926,11.5946857 25.3895372,10.9517872 24.9761486,10.2435268 C24.3568265,9.68939644 23.6112065,9.26973051 22.7392661,8.98451638 C21.8673258,8.69930224 21.0157706,8.55669732 20.1845751,8.55669732 L20.1845751,8.55669732 L19.9645539,8.55669732 L19.9645539,6.94320829 C19.8422156,6.5810696 19.6103995,6.40000025 19.2691056,6.40000025 Z M19.9645539,19.044376 C20.257917,19.1421637 20.5512757,19.2480988 20.8446388,19.3621844 C21.138002,19.4762701 21.4069141,19.6148006 21.6513834,19.7777801 C21.8958526,19.9407596 22.0954995,20.1444809 22.25033,20.3889502 C22.4051606,20.6334194 22.4825747,20.934927 22.4825747,21.2934819 C22.4825747,21.6520368 22.4133094,21.9739165 22.2747768,22.2591306 C22.1362443,22.5443448 21.9528951,22.7888104 21.7247238,22.9925348 C21.4965525,23.1962591 21.2317147,23.367385 20.9302027,23.5059176 C20.6286906,23.6444502 20.3068109,23.7463109 19.9645539,23.8115027 L19.9645539,23.8115027 Z M18.6444265,11.2458457 L18.6444265,15.7196107 C18.3510634,15.5892271 18.069928,15.4710688 17.8010118,15.3651321 C17.5320956,15.2591954 17.2998533,15.1247393 17.1042779,14.9617598 C16.9087025,14.7987803 16.7497999,14.6032078 16.6275652,14.3750365 C16.5053306,14.1468652 16.4442142,13.8453577 16.4442142,13.4705048 C16.4442142,12.8511827 16.6683077,12.3500282 17.1165013,11.9670264 C17.564695,11.5840246 18.0739983,11.3436334 18.6444265,11.2458457 L18.6444265,11.2458457 Z" id="Combined-Shape"></path>
                                </g>
                            </g>
                        </g>
                    </g>
                    <g id="Group-7" mask="url(#mask-5)">
                        <g transform="translate(1034.000000, 10.427487)">
                            <g id="Benefits-#4" transform="translate(83.901080, 82.427487) rotate(-1.000000) translate(-83.901080, -82.427487) translate(1.401080, 1.427487)">
                                <path d="M32.5000005,19 L133.300005,19 C140.755849,19 146.800005,25.0441561 146.800005,32.5000005 L146.800005,129.700004 C146.800005,137.155849 140.755849,143.200005 133.300005,143.200005 L32.5000005,143.200005 C25.0441561,143.200005 19,137.155849 19,129.700004 L19,32.5000005 C19,25.0441561 25.0441561,19 32.5000005,19 Z" id="Rectangle" fill="#FFFFFF" transform="translate(82.900003, 81.100002) rotate(21.000000) translate(-82.900003, -81.100002) "></path>
                                <g id="Group" transform="translate(48.000000, 46.000000)" fill="#E3193A" fill-rule="nonzero">
                                    <g id="Logo/Thumb/Red" transform="translate(35.000000, 35.000000) rotate(23.000000) translate(-35.000000, -35.000000) ">
                                        <path d="M50.5766314,59.1710939 L50.575156,59.1710939 C49.9672225,59.9998259 49.0605306,60.606395 47.8854445,60.9402252 C41.3392064,62.8743568 34.5785697,63.9576369 27.8012178,64.1666667 L27.4128441,64.1666667 C24.055296,64.1666667 21.6733727,62.5895842 20.379817,59.4388857 C18.3939429,54.630682 16.2572903,49.4692423 14.0403023,44.3710661 C13.9082859,44.0755473 13.4939865,43.573252 13.1375082,43.145313 L12.7772775,42.7400796 C12.5833464,42.4839056 12.3334705,42.2384776 12.0750664,41.9559582 C11.4980491,41.3656138 10.8451309,40.7021264 10.291822,39.81661 C8.50346072,36.9297118 9.27935537,33.5698103 12.1047445,31.6327321 C12.9882649,31.0373614 13.9976613,30.5667845 15.0302545,30.3031575 C18.6277858,29.3396448 22.188987,28.4404357 25.6145901,27.5880242 C25.5369836,27.4297787 25.4334513,27.2477876 25.3181502,26.9994132 C24.6372596,25.7715802 24.1734967,24.8616249 23.7656787,24.1139016 C23.2580808,23.1230037 22.8593027,22.3517082 22.2196885,21.2420828 C20.9784959,18.9671946 19.0565832,15.520284 19.4099913,11.5000149 C19.4203957,11.3020779 19.830431,7.12425656 22.7006784,6.13786503 C23.2140754,5.94235464 23.7656787,5.83333333 24.3130178,5.83333333 C26.3275467,5.83333333 28.0881061,7.14626881 29.1365617,9.43467635 C30.0942773,11.5000149 31.3325704,14.1165263 32.4985444,15.9459697 C34.0931452,18.5004308 36.4317453,20.7436006 40.1212105,23.2360114 C41.8870573,24.4503251 43.2483269,25.3426013 44.6037973,26.2617428 C45.9920159,27.1902438 47.3688068,28.1137184 49.1854816,29.3396448 C49.8674247,29.7991732 50.3391217,30.5102162 50.6652542,31.2640726 L50.6665558,31.2640726 C50.8590001,30.7882035 51.3401166,30.4427083 51.9121926,30.4427083 L55.0595986,30.4427083 L55.0595986,60.5208333 L51.9121926,60.5208333 C51.1673055,60.5208333 50.5766314,59.9460641 50.5766314,59.2330528 L50.5766314,59.1710939 L50.5766314,59.1710939 Z M57.8500109,30.4427083 L59.3217765,30.4427083 C60.0645388,30.4427083 60.6666667,31.054819 60.6666667,31.8098958 L60.6666667,59.1536458 C60.6666667,59.9087226 60.0645388,60.5208333 59.3217765,60.5208333 L57.8500109,60.5208333 L57.8500109,30.4427083 Z M47.0213683,57.8775757 C47.9784017,57.6092689 48.3452844,57.1646908 48.3265224,56.0722245 C48.2596614,52.5169858 48.2896806,48.9527343 48.2896806,45.4049487 C48.2896806,41.8354974 48.3452844,38.2674328 48.2722831,34.7031813 C48.2596614,34.1327693 47.8854445,32.2865133 47.455112,32.0098869 C43.858263,29.5320354 41.9648344,28.3146019 38.3715672,25.8799082 C35.0636531,23.6344852 32.0051034,21.0836639 29.8447425,17.6655252 C28.6084962,15.6785295 27.3045361,12.9263048 26.3174834,10.7772504 C25.9180231,9.9295187 25.0322853,8.58399816 23.7167269,9.13170458 C23.1194125,9.2688045 22.6058449,10.8763922 22.5207336,11.7695349 C22.2792153,14.6618061 23.566119,17.1874954 24.9413748,19.6814661 C26.0829582,21.7102331 26.5306882,22.6548533 28.0531405,25.482821 C29.5769573,28.2851367 29.3107073,29.946455 26.3705288,30.6737259 C22.8338887,31.5379235 19.3190808,32.4461455 15.8295164,33.3751665 C15.1225295,33.5630506 14.4324284,33.859956 13.8433011,34.2690026 C12.4441664,35.2271422 12.0467528,36.6870571 12.945965,38.1301595 C13.528952,39.0907256 14.4614243,39.81661 15.186832,40.6899937 C15.801885,41.4543561 16.5011965,42.2058925 16.8878646,43.0862093 C19.0565832,48.0952965 21.1693567,53.1487548 23.2580808,58.2061996 C24.1011776,60.2167674 25.4334513,61.060686 27.6840405,61.0031421 C34.2763307,60.7629139 40.6927697,59.7297247 47.0213683,57.8775757 Z" id="ic_kaodim"></path>
                                    </g>
                                </g>
                            </g>
                            <g id="Benefits-#6" transform="translate(248.689473, 228.646200) rotate(-8.000000) translate(-248.689473, -228.646200) translate(196.922075, 177.533164)">
                                <path d="M19.9145975,11.8658358 L83.620198,11.8658358 C88.3322915,11.8658358 92.1521981,15.6857423 92.1521981,20.3978358 L92.1521981,81.8282363 C92.1521981,86.5403298 88.3322915,90.3602363 83.620198,90.3602363 L19.9145975,90.3602363 C15.202504,90.3602363 11.3825975,86.5403298 11.3825975,81.8282363 L11.3825975,20.3978358 C11.3825975,15.6857423 15.202504,11.8658358 19.9145975,11.8658358 Z" id="Rectangle" fill="#FFFFFF" transform="translate(51.767398, 51.113036) rotate(21.000000) translate(-51.767398, -51.113036) "></path>
                                <g id="Group" transform="translate(28.000000, 28.000000)">
                                    <g id="ic_vaccinated-copy-3" transform="translate(23.500000, 23.500000) rotate(21.000000) translate(-23.500000, -23.500000) ">
                                        <g id="Covid-19-vaccinated-Copy-5" transform="translate(3.525000, 0.000000)">
                                            <g id="shield" fill="#ED193A">
                                                <path d="M19.7428352,0.617508015 L38.7944152,6.14830327 C38.9644739,6.19889309 39.1079023,6.30158666 39.2086607,6.43592737 L39.2086607,6.43592737 L39.3663365,27.1871133 C39.3663365,29.7096411 38.3197661,32.2843519 36.2923302,34.8506285 C34.6997307,36.866448 32.4944009,38.888275 29.7420363,40.8644951 C25.0844591,44.2085519 20.4985852,46.2606146 20.3052231,46.3464112 C19.4515999,46.2606146 14.8656338,44.2085522 10.208057,40.8644956 C7.45559573,38.8882714 5.25026785,36.8664463 3.65768033,34.8506419 C1.63023784,32.2842693 0.583663532,29.7095563 0.583663532,27.1871133 L0.583663532,27.1871133 L0.583663532,6.90771484 C0.842175515,6.30163138 0.985666163,6.19890647 1.15580959,6.14829146 L1.15580959,6.14829146 L19.7428352,0.617508015 Z" id="Shape" stroke="#FFFFFF" stroke-width="1.16732706" fill-rule="nonzero"></path>
                                                <path d="M36.95375,27.2031861 C36.95375,31.8387891 32.2919887,36.1854191 28.3812549,39.0156237 C24.8751806,41.5528443 21.3194946,43.3532289 19.975137,44 C18.6307795,43.3532289 15.0750021,41.5528443 11.5689278,39.0156237 C7.65810269,36.1854191 2.99625,31.8387891 2.99625,27.2031861 L2.99625,8.08209843 L19.9750457,3 L36.95375,8.08209843 L36.95375,27.2031861 Z" id="Path"></path>
                                                <polygon id="Path-6" points="19.32875 1.175 2.35 7.6154982 2.35 8.225 37.7476689 8.225 36.3075 6.21293951"></polygon>
                                            </g>
                                            <path d="M10.3339092,24.1594595 L10.602415,23.0957632 L11.92429,23.0957632 L12.1962383,24.1594595 L13.1842021,24.1594595 L11.7762676,19.1473501 L10.7573222,19.1473501 L9.34594529,24.1594595 L10.3339092,24.1594595 Z M11.7246318,22.3074575 L10.8020732,22.3074575 L11.2530254,20.5346304 L11.2736797,20.5346304 L11.7246318,22.3074575 Z M15.1429179,24.1594595 L15.8417217,21.088854 L15.862376,21.088854 L16.5680644,24.1594595 L17.4802959,24.1594595 L18.4476054,19.1473501 L17.4975078,19.1473501 L16.9570537,22.3453237 L16.9363994,22.3453237 L16.2031718,19.1473501 L15.5009258,19.1473501 L14.7780254,22.3453237 L14.7573711,22.3453237 L14.216917,19.1473501 L13.2668193,19.1473501 L14.2341289,24.1594595 L15.1429179,24.1594595 Z M19.5663799,24.1594595 L19.8348857,23.0957632 L21.1567607,23.0957632 L21.428709,24.1594595 L22.4166728,24.1594595 L21.0087383,19.1473501 L19.9897929,19.1473501 L18.578416,24.1594595 L19.5663799,24.1594595 Z M20.9571025,22.3074575 L20.0345439,22.3074575 L20.4854961,20.5346304 L20.5061504,20.5346304 L20.9571025,22.3074575 Z M23.7867412,24.1594595 L23.7867412,22.1663198 L24.495872,22.1663198 C24.6863506,22.1663198 24.8326518,22.2351675 24.9347759,22.3728628 C25.0368999,22.5105581 25.0879619,22.704479 25.0879619,22.9546255 L25.0879619,22.9546255 L25.0879619,23.2954214 C25.0879619,23.4675405 25.098289,23.6362173 25.1189433,23.8014516 C25.1395976,23.966686 25.1900859,24.086022 25.2704082,24.1594595 L25.2704082,24.1594595 L26.2824687,24.1594595 L26.2824687,24.0871694 C26.2021465,24.0160268 26.1459209,23.9018545 26.113792,23.7446523 C26.0816631,23.5874502 26.0655986,23.4400015 26.0655986,23.3023061 L26.0655986,23.3023061 L26.0655986,22.9477407 C26.0655986,22.644811 26.0087993,22.3923696 25.8952007,22.1904165 C25.781602,21.9884634 25.5962871,21.8438833 25.3392558,21.7566763 C25.5641582,21.6442251 25.7351299,21.493334 25.8521709,21.3040029 C25.9692119,21.1146719 26.0277324,20.8891958 26.0277324,20.6275747 C26.0277324,20.1640005 25.8871684,19.8019765 25.6060405,19.5415029 C25.3249126,19.2810293 24.9376445,19.1507925 24.4442363,19.1507925 L24.4442363,19.1507925 L22.8091045,19.1507925 L22.8091045,24.1594595 L23.7867412,24.1594595 Z M24.4407939,21.3848989 L23.7867412,21.3848989 L23.7867412,19.9322134 L24.4442363,19.9322134 C24.6415996,19.9322134 24.791917,19.9999136 24.8951885,20.135314 C24.9984599,20.2707143 25.0500957,20.4531606 25.0500957,20.6826528 C25.0500957,20.9075552 24.9984599,21.0808218 24.8951885,21.2024526 C24.791917,21.3240835 24.6404521,21.3848989 24.4407939,21.3848989 L24.4407939,21.3848989 Z M29.7661601,24.1594595 L29.7661601,23.3780386 L27.78679,23.3780386 L27.78679,21.9597768 L29.4701152,21.9597768 L29.4701152,21.1783559 L27.78679,21.1783559 L27.78679,19.9322134 L29.7592754,19.9322134 L29.7592754,19.1473501 L26.8057109,19.1473501 L26.8057109,24.1594595 L29.7661601,24.1594595 Z" id="AWARE" fill="#FFFFFF" fill-rule="nonzero"></path>
                                            <rect id="Rectangle" fill="#ED193A" x="1.07972973" y="7.47364865" width="37.7905405" height="10.575"></rect>
                                            <path d="M6.72601351,15.7873311 C7.36227477,15.7873311 7.84369369,15.6155968 8.17027027,15.2721284 C8.49684685,14.9286599 8.65731982,14.4190878 8.65168919,13.7434122 L8.65168919,13.7434122 L8.63902027,13.7180743 L7.48192568,13.7180743 C7.49600225,14.1234797 7.44603041,14.4099381 7.33201014,14.5774493 C7.21798986,14.7449606 7.01599099,14.8287162 6.72601351,14.8287162 C6.43040541,14.8287162 6.20588401,14.7231419 6.05244932,14.5119932 C5.89901464,14.3008446 5.8222973,13.978491 5.8222973,13.5449324 L5.8222973,13.5449324 L5.8222973,11.6994932 C5.8222973,11.2715653 5.89408784,10.952027 6.03766892,10.7408784 C6.18125,10.5297297 6.38817568,10.4241554 6.65844595,10.4241554 C6.97376126,10.4241554 7.19476351,10.5128378 7.3214527,10.6902027 C7.44814189,10.8675676 7.50304054,11.157545 7.48614865,11.5601351 L7.48614865,11.5601351 L8.64324324,11.5601351 L8.65591216,11.5347973 C8.6446509,10.8506757 8.47221284,10.3340653 8.13859797,9.98496622 C7.80498311,9.63586712 7.3115991,9.46131757 6.65844595,9.46131757 C6.04189189,9.46131757 5.54991554,9.65768581 5.18251689,10.0504223 C4.81511824,10.4431588 4.63141892,10.9956644 4.63141892,11.7079392 L4.63141892,11.7079392 L4.63141892,13.5449324 C4.63141892,14.2600225 4.8214527,14.8125282 5.20152027,15.2024493 C5.58158784,15.5923705 6.08975225,15.7873311 6.72601351,15.7873311 Z M11.1983108,15.7873311 C11.8486487,15.7873311 12.369482,15.5846284 12.7608108,15.179223 C13.1521396,14.7738176 13.3478041,14.2107545 13.3478041,13.4900338 L13.3478041,13.4900338 L13.3478041,11.7670608 C13.3478041,11.0491554 13.150732,10.4853885 12.7565878,10.0757601 C12.3624437,9.66613176 11.8416104,9.46131757 11.1940878,9.46131757 C10.5465653,9.46131757 10.0285473,9.66613176 9.64003379,10.0757601 C9.25152027,10.4853885 9.05726352,11.0491554 9.05726352,11.7670608 L9.05726352,11.7670608 L9.05726352,13.4900338 C9.05726352,14.2107545 9.25152027,14.7738176 9.64003379,15.179223 C10.0285473,15.5846284 10.547973,15.7873311 11.1983108,15.7873311 Z M11.1983108,14.8244932 C10.8858108,14.8244932 10.6493243,14.7132883 10.4888514,14.4908784 C10.3283784,14.2684685 10.2481419,13.9348536 10.2481419,13.4900338 L10.2481419,13.4900338 L10.2481419,11.7586149 C10.2481419,11.3166104 10.3269707,10.9844032 10.4846284,10.7619932 C10.642286,10.5395833 10.8787725,10.4283784 11.1940878,10.4283784 C11.5065878,10.4283784 11.744482,10.5402872 11.9077703,10.7641047 C12.0710586,10.9879223 12.1527027,11.3194257 12.1527027,11.7586149 L12.1527027,11.7586149 L12.1527027,13.4900338 C12.1527027,13.9348536 12.0710586,14.2684685 11.9077703,14.4908784 C11.744482,14.7132883 11.5079955,14.8244932 11.1983108,14.8244932 Z M16.4054054,15.6986486 L18.1241554,9.55 L16.8614865,9.55 L15.8353041,14.1403716 L15.7888514,14.3641892 L15.7635135,14.3641892 L15.7170608,14.1277027 L14.6993243,9.55 L13.4366554,9.55 L15.1554054,15.6986486 L16.4054054,15.6986486 Z M19.7163851,15.6986486 L19.7163851,9.55 L18.5212838,9.55 L18.5212838,15.6986486 L19.7163851,15.6986486 Z M22.3981419,15.6986486 C23.0287725,15.6986486 23.5496059,15.4607545 23.9606419,14.9849662 C24.3716779,14.5091779 24.577196,13.8954392 24.577196,13.14375 L24.577196,13.14375 L24.577196,12.1091216 C24.577196,11.3574324 24.3716779,10.7429899 23.9606419,10.2657939 C23.5496059,9.78859797 23.0287725,9.55 22.3981419,9.55 L22.3981419,9.55 L20.5400338,9.55 L20.5400338,15.6986486 L22.3981419,15.6986486 Z M22.3305743,14.7400338 L21.7435811,14.7400338 L21.7435811,10.5128378 L22.3305743,10.5128378 C22.6655969,10.5128378 22.923902,10.6578266 23.1054899,10.9478041 C23.2870777,11.2377815 23.3778716,11.6220721 23.3778716,12.1006757 L23.3778716,12.1006757 L23.3778716,13.14375 C23.3778716,13.6251689 23.2870777,14.0115709 23.1054899,14.3029561 C22.923902,14.5943412 22.6655969,14.7400338 22.3305743,14.7400338 L22.3305743,14.7400338 Z M27.36875,13.5407095 L27.36875,12.5778716 L25.2699325,12.5778716 L25.2699325,13.5407095 L27.36875,13.5407095 Z M30.332027,15.6986486 L30.332027,9.54577703 L27.9925,9.96385135 L27.9925,10.8295608 L29.1327027,10.804223 L29.1327027,15.6986486 L30.332027,15.6986486 Z M33.4783108,15.7873311 C34.0667117,15.7873311 34.5530575,15.5754786 34.937348,15.1517736 C35.3216385,14.7280687 35.5137838,14.1558559 35.5137838,13.4351351 L35.5137838,13.4351351 L35.5137838,11.9317568 C35.5137838,11.1547297 35.3448649,10.5487331 35.0070271,10.1137669 C34.6691892,9.67880068 34.2314077,9.46131757 33.6936825,9.46131757 C33.1756644,9.46131757 32.7470327,9.67317005 32.4077872,10.096875 C32.0685417,10.52058 31.8989189,11.0407095 31.8989189,11.6572635 C31.8989189,12.3104167 32.0361656,12.8263232 32.3106588,13.2049831 C32.5851521,13.583643 32.9631081,13.772973 33.4445271,13.772973 C33.613446,13.772973 33.7732151,13.7307432 33.9238345,13.6462838 C34.0744539,13.5618243 34.2060698,13.4379505 34.3186825,13.2746622 L34.3186825,13.2746622 L34.3186825,13.5111486 C34.3186825,13.9278153 34.2391498,14.2515766 34.0800845,14.4824324 C33.9210192,14.7132883 33.720428,14.8287162 33.4783108,14.8287162 C33.2953153,14.8287162 33.1285079,14.8125282 32.9778885,14.780152 C32.8272692,14.7477759 32.6745383,14.6978041 32.519696,14.6302365 L32.519696,14.6302365 L32.3845608,15.5255068 C32.5506644,15.6099662 32.7308446,15.6747185 32.9251014,15.7197635 C33.1193581,15.7648086 33.3037613,15.7873311 33.4783108,15.7873311 Z M33.6725676,12.8692568 C33.4839415,12.8692568 33.3403604,12.7594595 33.2418243,12.5398649 C33.1432883,12.3202703 33.0940203,12.0260698 33.0940203,11.6572635 C33.0940203,11.3278716 33.1489189,11.0414133 33.2587162,10.7978885 C33.3685135,10.5543637 33.5092793,10.438232 33.6810135,10.4494932 L33.6810135,10.4494932 L33.7063514,10.4494932 C33.8893469,10.438232 34.0371509,10.5466216 34.1497635,10.7746622 C34.2623761,11.0027027 34.3186825,11.3391329 34.3186825,11.7839527 L34.3186825,11.7839527 L34.3186825,12.4849662 C34.2454843,12.6032095 34.1546903,12.6968187 34.0463007,12.7657939 C33.9379111,12.8347691 33.8133334,12.8692568 33.6725676,12.8692568 Z" id="COVID-19" fill="#000000" fill-rule="nonzero"></path>
                                        </g>
                                        <g id="open-book" transform="translate(16.450000, 27.025000)" fill="#FFFFFF" fill-rule="nonzero">
                                            <path d="M1.62987082,0 C1.62945927,0 1.62899627,0 1.62858472,0 C1.4840784,0 1.34816323,0.0483034498 1.24553236,0.136087801 C1.14176972,0.224842633 1.08461538,0.343020662 1.08461538,0.468830196 L1.08461538,7.49885693 C1.08461538,7.75665178 1.33015781,7.96689309 1.63203147,7.96755478 C2.90465426,7.97015744 5.03680416,8.19760272 6.50769231,9.5175 L6.50769231,2.1603773 C6.50769231,2.07298997 6.48166162,1.99089616 6.43253256,1.92296254 C5.22529515,0.255853889 2.90537448,0.00255853889 1.62987082,0 Z" id="Path"></path>
                                            <path d="M13.0153846,7.49890104 L13.0153846,0.468830196 C13.0153846,0.343020662 12.9582297,0.224842633 12.8544661,0.136087801 C12.7518343,0.0483034498 12.6158149,0 12.4714616,0 C12.4709986,0 12.4705356,0 12.470124,0 C11.1946597,0.00260265163 8.87471702,0.255898002 7.66741671,1.92300665 C7.61828718,1.99094027 7.59230769,2.07303408 7.59230769,2.16042142 L7.59230769,9.5175 C9.06320979,8.19760272 11.1953799,7.97015744 12.4680148,7.96755478 C12.7698399,7.96689309 13.0153846,7.75665178 13.0153846,7.49890104 Z" id="Path"></path>
                                            <path d="M13.6408939,2.115 L13.3079491,2.115 L13.3079491,8.0430206 C13.3079491,8.70687028 12.7826948,9.24819185 12.1370256,9.24983801 C11.2304359,9.25206256 9.73559763,9.43460899 8.67692308,10.4663989 C10.5079034,10.0047607 12.4380844,10.3048523 13.5381071,10.5629888 C13.6754587,10.5952003 13.8173901,10.561921 13.9274356,10.4716044 C14.0370922,10.3815102 14.1,10.246836 14.1,10.1022849 L14.1,2.58776099 C14.1,2.32708843 13.8940374,2.115 13.6408939,2.115 Z" id="Path"></path>
                                            <path d="M0.792057157,8.04309221 L0.792057157,2.115 L0.459109718,2.115 C0.206007447,2.115 0,2.32709099 0,2.5877667 L0,10.1022479 C0,10.2468453 0.0629083145,10.3814766 0.172565802,10.4715719 C0.282525734,10.5618451 0.424328679,10.5952582 0.561897411,10.5629574 C1.66192879,10.3047732 3.59216845,10.0047225 5.42307692,10.4663664 C4.36443714,9.43460842 2.86958696,9.25210428 1.96299001,9.24987971 C1.31735887,9.24827801 0.792057157,8.70694991 0.792057157,8.04309221 Z" id="Path"></path>
                                        </g>
                                    </g>
                                </g>
                            </g>
                            <g id="Benefits-#5" transform="translate(364.756410, 108.790997) rotate(-65.000000) translate(-364.756410, -108.790997) translate(307.812271, 52.566656)">
                                <path d="M21.9060578,13.0524196 L91.9822198,13.0524196 C97.1655228,13.0524196 101.36742,17.2543169 101.36742,22.4376199 L101.36742,90.0110619 C101.36742,95.1943648 97.1655228,99.3962621 91.9822198,99.3962621 L21.9060578,99.3962621 C16.7227548,99.3962621 12.5208575,95.1943648 12.5208575,90.0110619 L12.5208575,22.4376199 C12.5208575,17.2543169 16.7227548,13.0524196 21.9060578,13.0524196 Z" id="Rectangle" fill="#FFFFFF" transform="translate(56.944139, 56.224341) rotate(21.000000) translate(-56.944139, -56.224341) "></path>
                                <g id="masks_black_24dp" transform="translate(56.809527, 57.874769) rotate(21.000000) translate(-56.809527, -57.874769) translate(28.309527, 29.374769)">
                                    <rect id="Rectangle" x="0" y="0" width="57" height="57"></rect>
                                    <path d="M46.3125,14.25 C43.20125,14.25 40.68375,16.64875 40.4225,19.7125 C35.9575,18.525 33.6775,15.4375 28.5,15.4375 C23.29875,15.4375 21.0425,18.525 16.5775,19.7125 C16.31625,16.6725 13.79875,14.25 10.6875,14.25 C7.41,14.25 4.75,16.91 4.75,20.1875 L4.75,21.375 C4.75,35.625 13.3,39.92375 20.235,40.3275 C22.63375,41.8475 25.46,42.75 28.5,42.75 C31.54,42.75 34.36625,41.8475 36.765,40.3275 C43.7,39.92375 52.25,35.625 52.25,21.375 L52.25,20.1875 C52.25,16.91 49.59,14.25 46.3125,14.25 Z M8.3125,21.375 L8.3125,20.1875 C8.3125,18.88125 9.38125,17.8125 10.6875,17.8125 C11.99375,17.8125 13.0625,18.88125 13.0625,20.1875 L13.0625,27.3125 C13.0625,30.3525 13.965,33.17875 15.46125,35.5775 C11.85125,33.89125 8.3125,30.04375 8.3125,21.375 Z M33.9625,26.14875 C33.0125,25.745 32.2525,25.29375 31.56375,24.89 C30.47125,24.225 29.66375,23.75 28.5,23.75 C27.33625,23.75 26.505,24.225 25.38875,24.89 C24.72375,25.29375 23.96375,25.72125 23.06125,26.10125 C22.25375,26.4575 21.375,25.91125 21.375,25.0325 L21.375,25.0325 C21.375,24.5575 21.63625,24.13 22.06375,23.96375 C22.87125,23.63125 23.53625,23.2275 24.15375,22.87125 C25.46,22.0875 26.67125,21.375 28.5,21.375 C30.32875,21.375 31.51625,22.0875 32.775,22.8475 C33.41625,23.2275 34.08125,23.63125 34.9125,23.9875 C35.34,24.1775 35.60125,24.605 35.60125,25.05625 C35.625,25.91125 34.74625,26.48125 33.9625,26.14875 Z M48.6875,21.375 C48.6875,30.04375 45.14875,33.89125 41.53875,35.5775 C43.05875,33.17875 43.9375,30.3525 43.9375,27.3125 L43.9375,20.1875 C43.9375,18.88125 45.00625,17.8125 46.3125,17.8125 C47.61875,17.8125 48.6875,18.88125 48.6875,20.1875 L48.6875,21.375 L48.6875,21.375 Z" id="Shape" fill="#ED193A" fill-rule="nonzero"></path>
                                </g>
                            </g>
                        </g>
                    </g>
                    <g id="Group-6" mask="url(#mask-5)">
                        <g transform="translate(12.000000, 0.427487)">
                            <g id="Benefits-#1" transform="translate(0.000000, 96.506062)">
                                <rect id="Rectangle" fill="#FFFFFF" transform="translate(72.809275, 71.888935) rotate(21.000000) translate(-72.809275, -71.888935) " x="16.0092781" y="16.6889381" width="113.599993" height="110.399993" rx="11.9999993"></rect>
                                <g id="Group" transform="translate(42.000000, 41.000000)">
                                    <g id="ic_vaccinated-copy-5" transform="translate(30.500000, 30.500000) rotate(22.000000) translate(-30.500000, -30.500000) ">
                                        <g id="Covid-19-vaccinated-Copy-5" transform="translate(4.575000, 0.000000)">
                                            <g id="shield" fill="#ED193A">
                                                <path d="M25.6283812,0.817239107 C25.8219858,0.759602312 26.028472,0.759534053 26.2221941,0.817267324 L26.2221941,0.817267324 L50.3455001,7.99550623 C50.5627273,8.06012792 50.7459473,8.19129426 50.8746543,8.3628988 C51.002114,8.53284018 51.0760017,8.74244053 51.0760017,8.96533203 L51.0760017,8.96533203 L51.0760017,35.2854023 C51.0760017,38.5560676 49.7185328,41.8941733 47.0898823,45.2214521 C45.0237113,47.8366907 42.1625491,50.4596548 38.5917562,53.023513 C32.5482562,57.3626375 26.5978042,60.0253371 26.3468938,60.1366685 C25.252436,60.0253371 19.3018644,57.3626379 13.2583649,53.0235137 C9.68744649,50.45965 6.8262868,47.8366883 4.76013171,45.2214698 C2.13147247,41.8940664 0.773998259,38.5559577 0.773998259,35.2854023 L0.773998259,35.2854023 L0.773998259,8.96533203 C0.773998259,8.74247898 0.847920696,8.53292233 0.975383288,8.36300876 C1.10415283,8.19135296 1.28745378,8.06014552 1.50479273,7.99549058 L1.50479273,7.99549058 Z" id="Shape" stroke="#FFFFFF" stroke-width="1.54799652" fill-rule="nonzero"></path>
                                                <path d="M47.96125,35.3062628 C47.96125,41.3226838 41.9108789,46.9640545 36.8352457,50.6372989 C32.2848089,53.9302872 27.6699824,56.2669567 25.9251779,57.106383 C24.1803734,56.2669567 19.5654283,53.9302872 15.0149915,50.6372989 C9.93923966,46.9640545 3.88875,41.3226838 3.88875,35.3062628 L3.88875,10.489532 L25.9250593,3.89361702 L47.96125,10.489532 L47.96125,35.3062628 Z" id="Path"></path>
                                                <polygon id="Path-6" points="25.08625 1.525 3.05 9.88394447 3.05 10.675 48.9916554 10.675 47.1225 8.06360234"></polygon>
                                            </g>
                                            <path d="M9.58544691,31.3558942 L9.58544691,28.6528913 L11.792527,28.6528913 L11.792527,27.6387067 L9.58544691,27.6387067 L9.58544691,25.8694684 L12.1812233,25.8694684 L12.1812233,24.8508161 L8.31213148,24.8508161 L8.31213148,31.3558942 L9.58544691,31.3558942 Z M14.986985,31.4497174 C15.6452369,31.4497174 16.1776466,31.2613263 16.584214,30.8845441 C16.9907814,30.5077619 17.1940651,29.9723737 17.1940651,29.2783795 L17.1940651,29.2783795 L17.1940651,24.8508161 L15.9296852,24.8508161 L15.9296852,29.2783795 C15.9296852,29.6923932 15.8492653,29.9887555 15.6884254,30.1674665 C15.5275856,30.3461774 15.2937721,30.4355329 14.986985,30.4355329 C14.6891334,30.4355329 14.4582985,30.3417096 14.2944801,30.1540631 C14.1306618,29.9664167 14.0487526,29.6745221 14.0487526,29.2783795 L14.0487526,29.2783795 L14.0487526,24.8508161 L12.7799049,24.8508161 L12.7799049,29.2783795 C12.7799049,29.9693952 12.9831886,30.5040387 13.389756,30.8823102 C13.7963234,31.2605817 14.328733,31.4497174 14.986985,31.4497174 Z M21.7556618,31.3558942 L21.7556618,30.3417096 L19.3788063,30.3417096 L19.3788063,24.8508161 L18.1054909,24.8508161 L18.1054909,31.3558942 L21.7556618,31.3558942 Z M26.0402565,31.3558942 L26.0402565,30.3417096 L23.663401,30.3417096 L23.663401,24.8508161 L22.3900856,24.8508161 L22.3900856,31.3558942 L26.0402565,31.3558942 Z M29.954026,31.3558942 L29.954026,29.0237165 L30.9414039,29.0237165 C31.5877418,29.0237165 32.0993019,28.8323468 32.4760841,28.4496076 C32.8528663,28.0668683 33.0412575,27.5627545 33.0412575,26.9372663 C33.0412575,26.3147565 32.853611,25.8113874 32.478318,25.4271588 C32.103025,25.0429303 31.5907203,24.8508161 30.9414039,24.8508161 L30.9414039,24.8508161 L28.6807106,24.8508161 L28.6807106,31.3558942 L29.954026,31.3558942 Z M30.9414039,28.0050641 L29.954026,28.0050641 L29.954026,25.8694684 L30.9414039,25.8694684 C31.2154274,25.8694684 31.4231788,25.9714826 31.5646583,26.1755109 C31.7061378,26.3795392 31.7768776,26.6364362 31.7768776,26.9462018 C31.7768776,27.2529889 31.7053932,27.5061627 31.5624244,27.7057233 C31.4194557,27.9052838 31.2124489,28.0050641 30.9414039,28.0050641 L30.9414039,28.0050641 Z M35.1277077,31.3558942 L35.1277077,29.0237165 L36.1150856,29.0237165 C36.7614235,29.0237165 37.2729835,28.8323468 37.6497658,28.4496076 C38.026548,28.0668683 38.2149391,27.5627545 38.2149391,26.9372663 C38.2149391,26.3147565 38.0272926,25.8113874 37.6519996,25.4271588 C37.2767067,25.0429303 36.764402,24.8508161 36.1150856,24.8508161 L36.1150856,24.8508161 L33.8543922,24.8508161 L33.8543922,31.3558942 L35.1277077,31.3558942 Z M36.1150856,28.0050641 L35.1277077,28.0050641 L35.1277077,25.8694684 L36.1150856,25.8694684 C36.389109,25.8694684 36.5968605,25.9714826 36.73834,26.1755109 C36.8798195,26.3795392 36.9505592,26.6364362 36.9505592,26.9462018 C36.9505592,27.2529889 36.8790748,27.5061627 36.7361061,27.7057233 C36.5931373,27.9052838 36.3861305,28.0050641 36.1150856,28.0050641 L36.1150856,28.0050641 Z M42.870359,31.3558942 L42.870359,30.3417096 L40.3013893,30.3417096 L40.3013893,28.500987 L42.4861305,28.500987 L42.4861305,27.4868024 L40.3013893,27.4868024 L40.3013893,25.8694684 L42.8614235,25.8694684 L42.8614235,24.8508161 L39.0280739,24.8508161 L39.0280739,31.3558942 L42.870359,31.3558942 Z" id="FULLPPE" fill="#FFFFFF" fill-rule="nonzero"></path>
                                            <rect id="Rectangle" fill="#ED193A" x="1.40135135" y="9.69984186" width="49.0472973" height="13.725"></rect>
                                            <path d="M8.7295069,20.4899403 C9.55529279,20.4899403 10.1801131,20.2670512 10.6039678,19.821273 C11.0278225,19.3754948 11.2360959,18.7141353 11.2287881,17.8371945 L11.2287881,17.8371945 L11.2123455,17.8043092 L9.71058439,17.8043092 C9.72885399,18.3304737 9.66399691,18.70226 9.51601315,18.9196683 C9.3680294,19.1370765 9.10586065,19.2457806 8.7295069,19.2457806 C8.34584531,19.2457806 8.0544452,19.1087586 7.85530657,18.8347146 C7.65616794,18.5606706 7.55659862,18.1422968 7.55659862,17.5795932 L7.55659862,17.5795932 L7.55659862,15.1844487 C7.55659862,14.6290529 7.64977358,14.2143329 7.83612349,13.940289 C8.0224734,13.666245 8.29103652,13.529223 8.64181282,13.529223 C9.05105185,13.529223 9.33788456,13.6443214 9.50231095,13.8745184 C9.66673735,14.1047154 9.73798879,14.4810691 9.71606527,15.0035796 L9.71606527,15.0035796 L11.2178263,15.0035796 L11.234269,14.9706944 C11.2196533,14.0827918 10.9958507,13.4122975 10.5628612,12.9592115 C10.1298717,12.5061254 9.48952224,12.2795824 8.64181282,12.2795824 C7.84160437,12.2795824 7.20308187,12.5344433 6.72624533,13.0441651 C6.24940878,13.5538869 6.01099051,14.2709687 6.01099051,15.1954104 L6.01099051,15.1954104 L6.01099051,17.5795932 C6.01099051,18.5076888 6.2576301,19.2247706 6.75090929,19.7308385 C7.24418847,20.2369064 7.90372101,20.4899403 8.7295069,20.4899403 Z M14.5339779,20.4899403 C15.3780334,20.4899403 16.0540085,20.2268581 16.5619034,19.7006936 C17.0697983,19.1745292 17.3237457,18.4437452 17.3237457,17.5083417 L17.3237457,17.5083417 L17.3237457,15.2721428 C17.3237457,14.3403932 17.0679713,13.6086957 16.5564225,13.0770504 C16.0448737,12.545405 15.3688986,12.2795824 14.528497,12.2795824 C13.6880954,12.2795824 13.0157742,12.545405 12.5115332,13.0770504 C12.0072923,13.6086957 11.7551718,14.3403932 11.7551718,15.2721428 L11.7551718,15.2721428 L11.7551718,17.5083417 C11.7551718,18.4437452 12.0072923,19.1745292 12.5115332,19.7006936 C13.0157742,20.2268581 13.6899224,20.4899403 14.5339779,20.4899403 Z M14.5339779,19.2402997 C14.1283928,19.2402997 13.8214635,19.0959699 13.6131901,18.8073102 C13.4049166,18.5186506 13.3007799,18.0856611 13.3007799,17.5083417 L13.3007799,17.5083417 L13.3007799,15.261181 C13.3007799,14.6875156 13.4030897,14.256353 13.6077092,13.9676934 C13.8123287,13.6790337 14.119258,13.5347039 14.528497,13.5347039 C14.9340821,13.5347039 15.2428383,13.6799472 15.4547657,13.9704338 C15.666693,14.2609204 15.7726567,14.6911695 15.7726567,15.261181 L15.7726567,15.261181 L15.7726567,17.5083417 C15.7726567,18.0856611 15.666693,18.5186506 15.4547657,18.8073102 C15.2428383,19.0959699 14.9359091,19.2402997 14.5339779,19.2402997 Z M21.2921219,20.3748419 L23.52284,12.3946809 L21.8840569,12.3946809 L20.5522031,18.3523972 L20.4919135,18.6428838 L20.4590282,18.6428838 L20.3987385,18.3359546 L19.0778465,12.3946809 L17.4390634,12.3946809 L19.6697815,20.3748419 L21.2921219,20.3748419 Z M25.5893509,20.3748419 L25.5893509,12.3946809 L24.0382619,12.3946809 L24.0382619,20.3748419 L25.5893509,20.3748419 Z M29.0699289,20.3748419 C29.8884069,20.3748419 30.5643821,20.0660856 31.0978544,19.4485732 C31.6313267,18.8310607 31.8980628,18.0345062 31.8980628,17.0589096 L31.8980628,17.0589096 L31.8980628,15.716094 C31.8980628,14.7404974 31.6313267,13.9430294 31.0978544,13.32369 C30.5643821,12.7043506 29.8884069,12.3946809 29.0699289,12.3946809 L29.0699289,12.3946809 L26.6583417,12.3946809 L26.6583417,20.3748419 L29.0699289,20.3748419 Z M28.9822348,19.1306821 L28.2203925,19.1306821 L28.2203925,13.6443214 L28.9822348,13.6443214 C29.4170512,13.6443214 29.7522984,13.8324983 29.9879762,14.2088521 C30.2236541,14.5852058 30.341493,15.0839659 30.341493,15.7051323 L30.341493,15.7051323 L30.341493,17.0589096 C30.341493,17.6837299 30.2236541,18.1852304 29.9879762,18.5634111 C29.7522984,18.9415918 29.4170512,19.1306821 28.9822348,19.1306821 L28.9822348,19.1306821 Z M35.5211436,17.5741123 L35.5211436,16.3244717 L32.7971464,16.3244717 L32.7971464,17.5741123 L35.5211436,17.5741123 Z M39.3670989,20.3748419 L39.3670989,12.3892 L36.3306915,12.9318071 L36.3306915,14.0553874 L37.8105291,14.0225022 L37.8105291,20.3748419 L39.3670989,20.3748419 Z M43.4505736,20.4899403 C44.2142429,20.4899403 44.8454575,20.2149829 45.3442176,19.6650679 C45.8429777,19.115153 46.0923577,18.3724938 46.0923577,17.4370903 L46.0923577,17.4370903 L46.0923577,15.4858971 C46.0923577,14.4774152 45.8731225,13.6909089 45.4346521,13.1263783 C44.9961817,12.5618477 44.4279972,12.2795824 43.7300985,12.2795824 C43.0577772,12.2795824 42.5014679,12.5545398 42.0611706,13.1044548 C41.6208733,13.6543697 41.4007246,14.3294314 41.4007246,15.1296399 C41.4007246,15.9773493 41.5788532,16.6469301 41.9351104,17.1383823 C42.2913676,17.6298346 42.7819063,17.8755607 43.4067266,17.8755607 C43.6259618,17.8755607 43.8333217,17.8207519 44.0288065,17.7111343 C44.2242912,17.6015167 44.3951119,17.4407442 44.5412687,17.2288168 L44.5412687,17.2288168 L44.5412687,17.5357461 C44.5412687,18.0765263 44.4380455,18.496727 44.231599,18.7963485 C44.0251525,19.0959699 43.7648107,19.2457806 43.4505736,19.2457806 C43.2130688,19.2457806 42.9965741,19.2247706 42.8010894,19.1827505 C42.6056047,19.1407304 42.4073795,19.0758733 42.2064139,18.9881793 L42.2064139,18.9881793 L42.0310258,20.1501258 C42.246607,20.2597434 42.4804579,20.3437835 42.7325784,20.4022463 C42.9846989,20.460709 43.2240306,20.4899403 43.4505736,20.4899403 Z M43.7026941,16.7026524 C43.4578815,16.7026524 43.2715316,16.5601495 43.1436444,16.2751438 C43.0157572,15.990138 42.9518136,15.6083034 42.9518136,15.1296399 C42.9518136,14.7021313 43.023065,14.3303449 43.1655679,14.0142808 C43.3080708,13.6982168 43.4907668,13.5474926 43.7136559,13.5621083 L43.7136559,13.5621083 L43.7465411,13.5621083 C43.9840459,13.5474926 44.1758767,13.6881685 44.3220335,13.984136 C44.4681903,14.2801035 44.5412687,14.7167469 44.5412687,15.2940663 L44.5412687,15.2940663 L44.5412687,16.2038923 C44.4462668,16.357357 44.3284279,16.4788498 44.187752,16.5683708 C44.0470761,16.6578919 43.8853901,16.7026524 43.7026941,16.7026524 Z" id="COVID-19" fill="#000000" fill-rule="nonzero"></path>
                                        </g>
                                        <g id="Group" transform="translate(21.350000, 33.550000)" stroke-linecap="round" stroke-linejoin="round">
                                            <g filter="url(#filter-6)" id="Icons-/-Header-/-Add-/-White">
                                                <g id="plus-(1)" stroke="#FFFFFF" stroke-width="3.09599304">
                                                    <line x1="9.15" y1="3.8125" x2="9.15" y2="14.4875" id="Path"></line>
                                                    <line x1="3.8125" y1="9.15" x2="14.4875" y2="9.15" id="Path"></line>
                                                </g>
                                            </g>
                                        </g>
                                    </g>
                                </g>
                            </g>
                            <g id="Benefits-#3" transform="translate(348.517810, 54.599638) rotate(-4.000000) translate(-348.517810, -54.599638) translate(296.750412, 3.486602)">
                                <path d="M19.9145975,11.8658358 L83.620198,11.8658358 C88.3322915,11.8658358 92.1521981,15.6857423 92.1521981,20.3978358 L92.1521981,81.8282363 C92.1521981,86.5403298 88.3322915,90.3602363 83.620198,90.3602363 L19.9145975,90.3602363 C15.202504,90.3602363 11.3825975,86.5403298 11.3825975,81.8282363 L11.3825975,20.3978358 C11.3825975,15.6857423 15.202504,11.8658358 19.9145975,11.8658358 Z" id="Rectangle" fill="#FFFFFF" transform="translate(51.767398, 51.113036) rotate(21.000000) translate(-51.767398, -51.113036) "></path>
                                <g id="Group" transform="translate(29.850743, 34.274154)">
                                    <g id="ic_vaccinated-copy-6" transform="translate(22.000000, 22.000000) rotate(22.000000) translate(-22.000000, -22.000000) ">
                                        <g id="Covid-19-vaccinated-Copy-5" transform="translate(3.300000, 0.000000)">
                                            <g id="shield" fill="#ED193A">
                                                <path d="M18.4852549,0.586828442 C18.6254202,0.545100728 18.7749114,0.545051736 18.9151597,0.586848694 L18.9151597,0.586848694 L36.315577,5.76459473 C36.4728518,5.81138154 36.6055035,5.90634927 36.6986885,6.03059243 C36.7909783,6.15364206 36.8444769,6.30540792 36.8444769,6.46679687 L36.8444769,6.46679687 L36.8444769,25.4517656 C36.8444769,27.8114811 35.8651767,30.2198904 33.9686465,32.6204699 C32.4781558,34.507046 30.414186,36.3992066 27.8382925,38.2487191 C23.4788044,41.3787533 19.1864351,43.2994926 19.0054424,43.3798008 C18.9082905,43.422991 18.8041554,43.4444769 18.7000866,43.4444769 C18.5958876,43.4444769 18.4917357,43.4228762 18.3943685,43.3796399 C18.2137381,43.2994926 13.9212826,41.3787535 9.5617948,38.2487196 C6.98581079,36.3992032 4.92184282,34.5070444 3.43136353,32.6204827 C1.53482706,30.2198132 0.555523145,27.8114018 0.555523145,25.4517656 L0.555523145,25.4517656 L0.555523145,6.46679687 C0.555523145,6.3054356 0.609046711,6.15370118 0.701338785,6.03067155 L0.701338785,6.03067155 Z" id="Shape" stroke="#FFFFFF" stroke-width="1.11104629" fill-rule="nonzero"></path>
                                                <path d="M34.595,25.4668125 C34.595,29.806526 30.2307979,33.8757115 26.5696854,36.5252648 C23.2874031,38.9005351 19.9586758,40.5860015 18.7001283,41.1914894 C17.4415808,40.5860015 14.112768,38.9005351 10.8304856,36.5252648 C7.16928762,33.8757115 2.805,29.806526 2.805,25.4668125 L2.805,7.56621981 L18.7000428,2.80851064 L34.595,7.56621981 L34.595,25.4668125 Z" id="Path"></path>
                                                <polygon id="Path-6" points="18.095 1.1 2.2 7.12940257 2.2 7.7 35.3382432 7.7 33.99 5.8163689"></polygon>
                                            </g>
                                            <g id="syringe-(1)" transform="translate(19.250000, 29.768315) rotate(-315.000000) translate(-19.250000, -29.768315) translate(11.047017, 21.554579)" fill="#FFFFFF" fill-rule="nonzero">
                                                <polygon id="Path" points="9.57250347 3.81025998 8.81523328 4.5684422 10.329738 6.08484238 9.57250347 6.8430246 8.05799879 5.32662442 7.30076429 6.08484238 8.81523328 7.60120682 8.05799879 8.35938905 6.5435298 6.8430246 5.78629531 7.60120682 7.30076429 9.11757127 6.5435298 9.87578923 5.02902512 8.35938905 4.08673884 9.3028904 4.15170686 11.5123877 0 15.6692907 0.757234493 16.4274729 4.90894136 12.2706057 7.1157125 12.3356193 12.6014414 6.8430246"></polygon>
                                                <polygon id="Path" points="9.80111779 1.51622126 9.16468468 2.15344756 10.4375509 3.42793021 9.80111779 4.06515651 12.3468802 6.61409176 12.9833133 5.97683542 14.2561795 7.25131806 14.8926126 6.61409176"></polygon>
                                                <polygon id="Path" points="13.7875026 4.58807744 15.0967345 3.277207 15.7513504 3.93264222 16.4059663 3.277207 13.1328558 0 12.4782399 0.65543522 13.1328558 1.31087044 11.823624 2.62177178"></polygon>
                                            </g>
                                            <path d="M6.76735457,22.6173663 L7.90409285,18.5508038 L7.0689952,18.5508038 L6.39030379,21.5867608 L6.35958113,21.7347882 L6.34282332,21.7347882 L6.31210067,21.5783819 L5.6389952,18.5508038 L4.80389754,18.5508038 L5.94063582,22.6173663 L6.76735457,22.6173663 Z M8.77829207,22.6173663 L8.99614363,21.754339 L10.0686436,21.754339 L10.2892882,22.6173663 L11.0908702,22.6173663 L9.94854598,18.5508038 L9.12182723,18.5508038 L7.97671004,22.6173663 L8.77829207,22.6173663 Z M9.90665145,21.1147491 L9.15813582,21.1147491 L9.52401473,19.6763702 L9.54077254,19.6763702 L9.90665145,21.1147491 Z M12.6912413,22.6760186 C13.1120486,22.6760186 13.430447,22.5624379 13.6464366,22.3352765 C13.8624262,22.108115 13.968559,21.7710968 13.964835,21.3242218 L13.964835,21.3242218 L13.9564561,21.307464 L13.1911827,21.307464 C13.2004926,21.575589 13.1674425,21.7650453 13.0920323,21.8758331 C13.0166221,21.9866209 12.8830251,22.0420147 12.6912413,22.0420147 C12.4957335,22.0420147 12.3472406,21.9721905 12.2457628,21.8325421 C12.1442849,21.6928936 12.093546,21.479697 12.093546,21.1929522 L12.093546,21.1929522 L12.093546,19.9724249 C12.093546,19.6894041 12.1410264,19.4780694 12.2359874,19.338421 C12.3309483,19.1987726 12.4678038,19.1289483 12.6465538,19.1289483 C12.8550955,19.1289483 13.0012608,19.1876007 13.0850499,19.3049054 C13.1688389,19.4222101 13.2051475,19.6139939 13.1939757,19.8802569 L13.1939757,19.8802569 L13.9592491,19.8802569 L13.967628,19.8634991 C13.9601801,19.4110382 13.8461339,19.069365 13.6254893,18.8384796 C13.4048448,18.6075942 13.078533,18.4921515 12.6465538,18.4921515 C12.2387804,18.4921515 11.9133995,18.6220245 11.6704112,18.8817706 C11.4274229,19.1415167 11.3059288,19.5069301 11.3059288,19.9780108 L11.3059288,19.9780108 L11.3059288,21.1929522 C11.3059288,21.6658949 11.4316124,22.0313084 11.6829796,22.2891925 C11.9343468,22.5470766 12.270434,22.6760186 12.6912413,22.6760186 Z M15.7299913,22.6760186 C16.1507986,22.6760186 16.469197,22.5624379 16.6851866,22.3352765 C16.9011762,22.108115 17.007309,21.7710968 17.003585,21.3242218 L17.003585,21.3242218 L16.9952061,21.307464 L16.2299327,21.307464 C16.2392426,21.575589 16.2061925,21.7650453 16.1307823,21.8758331 C16.0553721,21.9866209 15.9217751,22.0420147 15.7299913,22.0420147 C15.5344835,22.0420147 15.3859906,21.9721905 15.2845128,21.8325421 C15.1830349,21.6928936 15.132296,21.479697 15.132296,21.1929522 L15.132296,21.1929522 L15.132296,19.9724249 C15.132296,19.6894041 15.1797764,19.4780694 15.2747374,19.338421 C15.3696983,19.1987726 15.5065538,19.1289483 15.6853038,19.1289483 C15.8938455,19.1289483 16.0400108,19.1876007 16.1237999,19.3049054 C16.2075889,19.4222101 16.2438975,19.6139939 16.2327257,19.8802569 L16.2327257,19.8802569 L16.9979991,19.8802569 L17.006378,19.8634991 C16.9989301,19.4110382 16.8848839,19.069365 16.6642393,18.8384796 C16.4435948,18.6075942 16.117283,18.4921515 15.6853038,18.4921515 C15.2775304,18.4921515 14.9521495,18.6220245 14.7091612,18.8817706 C14.4661729,19.1415167 14.3446788,19.5069301 14.3446788,19.9780108 L14.3446788,19.9780108 L14.3446788,21.1929522 C14.3446788,21.6658949 14.4703624,22.0313084 14.7217296,22.2891925 C14.9730968,22.5470766 15.309184,22.6760186 15.7299913,22.6760186 Z M18.3162804,22.6173663 L18.3162804,18.5508038 L17.5258702,18.5508038 L17.5258702,22.6173663 L18.3162804,22.6173663 Z M19.7714171,22.6173663 L19.7714171,20.0226983 L19.7881749,20.0171124 L21.031046,22.6173663 L21.8214561,22.6173663 L21.8214561,18.5508038 L21.031046,18.5508038 L21.031046,21.1426788 L21.0142882,21.1482647 L19.7714171,18.5508038 L18.975421,18.5508038 L18.975421,22.6173663 L19.7714171,22.6173663 Z M22.9805382,22.6173663 L23.1983897,21.754339 L24.2708897,21.754339 L24.4915343,22.6173663 L25.2931163,22.6173663 L24.1507921,18.5508038 L23.3240733,18.5508038 L22.1789561,22.6173663 L22.9805382,22.6173663 Z M24.1088975,21.1147491 L23.3603819,21.1147491 L23.7262608,19.6763702 L23.7430186,19.6763702 L24.1088975,21.1147491 Z M27.0862022,22.6173663 L27.0862022,19.1876007 L28.002296,19.1876007 L28.002296,18.5508038 L25.3824913,18.5508038 L25.3824913,19.1876007 L26.2929991,19.1876007 L26.2929991,22.6173663 L27.0862022,22.6173663 Z M30.7868858,22.6173663 L30.7868858,21.9833624 L29.1809288,21.9833624 L29.1809288,20.8326593 L30.5466905,20.8326593 L30.5466905,20.1986554 L29.1809288,20.1986554 L29.1809288,19.1876007 L30.7812999,19.1876007 L30.7812999,18.5508038 L28.3849327,18.5508038 L28.3849327,22.6173663 L30.7868858,22.6173663 Z M32.4291514,22.6173663 C32.8462348,22.6173663 33.1907009,22.4600291 33.4625499,22.1453546 C33.7343988,21.8306801 33.8703233,21.4247686 33.8703233,20.9276202 L33.8703233,20.9276202 L33.8703233,20.2433429 C33.8703233,19.7461944 33.7343988,19.3398175 33.4625499,19.024212 C33.1907009,18.7086065 32.8462348,18.5508038 32.4291514,18.5508038 L32.4291514,18.5508038 L31.2002452,18.5508038 L31.2002452,22.6173663 L32.4291514,22.6173663 Z M32.3844639,21.9833624 L31.9962413,21.9833624 L31.9962413,19.1876007 L32.3844639,19.1876007 C32.6060395,19.1876007 32.7768761,19.2834926 32.8969737,19.4752765 C33.0170714,19.6670603 33.0771202,19.9212205 33.0771202,20.2377569 L33.0771202,20.2377569 L33.0771202,20.9276202 C33.0771202,21.2460186 33.0170714,21.5015753 32.8969737,21.6942901 C32.7768761,21.887005 32.6060395,21.9833624 32.3844639,21.9833624 L32.3844639,21.9833624 Z" id="VACCINATED" fill="#FFFFFF" fill-rule="nonzero"></path>
                                            <rect id="Rectangle" fill="#ED193A" x="1.01081081" y="6.99660725" width="35.3783784" height="9.9"></rect>
                                            <path d="M6.2966935,14.7796291 C6.89234234,14.7796291 7.34303239,14.6188566 7.64876366,14.2973117 C7.95449492,13.9757667 8.10472494,13.4987205 8.09945371,12.8661731 L8.09945371,12.8661731 L8.08759344,12.8424526 L7.00435595,12.8424526 C7.01753402,13.221981 6.97075187,13.4901548 6.86400949,13.6469738 C6.75726711,13.8037929 6.56816178,13.8822024 6.2966935,13.8822024 C6.019954,13.8822024 5.80976375,13.7833669 5.66612277,13.5856958 C5.52248179,13.3880247 5.4506613,13.0862469 5.4506613,12.6803623 L5.4506613,12.6803623 L5.4506613,10.9527171 C5.4506613,10.5521037 5.51786947,10.2529615 5.6522858,10.0552904 C5.78670213,9.85761932 5.98041978,9.75878378 6.23343876,9.75878378 C6.52862756,9.75878378 6.73552329,9.84180564 6.85412593,10.0078493 C6.97272858,10.173893 7.02412306,10.4453613 7.00830937,10.8222542 L7.00830937,10.8222542 L8.09154687,10.8222542 L8.10340713,10.7985336 C8.09286467,10.1580794 7.93143329,9.67444412 7.619113,9.34762795 C7.3067927,9.02081177 6.84490128,8.85740368 6.23343876,8.85740368 C5.65623922,8.85740368 5.19566561,9.04123778 4.85171794,9.40890598 C4.50777027,9.77657418 4.33579643,10.2938135 4.33579643,10.9606239 L4.33579643,10.9606239 L4.33579643,12.6803623 C4.33579643,13.3498083 4.5137004,13.8670476 4.86950834,14.2320802 C5.22531627,14.5971128 5.70104466,14.7796291 6.2966935,14.7796291 Z M10.483525,14.7796291 C11.0923519,14.7796291 11.5799406,14.5898649 11.946291,14.2103364 C12.3126414,13.8308079 12.4958166,13.3036851 12.4958166,12.6289678 L12.4958166,12.6289678 L12.4958166,11.0159718 C12.4958166,10.3438902 12.3113236,9.8161084 11.9423376,9.43262651 C11.5733515,9.04914462 11.0857629,8.85740368 10.4795716,8.85740368 C9.8733803,8.85740368 9.38842726,9.04914462 9.02471248,9.43262651 C8.6609977,9.8161084 8.47914031,10.3438902 8.47914031,11.0159718 L8.47914031,11.0159718 L8.47914031,12.6289678 C8.47914031,13.3036851 8.6609977,13.8308079 9.02471248,14.2103364 C9.38842726,14.5898649 9.87469811,14.7796291 10.483525,14.7796291 Z M10.483525,13.878249 C10.1909718,13.878249 9.96958022,13.7741422 9.8193502,13.5659287 C9.66912019,13.3577152 9.59400518,13.0453949 9.59400518,12.6289678 L9.59400518,12.6289678 L9.59400518,11.008065 C9.59400518,10.5942735 9.66780238,10.283271 9.81539678,10.0750575 C9.96299119,9.86684397 10.1843828,9.76273721 10.4795716,9.76273721 C10.7721248,9.76273721 10.9948342,9.86750288 11.1476998,10.0770342 C11.3005655,10.2865656 11.3769983,10.5969091 11.3769983,11.008065 L11.3769983,11.008065 L11.3769983,12.6289678 C11.3769983,13.0453949 11.3005655,13.3577152 11.1476998,13.5659287 C10.9948342,13.7741422 10.7734426,13.878249 10.483525,13.878249 Z M15.3582519,14.6966072 L16.9672944,8.94042553 L15.7852214,8.94042553 L14.82454,13.2377947 L14.7810523,13.447326 L14.7573318,13.447326 L14.7138442,13.2259344 L13.7610696,8.94042553 L12.5789966,8.94042553 L14.1880391,14.6966072 L15.3582519,14.6966072 Z M18.4578925,14.6966072 L18.4578925,8.94042553 L17.3390742,8.94042553 L17.3390742,14.6966072 L18.4578925,14.6966072 Z M20.9684733,14.6966072 C21.5588509,14.6966072 22.0464395,14.4738978 22.4312392,14.028479 C22.8160389,13.5830602 23.0084388,13.0084963 23.0084388,12.3047872 L23.0084388,12.3047872 L23.0084388,11.336199 C23.0084388,10.6324899 22.8160389,10.0572671 22.4312392,9.61053048 C22.0464395,9.16379385 21.5588509,8.94042553 20.9684733,8.94042553 L20.9684733,8.94042553 L19.2289678,8.94042553 L19.2289678,14.6966072 L20.9684733,14.6966072 Z M20.9052185,13.7991806 L20.3556929,13.7991806 L20.3556929,9.84180564 L20.9052185,9.84180564 C21.2188566,9.84180564 21.4606743,9.97753977 21.6306714,10.2490081 C21.8006685,10.5204763 21.8856671,10.8802377 21.8856671,11.3282921 L21.8856671,11.3282921 L21.8856671,12.3047872 C21.8856671,12.7554773 21.8006685,13.1172154 21.6306714,13.3900014 C21.4606743,13.6627875 21.2188566,13.7991806 20.9052185,13.7991806 L20.9052185,13.7991806 Z M25.6218085,12.6764089 L25.6218085,11.7750288 L23.656958,11.7750288 L23.656958,12.6764089 L25.6218085,12.6764089 Z M28.3959402,14.6966072 L28.3959402,8.93647211 L26.2057447,9.32786084 L26.2057447,10.1383122 L27.2731685,10.1145917 L27.2731685,14.6966072 L28.3959402,14.6966072 Z M31.3413974,14.7796291 C31.8922408,14.7796291 32.3475431,14.5812991 32.7073045,14.1846392 C33.0670659,13.7879792 33.2469465,13.2522906 33.2469465,12.5775733 L33.2469465,12.5775733 L33.2469465,11.1701553 C33.2469465,10.4427257 33.0888097,9.87540972 32.772536,9.4682073 C32.4562622,9.06100489 32.0464242,8.85740368 31.5430219,8.85740368 C31.0580688,8.85740368 30.6567966,9.05573366 30.339205,9.45239362 C30.0216135,9.84905357 29.8628177,10.3359833 29.8628177,10.9131829 C29.8628177,11.5246454 29.9913039,12.0076217 30.2482763,12.3621118 C30.5052487,12.716602 30.85908,12.893847 31.30977,12.893847 C31.4679069,12.893847 31.617478,12.8543128 31.7584833,12.7752444 C31.8994887,12.696176 32.0227037,12.5802089 32.1281283,12.4273433 L32.1281283,12.4273433 L32.1281283,12.6487349 C32.1281283,13.0388058 32.0536722,13.3419015 31.9047599,13.5580219 C31.7558477,13.7741422 31.5680602,13.8822024 31.3413974,13.8822024 C31.1700824,13.8822024 31.0139223,13.8670476 30.8729169,13.8367381 C30.7319116,13.8064285 30.5889295,13.7596463 30.4439707,13.6963916 L30.4439707,13.6963916 L30.3174612,14.534517 C30.4729625,14.6135854 30.6416418,14.6742045 30.8234992,14.7163744 C31.0053565,14.7585442 31.1779893,14.7796291 31.3413974,14.7796291 Z M31.5232548,12.0478148 C31.3466686,12.0478148 31.2122523,11.9450259 31.1200058,11.739448 C31.0277593,11.53387 30.981636,11.2584483 30.981636,10.9131829 C30.981636,10.604816 31.0330305,10.3366422 31.1358195,10.1086616 C31.2386084,9.88068095 31.3703891,9.77196186 31.5311616,9.78250431 L31.5311616,9.78250431 L31.5548821,9.78250431 C31.7261971,9.77196186 31.8645668,9.87343301 31.9699914,10.0869178 C32.075416,10.3004025 32.1281283,10.6153584 32.1281283,11.0317855 L32.1281283,11.0317855 L32.1281283,11.6880535 C32.0596023,11.7987493 31.9746037,11.8863835 31.8731326,11.950956 C31.7716614,12.0155286 31.6550355,12.0478148 31.5232548,12.0478148 Z" id="COVID-19" fill="#000000" fill-rule="nonzero"></path>
                                        </g>
                                    </g>
                                </g>
                            </g>
                            <g id="Benefits-#2" transform="translate(262.841142, 235.076442) rotate(-36.000000) translate(-262.841142, -235.076442) translate(201.257659, 174.183214)">
                                <path d="M23.8218815,14.0932261 L99.3450806,14.0932261 C104.999593,14.0932261 109.583481,18.6771141 109.583481,24.3316266 L109.583481,97.4548293 C109.583481,103.109342 104.999593,107.69323 99.3450806,107.69323 L23.8218815,107.69323 C18.1673691,107.69323 13.5834811,103.109342 13.5834811,97.4548293 L13.5834811,24.3316266 C13.5834811,18.6771141 18.1673691,14.0932261 23.8218815,14.0932261 Z" id="Rectangle" fill="#FFFFFF" transform="translate(61.583483, 60.893228) rotate(21.000000) translate(-61.583483, -60.893228) "></path>
                                <path d="M71.1944444,48.125 C71.1944444,46.865 72.7205556,44.7725 73.7227778,43.535 C74.1783333,42.9725 75.0438889,42.9725 75.4766667,43.535 C76.4788889,44.7725 78.005,46.865 78.005,48.125 C78.0277778,49.9925 76.5016667,51.5 74.6111111,51.5 C72.7205556,51.5 71.1944444,49.9925 71.1944444,48.125 Z M80.3055556,67.25 C83.4488889,67.25 86,64.73 86,61.625 C86,58.8125 82.7883333,54.515 81.1938889,52.535 C80.7383333,51.9725 79.8955556,51.9725 79.44,52.535 C77.8227778,54.515 74.6111111,58.8125 74.6111111,61.625 C74.6111111,64.73 77.1622222,67.25 80.3055556,67.25 Z M63.2222222,65 L60.9444444,65 L60.9444444,62.75 C60.9444444,61.5125 59.9194444,60.5 58.6666667,60.5 L58.6666667,60.5 C57.4138889,60.5 56.3888889,61.5125 56.3888889,62.75 L56.3888889,65 L54.1111111,65 C52.8583333,65 51.8333333,66.0125 51.8333333,67.25 L51.8333333,67.25 C51.8333333,68.4875 52.8583333,69.5 54.1111111,69.5 L56.3888889,69.5 L56.3888889,71.75 C56.3888889,72.9875 57.4138889,74 58.6666667,74 L58.6666667,74 C59.9194444,74 60.9444444,72.9875 60.9444444,71.75 L60.9444444,69.5 L63.2222222,69.5 C64.475,69.5 65.5,68.4875 65.5,67.25 L65.5,67.25 C65.5,66.0125 64.475,65 63.2222222,65 Z M72.3333333,60.5 L72.3333333,78.5 C72.3333333,80.975 70.2833333,83 67.7777778,83 L49.5555556,83 C47.05,83 45,80.975 45,78.5 L45,60.5 C45,53.8175 49.92,48.2825 56.3888889,47.2025 L56.3888889,42.5 L54.1111111,42.5 C52.8583333,42.5 51.8333333,41.4875 51.8333333,40.25 L51.8333333,40.25 C51.8333333,39.0125 52.8583333,38 54.1111111,38 L65.5,38 C66.8894444,38 68.2105556,38.2475 69.4177778,38.6975 C70.9438889,39.26 71.3083333,41.24 70.1694444,42.3875 L70.1694444,42.3875 C69.5316667,43.0175 68.5977778,43.1975 67.7777778,42.905 C67.0488889,42.635 66.2972222,42.5 65.5,42.5 L60.9444444,42.5 L60.9444444,47.2025 C67.4133333,48.2825 72.3333333,53.8175 72.3333333,60.5 Z" id="Shape" fill="#ED193A" fill-rule="nonzero" transform="translate(65.500000, 60.500000) rotate(21.000000) translate(-65.500000, -60.500000) "></path>
                            </g>
                        </g>
                    </g>
                </g>
            </g>
        </g>
    </g>
</svg>