<svg xmlns="http://www.w3.org/2000/svg" xmlns:xlink="http://www.w3.org/1999/xlink" width="18" height="18" viewBox="0 0 18 18">
    <defs>
        <path id="b" d="M259 42h922a4 4 0 0 1 4 4v316a4 4 0 0 1-4 4H259a4 4 0 0 1-4-4V46a4 4 0 0 1 4-4z"/>
        <filter id="a" width="101.1%" height="103.1%" x="-.5%" y="-1.2%" filterUnits="objectBoundingBox">
            <feOffset dy="1" in="SourceAlpha" result="shadowOffsetOuter1"/>
            <feGaussianBlur in="shadowOffsetOuter1" result="shadowBlurOuter1" stdDeviation="1.5"/>
            <feColorMatrix in="shadowBlurOuter1" values="0 0 0 0 0 0 0 0 0 0 0 0 0 0 0 0 0 0 0.0996230332 0"/>
        </filter>
    </defs>
    <g fill="none" fill-rule="evenodd">
        <path fill="#F9F9F9" d="M-461-315H979v2603H-461z"/>
        <g transform="matrix(-1 0 0 1 979 -315)">
            <use fill="#000" filter="url(#a)" xlink:href="#b"/>
            <use fill="#FFF" xlink:href="#b"/>
        </g>
        <path fill="#11B958" d="M8.524 2.042a1.415 1.415 0 0 1 1.584 0l.84.55c.082.065.195.08.292.08l1.018-.064a1.45 1.45 0 0 1 1.374.792l.452.905a.442.442 0 0 0 .21.21l.906.453c.517.259.824.792.792 1.374l-.065 1.018c0 .113.016.21.065.307l.566.841c.323.469.323 1.1 0 1.584l-.55.857a.469.469 0 0 0-.08.29l.031 1.003a1.45 1.45 0 0 1-.792 1.374l-.905.452a.442.442 0 0 0-.21.21l-.452.906a1.434 1.434 0 0 1-1.374.792l-1.019-.065a.605.605 0 0 0-.29.08l-.841.567a1.425 1.425 0 0 1-.792.242c-.275 0-.55-.08-.792-.242l-.84-.55a.469.469 0 0 0-.292-.08l-1.018.064a1.45 1.45 0 0 1-1.374-.792l-.452-.905a.525.525 0 0 0-.21-.21l-.906-.453a1.434 1.434 0 0 1-.792-1.374l.065-1.018a.77.77 0 0 0-.065-.324l-.566-.84a1.415 1.415 0 0 1 0-1.584l.55-.84a.469.469 0 0 0 .08-.292l-.064-1.018A1.45 1.45 0 0 1 3.4 4.968l.905-.452a.442.442 0 0 0 .21-.21l.453-.906a1.434 1.434 0 0 1 1.374-.792l1.018.065a.77.77 0 0 0 .324-.065zm3.122 3.87l-3.28 5.407-1.52-1.613a.75.75 0 0 0-1.092 1.03l2.197 2.33a.75.75 0 0 0 1.187-.126l3.79-6.251a.75.75 0 1 0-1.282-.778z"/>
    </g>
</svg>
