<svg xmlns="http://www.w3.org/2000/svg" width="48" height="48" viewBox="0 0 48 48">
  <path fill="#E3193A" fill-rule="evenodd" d="M37.5584,6.4416 C33.4048,2.288 27.8784,0 22,0 C16.1216,0 10.5952,2.288 6.4416,6.4416 C2.288,10.5952 0,16.1216 0,22 C0,27.8784 2.288,33.4048 6.4416,37.5584 C10.5952,41.712 16.1216,44 22,44 C27.8784,44 33.4048,41.712 37.5584,37.5584 C41.712,33.4048 44,27.8784 44,22 C44,16.1216 41.712,10.5952 37.5584,6.4416 Z M37.5685345,27.2295386 C37.5685345,29.1850228 36.234794,30.7995508 34.4497879,31.2608445 C33.7879317,33.7077067 31.5416319,35.5428534 28.8440666,35.5428534 L27.099173,35.5428534 C26.3972043,37.367972 24.6523107,38.6616 22.6166015,38.6616 C19.9992612,38.6616 17.8432145,36.5055533 17.8432145,33.888213 C17.8432145,31.2708726 19.9992612,29.1148259 22.6166015,29.1148259 C24.6924232,29.1148259 26.4373168,30.3984258 27.099173,32.2335725 L28.8440666,32.2335725 C29.5961759,32.2335725 30.2580321,31.9026444 30.7092976,31.4012382 L28.8440666,31.4012382 L28.8440666,17.6727364 L30.5087352,17.6727364 C30.2981446,13.0597993 26.4774293,9.36944968 21.7842672,9.36944968 C17.0911052,9.36944968 13.2703899,13.0698274 13.0597993,17.6727364 L14.7244679,17.6727364 L14.7244679,31.3811819 L10.1516434,31.3811819 C7.86523107,31.3811819 6,29.5159509 6,27.2295386 L6,21.8243797 C6,19.6683331 7.62455609,17.883327 9.74049027,17.6727364 C9.95108087,11.1945683 15.2659866,6 21.7842672,6 C28.3025479,6 33.6174536,11.1945683 33.8280442,17.6727364 C35.9439784,17.883327 37.5685345,19.6683331 37.5685345,21.8243797 L37.5685345,27.2295386 L37.5685345,27.2295386 Z" transform="translate(2 2)"/>
</svg>
