<svg xmlns="http://www.w3.org/2000/svg" xmlns:xlink="http://www.w3.org/1999/xlink" width="300" height="250" viewBox="0 0 300 250">
    <defs>
        <path id="a" d="M21.073.805c-3.033 1.6-3.569 6.607-3.654 7.613-.42 5.05 4.042 10.665 1.95 13.757-2.134 3.152-2.867.317-4.78-2.517-1.602-2.373-4.03-4.746-8.799-3.608C.334 17.352-.196 20.963.442 22.31c1.063 2.251 4.873.149 9.842 3.235 3.478 2.158 5.437 6.106 4.612 7.18-.457.595-1.675.056-3.288-.481-1.782-.596-4.048-1.193-6.298-.255-2.488 1.037-4.254 3.913-3.725 5.148.372.87 1.794.646 4.349 1.123 1.435.269 8.164 1.53 9.659 5.364.277.709.775 2.536-.784 5.536h11.766c.246-2.184.942-6.011 3.46-8.737 4.237-4.585 9.126-4.524 12.611-4.462 2.397.043 4.131.085 4.536-1.383.473-1.718-2.46-4.651-5.743-5.623-4.308-1.275-6.399-.253-7.732.77-1.235.945-1.82 1.89-2.915 1.014-2.776-2.226 8.787-13.39 3.854-23.359C32.615 3.27 27.51.238 23.63.237c-.946 0-1.818.18-2.556.568z"/>
        <path id="c" d="M6.916.053l90.52.69a6.864 6.864 0 0 1 6.789 6.298l1.93 23.312a6.864 6.864 0 0 1-6.896 7.43l-92.45-.73A6.864 6.864 0 0 1 0 30.19V6.917A6.864 6.864 0 0 1 6.916.053z"/>
        <path id="e" d="M.598.873h168.096v123.3H.598z"/>
    </defs>
    <g fill="none" fill-rule="evenodd">
        <path fill="#C8F4E3" d="M65.99 152.095c-48.43-26.846 7.229-4.541-2.279-65.208-9.507-60.667 47.01-88.405 95.44-61.56 18.602 10.311 81.526 13.75 93.277 36.569 11.75 22.82 15.187 51.947-.847 89.657-16.033 37.711-41.003 59.317-78.957 77.126-37.953 17.81-51.127-15.975-72.525-27.836l10.366-38.25"/>
        <g transform="translate(39.55 120.25)">
            <g transform="translate(.761)">
                <path fill="#BDEDDA" d="M4.606 1.442L63.61.513a2.8 2.8 0 0 1 2.843 2.74l1.674 78.67-64.279-7.667C1.596 58.088.348 44.616.108 33.844c-.222-9.984.367-19.98 1.769-29.99a2.8 2.8 0 0 1 2.729-2.412z"/>
                <path stroke="#A0CBBA" stroke-linecap="square" d="M9.337 22.357l52.076-1.676M9.994 39.154L61.54 41.7M35.375 41.7v30.1"/>
                <circle cx="30.06" cy="46.653" r="1.381" fill="#A0CBBA"/>
                <circle cx="40.069" cy="46.653" r="1.381" fill="#A0CBBA"/>
            </g>
            <rect width="1.017" height="16.8" x="67.327" y="62.7" fill="#A0CBBA" rx=".509"/>
        </g>
        <path fill="#D6E6EA" d="M67.574 99.383c.247-2.178.943-5.996 3.461-8.713 7.15-7.72 16.154-2.239 17.147-5.831.474-1.713-2.459-4.639-5.743-5.608-8.297-2.45-8.368 3.597-10.647 1.779-2.777-2.22 8.787-13.356 3.855-23.298-2.528-5.1-9.808-8.535-13.573-6.558-3.034 1.594-3.57 6.59-3.656 7.592-.42 5.038 4.044 10.638 1.95 13.722-3.92 5.774-3.111-8.6-13.577-6.11-5.458 1.299-5.987 4.9-5.35 6.245 1.063 2.245 4.873.148 9.844 3.227 3.478 2.152 5.437 6.09 4.611 7.16-.961 1.252-5.302-2.516-9.585-.734-2.489 1.036-4.254 3.903-3.726 5.135.372.867 1.794.644 4.35 1.12 1.434.27 8.164 1.527 9.658 5.35.276.708.775 2.53-.783 5.522h11.764z"/>
        <g transform="translate(41 50.35)">
            <mask id="b" fill="#fff">
                <use xlink:href="#a"/>
            </mask>
            <use fill="#DDFFF2" opacity=".603" xlink:href="#a"/>
            <path fill="#A9E1CB" d="M43.587 95.144c.567-5.068 2.184-13.946 8.026-20.268 16.588-17.954 37.475-5.208 39.78-13.562 1.1-3.985-5.705-10.79-13.321-13.045-19.252-5.698-19.42 8.37-24.702 4.14-6.445-5.163 20.38-31.066 8.94-54.193-5.865-11.859-22.752-19.85-31.487-15.251C23.783-13.33 22.541-1.71 22.345.624c-.975 11.716 9.378 24.744 4.52 31.917-9.092 13.431-7.216-20.005-31.5-14.21-12.66 3.021-13.89 11.398-12.41 14.52 2.467 5.223 11.306.347 22.84 7.509 8.065 5.007 12.61 14.166 10.698 16.656-2.235 2.908-12.3-5.855-22.238-1.71-5.775 2.41-9.87 9.08-8.645 11.943.862 2.018 4.158 1.497 10.092 2.61 3.325.623 18.939 3.548 22.405 12.442.64 1.646 1.795 5.885-1.817 12.843h27.297z" mask="url(#b)" opacity=".603"/>
        </g>
        <path fill="#AADECA" d="M76.127 106.392c0 8.664-6.85 15.67-15.242 15.51-8.237-.156-14.681-7.483-14.681-16.026v-8.864c0-2.059 1.61-3.73 3.597-3.73h22.732c1.985 0 3.594 1.671 3.594 3.73v9.38z"/>
        <path fill="#AED7C7" d="M202.526 202.761c.94-.695 1.494-1.843 1.66-3.441.25-2.398 19.304-89.582 19.324-91.884.02-2.302-2.024-3.171-3.147-.894-1.123 2.278-19.681 90.958-20.197 93.61-.344 1.768.443 2.638 2.36 2.61zM221.69 193.78c.797-1.077 1.278-2.415 1.445-4.013.25-2.398 15.761-79.26 15.782-81.562.02-2.302-2.148-2.943-3.27-.666-1.124 2.278-16.09 81.182-16.606 83.834-.344 1.768.54 2.57 2.65 2.408z"/>
        <path fill="#AADECA" d="M267.046 200.116c.53-.949.481-2.163-.148-3.641-.945-2.219-26.872-87.147-27.97-89.17-1.098-2.023-3.097-1.6-2.975.936.122 2.537 26.998 88.34 27.832 90.91.557 1.713 1.644 2.035 3.26.965zm-17.312 6.701c.44-1.716-.843-4.396-1.363-7.044-.52-2.649-23.673-90.89-24.31-93.184-.635-2.296-3.838-1.875-3.716.661.122 2.537 24.488 96.28 25.323 98.85.834 2.57 3.627 2.434 4.066.717z"/>
        <path fill="#AADECA" d="M248.215 136.388c-3.319-1.575-5.24-2.37-5.763-2.387-.523-.017-4.674.275-12.452.876l1.132 4.045.449 1.83c9.67-.882 15.585-1.54 17.747-1.973 2.163-.434 1.791-1.23-1.113-2.39zM254.89 150.722c-4.055-1.55-6.344-2.32-6.867-2.309-.523.01-4.84.693-12.951 2.047l1.017 4.03.424 1.684c9.749-1.736 15.691-2.876 17.828-3.422 2.136-.546 2.32-1.223.549-2.03zM258.89 165.722c-4.055-1.55-6.344-2.32-6.867-2.309-.523.01-4.84.693-12.951 2.047l1.017 4.03.424 1.684c9.749-1.736 15.691-2.876 17.828-3.422 2.136-.546 2.32-1.223.549-2.03zM261.89 177.722c-4.055-1.55-6.344-2.32-6.867-2.309-.523.01-4.84.693-12.951 2.047l1.017 4.03.424 1.684c9.749-1.736 15.691-2.876 17.828-3.422 2.136-.546 2.32-1.223.549-2.03zM265.277 188.12c-3.126-1.47-4.948-2.17-5.466-2.095-.518.075-5.167 1.404-13.946 3.988l.857 3.417.56 2.04c10.21-3.142 16.097-4.965 17.663-5.469 1.565-.504 1.676-1.131.332-1.881z"/>
        <path fill="#A0CBBA" d="M227.64 136.634l-11.717 1.369-1.414 5.239 14.301-1.811zM226.991 150.318l-13.068 1.685-1.414 5.239 13.51-1.848zM224.351 163.934l-13.392 2.567-1.046 5.325 13.507-3.12zM222.163 175.211l-13.704 2.79-1.046 5.325 13.828-2.82z"/>
        <g>
            <g transform="translate(157.65 45)">
                <mask id="d" fill="#fff">
                    <use xlink:href="#c"/>
                </mask>
                <use fill="#D3FAEB" xlink:href="#c"/>
                <path fill="#E6FFF5" d="M46.507-.194c-1.883 4.287 1.873 8.742 11.269 13.367 14.093 6.937 19.946 9.816 20.78 16.475.557 4.439 2.601 7.706 6.134 9.802l22.79-.66L104.234.505l-57.728-.7z" mask="url(#d)" opacity=".603"/>
            </g>
            <path fill="#BCE6D6" d="M168.894 52.911l82.127-1.113a.873.873 0 0 1 .884.87c.001.49-.391.89-.881.898l-82.095 1.342a1.001 1.001 0 0 1-1.017-.983.996.996 0 0 1 .982-1.014zM167.57 57.177l82.037.29a.7.7 0 0 1 .698.688.676.676 0 0 1-.673.688l-82.062.326a.996.996 0 0 1-1-.996.996.996 0 0 1 1-.996zM169.09 61.272l82.536.85a1.01 1.01 0 0 1 .973 1.24 1.564 1.564 0 0 1-1.547 1.207l-81.997-1.292a.998.998 0 0 1-.982-1.016c.01-.553.464-.995 1.017-.99zM194.499 86.092c34.27-1.87 53.651-2.972 58.144-3.309 4.493-.336-14.53-.336-57.07 0l-1.074 3.309z"/>
        </g>
        <g>
            <path fill="#F8D5BF" d="M65.218 199.257l-6.399 16.398s9.95 4.894 24.15 9.256c10.763 3.305 13.531-28.378 13.531-28.378l-31.282 2.724z"/>
            <g transform="translate(63.105 118.933)">
                <mask id="f" fill="#fff">
                    <use xlink:href="#e"/>
                </mask>
                <path fill="#EB1C3A" d="M112.705 4.525c-3.101 4.278-18.733 31.315-49.08 3.696-4.003 2.66-47.718 1.046-63.027 79.45l20.714 6.804-3.406 11.311c18.886 10.843 50.681 16.916 68.921 16.899 21.786-.022 43.554 1.587 69.922-14.74l4.485-4.373c4.448-4.943 0 0 3.195-2.393 4.675-5.522.877-12.256 4.217-18.535.871-29.84 3.917-55.254-55.941-78.12z" mask="url(#f)"/>
            </g>
            <path fill="#F8D5BF" d="M173.6 125.808c-2.038-10.495 2.37-18.372 2.37-18.372 6.31-6.694 10.607-16.936 10.607-16.936l17.28-25.258-36.248-24.776-45.822-4.108s-11.654 30.975-14.194 40.032C100.057 103.259 128 111.993 128 111.993l-1.584 18.054-7.12 8.432-1.578 6.899 8.698 11.24 4.614.997s22.725.432 40.952-8.295c18.218-8.728 3.477-26.03 3.477-26.03"/>
            <path fill="#E0B8A6" d="M123.283 36.272s-6.216 4.879.128 6.86c6.35 1.984 23.671-1.396 25.104 4.937 0 0 .927 1.596-.44 3.294 0 0 19.143.501 30.85 8.236 11.7 7.733 1.395-10.442 1.395-10.442L137.721 31.61l-14.438 4.662z"/>
            <path fill="#322827" d="M198.705 50.551c-12.263-1.254-68.407-40.607-68.407-40.607-21.867-13.543-24.853 11.38-21.596 20.84 3.264 9.459 29.286 11.68 38.486 13.285 9.212 1.598 5.806 4.532 5.806 4.532s19.247 3.333 31.891 15.703c.177.17 1.514 2.36 1.55 2.601.181 1.107-.096 1.158-.172 2.53-.384 6.955-3.758 28.114-3.758 28.114l.017-.03c-.634 1.138-.91 1.846-.53 1.966 2.168.659 6.394.095 10.342-6.904 3.95-6.998 5.951-13.497 10.736-21.134 4.79-7.639 7.91-19.636-4.365-20.896"/>
            <path fill="#F8D5BF" d="M190.931 83.107c-1.511 4.933-5.971 7.949-9.965 6.733-3.994-1.215-6.002-6.206-4.498-11.143 1.512-4.934 5.977-7.95 9.972-6.734 3.986 1.219 5.996 6.207 4.491 11.144"/>
            <path stroke="#322827" stroke-linecap="round" stroke-linejoin="round" stroke-width="1.148" d="M185.555 76.39s2.293 3.772-.963 7.195"/>
            <path fill="#F9B7C1" d="M88.79 194.903s-15.667-6.455-20.105-6.562c-4.435-.105-2.698 2.093-3.32 4.366-.623 2.273-6.821 10.157-5.542 12.472 1.28 2.316 3.058 3.59 6.956 4.115 3.893.524 15.988 2.675 16.94 4.63.953 1.955 5.071-19.021 5.071-19.021M191.014 204.932s-3.496 9.823 4.41 18.118c7.909 8.294 27.13 14.823 38.487 7.372 0 0 1.397-3.536 5.067-4.577 3.669-1.04 8.649-11.29 1.835-19.769-6.816-8.48-14.679-24.961-30.927-18.682-16.251 6.279-22.542 9.437-18.872 17.538"/>
            <path fill="#E8BFAF" d="M148.484 115.316s15.332 2.096 27.276-7.453c0 0-.968 12.161.12 15.777 0 0 5.93 8.163 4.028 11.67l-31.424-19.994z"/>
            <path fill="#F8D5BF" d="M148.484 114.909s-11.16.302-20.483-2.915c0 0-2.705 25.91 3.682 37.982l.927 1.833s24.365 5.543 38.334-21.236l-22.46-15.664z"/>
            <path fill="#EB1C3A" d="M126.477 128.193c-2.282 14.361 2.546 21.856 14.484 22.483 25.942 1.363 38.924-5.165 38.945-19.584l14.593 17.128c-29.027 10.505-53.106 14.225-72.239 11.16-19.132-3.067-17.727-13.462 4.217-31.187z"/>
            <path fill="#FFDBC7" d="M140.763 180.073s-16.805 5.972-15.006 8.387c1.8 2.415 1.99 5.66 1.897 7.375-.088 1.712-.988 4.674 1.443 5.646 2.428.972.682 2.092 1.245 3.638.562 1.547 1.845 3.924 4.396 4.626 2.548.703.203 1.456 2.317 3.122 2.12 1.663 19.453.593 24.73-3.945 5.279-4.54 4.462-5.177 8.04-3.048 3.578 2.13 38.182 28.293 53.644 23.847 0 0 5.003-2.289 8.74-2.903 3.738-.614 6.196-1.591 6.21-4.208.009-2.614-.205-19.63-16.694-27.088-16.492-7.458-25.416-1.945-40.341-7.366-14.927-5.42-33.745-14.82-36.295-25.493 0 0-1.375-5.396-.585-6.273.793-.878-2.542-1.718-4.052-.15 0 0-.692.69-1.464 1.877-1.803 2.775-4.032 8.254 1.204 13.905 0 0 4.358 7.466.571 8.051"/>
            <path stroke="#322827" stroke-linecap="round" stroke-linejoin="round" stroke-width="1.148" d="M113.016 52.979l19.255 5.815M150.7 64.562s3.537 6.49 11.381 7.037M141.039 66.602s-3.863 12.003-8.57 14.737c0 0 6.688-.446 7.92 4.753M132.469 96.794s18.065 2.262 19.955-6.355M120.284 63.673s4.247-2.521 6.1.394M150.328 74.81s3.09-.9 5.087 1.537M140.016 179.5s-2.853.969-5.707 2.12c-2.855 1.152-11.737 3.474-10.388 6.389 1.348 2.916 2.045 4.334 1.768 7.408-.278 3.073-.642 4.498 1.853 6.926 2.496 2.428-1.334 2.33 1.827 4.717 3.16 2.39 3.875.841 4.55 4.453M144.423 158.506s-2.003-.208-2.387 1.9c-.383 2.107 2.387 1.482 2.387 1.482M210.5 191.526s20.126-7.679 36.993 18.978M118.463 126.994s-31.396 2.945-44.114 36.53M87.072 203.105s-21.67-10.587-25.125-9.725"/>
        </g>
    </g>
</svg>
