<svg xmlns="http://www.w3.org/2000/svg" xmlns:xlink="http://www.w3.org/1999/xlink" width="300" height="250" viewBox="0 0 300 250">
    <defs>
        <path id="a" d="M.678.237h53.65v52.722H.677z"/>
        <path id="c" d="M.256.171H84.01v83.755H.256z"/>
        <path id="e" d="M0 .41h73.192V34.89H0z"/>
        <path id="g" d="M.001.007h150.42v50.18H.002z"/>
    </defs>
    <g fill="none" fill-rule="evenodd">
        <path fill="#FFF9D7" d="M230 173.856c0 57.185-53.734 50.36-104.402 50.36C74.931 224.216 22 225.598 22 168.412c0-21.964 11.582-107.96 26.08-129.999 14.499-22.039 21.316-26.17 62.748-30.569 41.432-4.399 29.967 24.617 64.507 49.982 34.54 25.364 5.039 50.11 18.544 66.462 9.004 10.901 17.826 15.516 26.465 13.845"/>
        <path fill="#FFD9EC" d="M163.47 47.202c-.461 20.432-17.396 36.62-37.826 36.16-20.434-.46-36.622-17.395-36.162-37.825.462-20.432 17.394-36.622 37.826-36.16 20.433.458 36.621 17.394 36.162 37.825"/>
        <path fill="#EB1C3A" d="M102.263 74.35S128.9 50.803 162.82 53.323c0 0-5.536 23.977-23.82 29.973-8.928 2.93-20.895 1.573-36.737-8.946"/>
        <path fill="#8E2D4D" d="M140.562 53.86s4.297-.458 3.247 1.927c-1.043 2.381-12.028 9.906-17.764 10.447-5.736.54-14.867-3.123-13.98-4.865.883-1.74 2.638-2.054 2.638-2.054s22.145-5.626 23.567-6.344c1.43-.712 2.292.889 2.292.889"/>
        <path fill="#7F2548" d="M113.205 60.017s8.125 4.074 9.933 3.924c1.805-.145 4.064-2.493 3.099-2.296-.972.195-10.469-2.424-11.751-2.028l-1.281.4z"/>
        <path fill="#F8D5BF" d="M136.004 19.08s10.173 3.85 12.036 15.629c1.866 11.777-2.067 16.976-22.884 22.465 0 0-22.954-3.184-19.55-17.006 3.407-13.824 19.119-26.93 30.398-21.088"/>
        <g transform="translate(94.367 7.606)">
            <mask id="b" fill="#fff">
                <use xlink:href="#a"/>
            </mask>
            <path fill="#8E2D4D" d="M46.616 18.03s-9.675-9.081-22.54.806c-12.86 9.888-12.58 16.117-10.85 20.8 0 0 12.323 10.528 17.41 9.223 5.09-1.3 20.269-7.294 23.622-18.63 0 0 1.63 13.276-10.895 17.176-11.535 3.593-21.032 10.549-32.043-.178C.31 36.497-7.489 13.105 15.87 2.982c23.36-10.12 34.547 10.125 37.273 21.926 3.597 15.588-2.459-1.752-2.459-1.752s-3.407-4.584-4.067-5.127" mask="url(#b)"/>
        </g>
        <path fill="#60042E" d="M106.589 42.179s-6.863-9.935 3.955-19.768c5.684-5.17 18.946-11.71 28.525 1.888 0 0-11.224-5.641-18.74.876-6.882 5.96-12.928 13.164-13.74 17.004"/>
        <path fill="#7F2548" d="M106.72 42.137s-.105-.113-.28-.314c-1.345-1.53-7.063-8.26-6.907-11.854.179-4.072 2.634-6.79 2.549-5.732-.086 1.056-.653 5.885.487 9.385M139.475 24.524s-2.939-9.337-5.787-10.95c-3.225-1.829-6.611-1.212-5.75-.77.85.447 5.185 3.106 7.27 5.698 0 0 3.453 5.572 3.86 5.797"/>
        <path fill="#8E2D4D" d="M140.829 24.94s7.115 7.364-1.121 24.545l7.097-2.933 1.935-7.963s-1.956-13.145-7.911-13.65"/>
        <path stroke="#322827" stroke-linecap="round" stroke-linejoin="round" d="M137.438 30.855s-3.496-2.926-8.586.585M121.047 35.933s-4.09-2.028-8.151 2.526M126.754 34.852s3.622 5.052 3.916 6.885c.296 1.83-3.506 1.087-3.506 1.087"/>
        <path fill="#FFF" d="M133.136 44.816l-10.197 1.649s7.39 7.457 10.197-1.649"/>
        <path fill="#EB1C3A" d="M162.82 53.324s.017 21.926-23.82 29.973c-6.242 2.104-26.365 1.998-36.737-8.946"/>
        <path stroke="#322827" stroke-linecap="round" stroke-linejoin="round" stroke-width=".8" d="M120.504 38.887s-1.145-.402-2.067.933M120.743 38.935s-1.206.145-1.442 1.75M132.682 33.752s.404-1.143 2.02-1.03M132.568 33.969s.868-.848 2.268-.034"/>
        <path stroke="#322827" stroke-linecap="round" stroke-linejoin="round" d="M93.348 23.488s-6.173 21.465 13.021 34.177"/>
        <path fill="#EEE4FF" d="M227.098 105.258c-14.108 14.025-36.915 13.954-50.94-.152-14.024-14.107-13.955-36.914.153-50.938 14.108-14.025 36.91-13.96 50.938.15 14.02 14.11 13.956 36.918-.15 50.94"/>
        <path fill="#EB1C3A" d="M165.543 75.872s35.763-12.395 56.72 34.201c0 0-20.28 12.357-38.302.757 0 0-19.55-8.857-18.418-34.958"/>
        <path fill="#E3B287" d="M204.924 49.843s-12.588 10.4-12.883 15.607c-.294 5.212 2.394 14.325 6.076 16.677 3.682 2.358 7.461 3.292 10.864 3.931 3.408.641 8.159.885 10.666-1.744 2.508-2.63 11.099-5.86 10.604-10.539-.49-4.684-6.951-18.11-7.061-18.636-.117-.53-10.79-2.519-12.511-3.06-1.72-.538-5.755-2.236-5.755-2.236"/>
        <path fill="#DEB08F" d="M195.29 56.22s-5.135 8.935-5.061 14.456c.07 5.52 2.677 15.742 6.62 16.99 3.945 1.25 9.832.009 13.35-.075 3.53-.084 8.098-2.348 10.196-3.45 2.09-1.102 8.004-5.422 7.543-13.25-.463-7.825-7.324-19.767-10.175-20.85-2.846-1.075-19.697.5-22.473 6.18"/>
        <path fill="#322928" d="M193.468 58.438s-6.627 13.68-5.982 17.057c.65 3.379 2.253 9.976 4.664 12.786 3.506 4.09 14.402 3.654 19.757 1.221 5.355-2.435 11.244-8.366 11.244-8.366s-12.85 3.273-15.23 1.41c-2.566-2.01 1.38-4.098.058-5.107-.918-.7-7.779-6.184-9.47-4.36-.123.137-.79 2.529-1.179 2.237-1.724-1.314-4.847-8.784-2.5-15.816 2.869-8.6-1.362-1.062-1.362-1.062"/>
        <path fill="#FFF" d="M208.786 56.16s9.854 5.622 12.114 8.336c2.255 2.716 6.333-3.4 1.809-7.06-4.528-3.66-9.31-5.414-10.023-4.494-.717.915-3.9 3.218-3.9 3.218"/>
        <path fill="#EB1C3A" d="M234.336 44.045s14.976 36.586-15.621 41.03c0 0 5.098-17.31-2.504-30.697-7.608-13.398 18.125-10.333 18.125-10.333"/>
        <path stroke="#322827" stroke-linecap="round" stroke-linejoin="round" d="M214.002 66.332s5.327.175 7.273 2.942M207.986 66.48s-2.335 4.418-4.444 5.372c-2.104.953 3.864 2.745 3.864 2.745"/>
        <path fill="#FFF" d="M200.426 76.142s4.199 2.617 5.184 2.96c.985.342-1.314 1.403-2.264 1.288-.946-.11-3.623-1.978-3.68-2.99-.058-1.005-.235-1.867.76-1.258"/>
        <path stroke="#322827" stroke-linecap="round" stroke-linejoin="round" d="M214.806 69.504s1.613-.401 2.401 1.338"/>
        <path fill="#EB1C3A" d="M190.843 64.245s17.218-8.055 23.18-7.058c5.958.996 21.314-2.352 20.687-10.67-.163-2.186-.675-3.903-1.37-5.249-1.938-3.779-5.321-4.643-6.483-4.743-1.574-.13-42.324-.902-36.014 27.72"/>
        <path stroke="#322827" stroke-linecap="round" stroke-linejoin="round" d="M201.853 61.386s1.613-.4 2.397 1.336M199.536 56.843s5.826 1.643 8.45 5.288"/>
        <path fill="#DA132F" d="M217.66 57.317s12.273-1.179 16.024-6.863c0 0-4.123 8.472-15.277 8.814l-.748-1.951zM218.92 44.018s-15.661 2.595-23.07 9.655c0 0 2.767-10.734 23.07-9.655M214.626 47.01s-10.352 3.757-14.238 8.15c0 0 2.792-5.613 14.238-8.15M224.84 59.528s2.794 14.015-.416 21.407c0 0 6.34-5.898.416-21.407M226.523 58.975s5.11 8.8 4.457 14.38c0 0 4.093-4.032-4.457-14.38M229.115 58.995s5.627 3.134 6.121 6.666c0 0 .288-5.103-6.12-6.666"/>
        <path fill="#D1A282" d="M205.285 58.597s4.7-.397 6.086.168c0 0 7.667 3.957 8.124 4.398 0 0-4.693-3.593-8.931-5.92 0 0-4.837 1.042-5.279 1.354M220.344 74.087s-1.615 5.913-2.647 7.164c0 0-8.4 2.49-10.104.996 0 0 .779 2.1 11.836-.27 0 0 .874-5.386.915-7.89"/>
        <path stroke="#322827" stroke-linecap="round" stroke-linejoin="round" d="M190.315 92.164l1.835-3.883s-1.78 5.201.87 6.6c0 0-.385.122-2.028 2.014-1.64 1.89-5.194 10.455-5.194 10.455M162.355 72.804s11.008-2.65 18.14-1.018"/>
        <g transform="translate(181.73 124.709)">
            <mask id="d" fill="#fff">
                <use xlink:href="#c"/>
            </mask>
            <path fill="#C8F4E3" d="M80.067 59.766c-9.783 20.95-34.701 30.003-55.65 20.216C3.467 70.198-5.585 45.282 4.2 24.33c9.781-20.95 34.698-30 55.652-20.216C80.801 13.9 89.85 38.816 80.067 59.766" mask="url(#d)"/>
        </g>
        <g transform="rotate(13 -638.681 913.71)">
            <mask id="f" fill="#fff">
                <use xlink:href="#e"/>
            </mask>
            <path fill="#EB1C3A" d="M0 16.012S24.311-8.361 73.192 3.819c0 0-4.304 21.7-22.922 27.656 0 0-31.991 14.253-50.27-15.463" mask="url(#f)"/>
        </g>
        <path fill="#F8D5BF" d="M241.407 169.444c3.096-2.724 4.382-5.703 4.382-5.703l8.768-10.55-15.111-12.59-20.25-3.766s-5.788 12.035-7.899 15.687c-6.27 10.841 3.286 16.812 3.286 16.812l-3.07 8.012-1.844 4.682c-.805 2.263-.75 4.33.163 6.2 1.37 2.806 2.528 3.444 5.273 4.517 2.744 1.072 10.58-.097 10.58-.097s3.448-.346 11.182-3.224c7.734-2.877 2.584-11.509 2.584-11.509-.465-4.772 1.956-8.47 1.956-8.47z"/>
        <path fill="#E0B8A6" d="M220.798 172.375s10.01 3.801 20.61-2.931c0 0-2.236 5.93-.986 9.95 0 0 2.662 4.777-.294 7.655l-19.33-14.674zM219.868 136.86s-2.977 1.918-.233 3.07c2.746 1.153 10.61.373 10.981 3.26 0 0 .346.753-.335 1.453 0 0 8.51 1.03 13.402 4.978 4.888 3.946 1.063-4.605 1.063-4.605l-18.247-9.629-6.631 1.474z"/>
        <path fill="#322827" d="M252.881 146.414c-5.413-1.077-28.776-21.014-28.776-21.014-9.174-6.969-11.557 4.034-10.504 8.395 1.055 4.362 12.56 6.45 16.593 7.554 4.038 1.102 2.395 2.268 2.395 2.268s8.438 2.3 13.552 8.355c.07.084.575 1.118.581 1.228.033.5-.092.513-.184 1.122-.465 3.09-2.861 12.395-2.861 12.395l.01-.012c-.332.481-.484.785-.32.855.939.387 2.845.312 4.9-2.647 2.056-2.958 3.223-5.777 5.678-8.984 2.457-3.21 4.353-8.435-1.064-9.515"/>
        <path fill="#F8D5BF" d="M248.042 160.623c-.882 2.14-2.997 3.298-4.725 2.588-1.73-.711-2.415-3.025-1.534-5.166.88-2.14 2.998-3.297 4.727-2.587 1.725.712 2.411 3.024 1.532 5.165"/>
        <path stroke="#322827" stroke-linecap="round" stroke-linejoin="round" d="M212.913 146.156l9.755 2.252M230.677 151.765s1.974 3.11 5.887 3.121M224.929 152.384s-1.518 6.1-3.764 7.616c0 0 3.308-.445 4.09 2.1M221.92 165.419s8.736 2.402 10.281-1.715M216.878 151.234s2.024-1.396 3.042-.007M231.224 156.174s1.505-.552 2.578.595M245.93 157.398s.861 1.78-.733 3.172M243.668 174.923s5.933 1.703 7.058 6.125c0 0 9.99 2.065 13.878 6.491"/>
        <path fill="#ECB395" d="M80.99 171.983s3.683 32.98 16.157 40.654c0 0 38.437-2.608 44.075-13.307 0 0-17.392-19.257-16.822-26.027.57-6.766-43.41-1.32-43.41-1.32"/>
        <path fill="#ECB395" d="M65.862 169.02s41.477 30.949 63.996 9.088c9.643-9.361.158-28.036-2.795-39.24-2.954-11.204-7.86-33.202-7.146-35.158.716-1.955-104.708 25.095-54.055 65.31"/>
        <path stroke="#322827" stroke-linecap="round" stroke-linejoin="round" stroke-width="1.5" d="M84.388 145.89s5.919-13.04 15.731-14.145M114.946 124.199s9.26-1.965 15.933 2.851M110.822 133.106s6.223 12.926 9.483 16.116c2.184 2.136-9.807 1.54-9.807 1.54"/>
        <path fill="#322827" d="M101.35 137.277c.424 1.394.004 2.754-.931 3.037-.935.284-2.036-.62-2.458-2.015-.42-1.394-.002-2.757.933-3.037.935-.283 2.036.619 2.456 2.015M123.176 128.907c.16 1.448-.498 2.708-1.467 2.814-.972.108-1.888-.978-2.05-2.426-.16-1.446.502-2.708 1.47-2.814.97-.108 1.885.978 2.047 2.426"/>
        <path fill="#D7997B" d="M86.776 197.065s-3.79-8.502-4.787-18.478c0 0 26.203 8.184 39.988 4.857 0 0-32.757 10.437-35.201 13.621M81.123 131.534s14.556.148 20.872-8.934c0 0 10.262 1.467 11.534-8.918 0 0 2.543 9.82 8.284 2.686l-2.46-8.14-20.74 6.264-17.49 17.042z"/>
        <path fill="#322928" d="M72.557 159.027s-9.732-19.381 1.07-24.818c10.811-5.437 22.83-2.368 27.241-14.746 0 0 3.712 3.896 11.591-3.5 0 0 8.883 6.45 13.988-5.963 0 0 12.031-7.111 1.317-16.485 0 0-12.286-13.445-17.483-2.43 0 0-2.606-5.853-6.604-4.211 0 0-.129 5.946-8.155 9.546-8.026 3.599-38.2 6.946-43.977 13.276-4.877 5.351-2.392 10.598.476 10.6 0 0-10.894 15.11-5.786 32.545 2.322 7.926 5.383 16.101 18.788 23.962 5.242 3.074 13.822 4.874 17.514 2.03 0 0-6.844-5.099-15.746-18.644 0 0-8.515.812-10.028-5.96-1.638-7.33 3.48-6.702 3.48-6.702l3.234.632 3.061 2.452 6.019 8.416z"/>
        <path fill="#D7997B" d="M127.062 138.869c-1.035-3.922-2.307-9.166-3.494-14.41.002.006 2.115 14.912 7.126 30.785 5.011 15.88-4.254 25.69-4.254 25.69.466-.044 1.111-1.094 1.542-1.174.64-.515 1.264-1.06 1.876-1.653 9.643-9.36.158-28.036-2.796-39.238"/>
        <path stroke="#322827" stroke-linecap="round" stroke-linejoin="round" stroke-width="1.5" d="M62 150.946s-2.221 5.128 4.167 6.606"/>
        <path stroke="#141212" stroke-linecap="round" stroke-linejoin="round" stroke-width="2" d="M74.792 100.666s33.946 6.427 35.798-11.532M94.784 101.832s31.083 5.734 31.692-10.972"/>
        <path stroke="#322827" stroke-linecap="round" stroke-linejoin="round" stroke-width="1.5" d="M139.351 188.673s26.97-11.063 46.345 12.52"/>
        <path fill="#FFF" d="M103.332 158.11s15.266 2.289 18.642-2.24c0 0-.545 1.668-1.03 5.391-.487 3.723-10.562 9.287-17.612-3.15"/>
        <path fill="#3F7393" d="M136.421 197.916s-7.77 6.66-15.818 4.717c0 0-11.656.279-26.086-4.717-3.898-1.35-11.21-1.984-18.946-2.597.715.057 10.695.154 25.883 8.147 15.818 8.325 28.527 5.474 41.183-8.086l1.063-1.136c-2.375.91-4.804 2.12-7.279 3.672"/>
        <g transform="translate(38.604 192.467)">
            <mask id="h" fill="#fff">
                <use xlink:href="#g"/>
            </mask>
            <path fill="#547DA3" d="M34.985 45.047c41.387 10.17 100.883 6.541 115.437-22.625-8.789-13.76-28.884-31.926-53.384-16.547 0 0-7.77 6.66-15.818 4.718 0 0-11.657.279-26.086-4.718C43.654 1.903 14.6-1.233.396 16.917c-.4 1.206-5.327 18.321 34.589 28.13" mask="url(#h)"/>
        </g>
        <path stroke="#EFCD93" stroke-dasharray="4,6" d="M142.467 89.742l-6.51 21.658M176.748 104.895l-34.031 23.847M181.986 152.778c-19.712-9.174-5.852-3.195-42.774-14.865"/>
    </g>
</svg>
