<svg xmlns="http://www.w3.org/2000/svg" xmlns:xlink="http://www.w3.org/1999/xlink" width="300" height="250" viewBox="0 0 300 250">
    <defs>
        <path id="a" d="M32.395 1.238c-4.663 2.459-5.486 10.156-5.618 11.704-.646 7.763 6.215 16.394 2.998 21.148-3.28 4.845-4.407.487-7.348-3.87-2.462-3.647-6.194-7.295-13.526-5.546-8.388 2-9.203 7.551-8.222 9.624 1.634 3.46 7.491.228 15.131 4.972 5.347 3.317 8.358 9.387 7.089 11.038-.702.915-2.574.086-5.054-.74-2.74-.917-6.223-1.834-9.682-.392-3.825 1.595-6.54 6.016-5.726 7.914.571 1.337 2.758.993 6.685 1.727 2.207.413 12.551 2.353 14.849 8.245.425 1.09 1.191 3.9-1.205 8.51h18.087c.38-3.356 1.448-9.24 5.32-13.43 6.513-7.05 14.028-6.955 19.387-6.86 3.685.066 6.35.13 6.972-2.125.728-2.641-3.78-7.151-8.829-8.645-6.623-1.96-9.836-.389-11.886 1.183-1.898 1.454-2.796 2.906-4.48 1.56-4.269-3.422 13.508-20.585 5.924-35.91C50.138 5.027 42.29.366 36.324.366c-1.454 0-2.794.276-3.929.873z"/>
    </defs>
    <g fill="none" fill-rule="evenodd">
        <path fill="#F3F8FB" d="M250.477 111.242c0 54.81-44.431 99.242-99.242 99.242-54.809 0-101.759-20.089-101.759-74.898 0-21.052-29.537-68.416-13.853-89.54 15.683-21.122 41.866-38.075 86.685-42.29 44.819-4.217 78.912 7.032 116.277 31.343 37.364 24.31 11.892 51.928 11.892 76.143l-.053-.084"/>
        <path fill="#EBEFF3" d="M228.26 176.87c0 1.056-8.673 1.914-19.37 1.914-10.698 0-19.37-.858-19.37-1.914 0-1.058 8.672-1.915 19.37-1.915 10.697 0 19.37.857 19.37 1.915"/>
        <path fill="#D6E6EA" d="M217.852 142.378c.38-3.349 1.45-9.217 5.321-13.395 10.992-11.867 24.832-3.441 26.36-8.963.728-2.634-3.78-7.132-8.829-8.622-12.756-3.767-12.864 5.53-16.367 2.735-4.27-3.413 13.507-20.532 5.925-35.816-3.886-7.84-15.078-13.12-20.866-10.082-4.663 2.452-5.488 10.13-5.62 11.673-.645 7.743 6.217 16.352 2.998 21.093-6.025 8.877-4.783-13.221-20.872-9.39-8.39 1.994-9.203 7.531-8.224 9.598 1.634 3.451 7.492.227 15.133 4.961 5.347 3.309 8.358 9.361 7.089 11.008-1.478 1.923-8.15-3.87-14.736-1.129-3.825 1.592-6.54 6-5.728 7.894.573 1.333 2.758.99 6.687 1.722 2.205.413 12.55 2.347 14.849 8.224.424 1.088 1.19 3.89-1.205 8.489h18.085z"/>
        <g transform="translate(177 67)">
            <mask id="b" fill="#fff">
                <use xlink:href="#a"/>
            </mask>
            <path fill="#E5EFF3" d="M67.005 146.264c.873-7.79 3.358-21.439 12.34-31.158 25.5-27.6 57.61-8.006 61.153-20.849 1.69-6.126-8.77-16.586-20.48-20.054-29.595-8.758-29.852 12.869-37.974 6.364-9.907-7.937 31.332-47.757 13.746-83.31-9.018-18.23-34.978-30.515-48.406-23.445C36.563-20.49 34.652-2.628 34.35.959c-1.498 18.01 14.417 38.039 6.95 49.066C27.323 70.673 30.207 19.271-7.125 28.18c-19.461 4.645-21.35 17.522-19.078 22.323 3.794 8.028 17.382.532 35.112 11.542 12.4 7.697 19.384 21.777 16.446 25.605-3.435 4.47-18.908-9-34.185-2.628-8.879 3.703-15.173 13.959-13.291 18.36 1.325 3.101 6.392 2.301 15.515 4.012 5.111.958 29.114 5.453 34.442 19.126.985 2.53 2.76 9.047-2.792 19.744h41.962z" mask="url(#b)"/>
        </g>
        <path fill="#D0E3EF" d="M231 153.152c0 13.32-10.53 24.09-23.431 23.844-12.662-.24-22.569-11.504-22.569-24.637v-13.626c0-3.165 2.476-5.733 5.53-5.733h34.945c3.051 0 5.525 2.568 5.525 5.733v14.42z"/>
        <path fill="#DD4A5C" d="M149.026 113.72s7.823 17.414 11.106 38.614c0 0 5.046-21.957-11.106-38.614"/>
        <path fill="#EB1C3A" d="M34.587 115.564S28.07 100.03 58.471 94.496c30.398-5.535 113.093-5.884 127.774 6.437 14.68 12.32 19.03 18.668 29.362 58.719 10.33 40.052-34.256 39.203-39.15 41.53-4.893 2.328-108.661-13.166-141.87-85.618"/>
        <path fill="#DB1834" d="M177.002 115.426s8.428 18.76 11.963 41.597c0 0 5.434-23.653-11.963-41.597M95.556 112.967s8.427 18.758 11.96 41.595c0 0 5.438-23.653-11.96-41.595"/>
        <path fill="#DD4A5C" d="M112.812 112.967s8.428 18.758 11.961 41.595c0 0 5.437-23.653-11.96-41.595"/>
        <path fill="#DB1834" d="M155.879 112.967s8.427 18.758 11.96 41.595c0 0 5.438-23.653-11.96-41.595M58.495 178.29s-27.129-50.086-23.907-62.726c3.22-12.642 25.424-22.157 37.159 0C83.48 137.72 90.869 178.29 90.869 178.29l16.276 22.37s-34.72 5.967-48.65-22.37"/>
        <path fill="#ECB395" d="M116.503 99.575s-5.47 29.728 3.388 39.7c0 0 34.199 7.847 41.934 0 0 0-10.097-21.368-7.817-27.119 2.28-5.75-37.505-12.58-37.505-12.58"/>
        <path fill="#ECB395" d="M104.095 93.01s28.016 37.904 53.405 24.77c10.874-5.624 7.52-24.404 7.894-34.95.373-10.547 1.89-31.02 3.027-32.537 1.138-1.517-97.906-5.684-64.326 42.716"/>
        <path fill="#424344" d="M232.749 145.03s.821-22.025 0-26.818c-.822-4.792-2.998-6.688.366-8.015 3.361-1.327 24.025-10.427 24.025-10.427s3.602-.947 4.36 1.328c.758 2.274 2.843 25.023 2.843 29.003 0 3.982-14.217 20.664-21.421 20.664-7.203 0-11.247-.286-10.173-5.735"/>
        <path fill="#ECB395" d="M161.824 245.573s55.82-11.524 80.59-64.097c0 0 .129-7.678 3.984-10.16 4.032-2.595 14.156-8.088 15.166-14.154 1.01-6.067-3.034-7.077 0-13.144 3.033-6.065 8.593-12.207 6.57-16.465-2.02-4.261-17.693 16.97-25.276 19.498-7.582 2.528-10.11-2.021-10.11-2.021s4.551-6.067 3.033-7.836c-1.516-1.77-10.615 4.802-9.35 8.34 1.262 3.54-2.782 7.584 0 10.111 2.78 2.528-7.864 39.612-49.57 49.974l-15.037 39.954z"/>
        <path fill="#547DA3" d="M141.756 136.358s-10.616.252-23.76-4.298c-13.144-4.55-60.66-10.11-65.716 24.772-5.057 34.88 36.214 88.718 110.709 88.718 0 0 20.193-12.885 13.872-39.931 0 0 30.612-2.533 46.355-36.503 0 0-9.93-6.977-17.007-19.615-7.077-12.637-26.287-32.352-50.046-17.44 0 0-7.076 6.065-14.407 4.297"/>
        <path fill="#3F6C8E" d="M53.352 150.765s9.541-11.928 20.916-5.862c11.374 6.066 21.36 42.64 35.387 50.223 14.029 7.581 49.288 10.993 53.08 10.993 3.791 0 8.72-2.654 9.857-2.274 1.137.379 4.69.474 4.69.474s5.27 29.478-15.458 42.748c0 0-122.186 2.275-108.472-96.302"/>
        <path fill="#505151" d="M242.448 112.978s10.143-4.677 10.522-4.677c.378 0 .758 3.287.758 3.287l-9.984 4.422s-1.58-1.01-1.296-3.032"/>
        <path stroke="#322827" stroke-linecap="round" stroke-linejoin="round" stroke-width="1.5" d="M126.337 77.717s8.593-9.812 17.44-8.191M158.69 66.849s8.593.726 13.144 6.682M152.75 73.53s2.023 12.908 4.026 16.547c1.343 2.438-8.955-1.238-8.955-1.238"/>
        <path fill="#322827" d="M141.589 78.767c0 1.329-.722 2.404-1.611 2.404-.89 0-1.613-1.075-1.613-2.404 0-1.328.722-2.404 1.613-2.404.889 0 1.611 1.076 1.611 2.404M161.58 77.701c-.242 1.305-1.148 2.23-2.02 2.069-.875-.162-1.39-1.35-1.148-2.657.242-1.303 1.149-2.229 2.02-2.067.876.163 1.389 1.35 1.147 2.655"/>
        <path stroke="#322827" stroke-linecap="round" stroke-linejoin="round" stroke-width="1.5" d="M267.188 125.931s-3.033 2.144-2.276 3.82c.76 1.678 1.077 2.72 1.077 2.72M95.627 125.17s-61.8-2.461-46.635 54.41M247.82 99.575l9.781-4.563 1.218 16.23"/>
        <path fill="#D7997B" d="M116.183 131.492s-2.305-16.936-.545-25.897c0 0 18.622 16.355 33.589 14.763 0 0-32.96 5.51-33.044 11.134M127.269 64.34s12.652 3.962 20.553-2.293c0 0 8.561 3.98 12.4-4.74 0 0-.365 9.23 6.518 4.521v-7.744h-19.736L127.27 64.339z"/>
        <path fill="#322928" d="M112.562 86.058s-3.386-19.462 7.469-21.357c10.856-1.897 20.528 3.944 27.632-5.688 0 0 2.21 4.375 11.027 0 0 0 6.05 7.961 13.766-1.517 0 0 12.364-3.032 5.491-14.028 0 0-7.174-14.957-14.606-6.72 0 0-.732-5.791-4.651-5.412 0 0-1.675 5.15-9.62 6.178-7.948 1.026-35.139-4.002-41.843 0-5.661 3.379-4.875 8.61-2.376 9.367 0 0-34.318 19.468-3.538 52.694 3.76 4.06 10.768 7.886 14.735 6.38 0 0-4.624-6.247-8.821-20.402 0 0-7.638-1.534-7.175-7.837.503-6.824 4.8-4.927 4.8-4.927l2.653 1.403 2.024 2.943 3.033 8.923z"/>
        <path fill="#D7997B" d="M165.394 82.83c.13-3.692.402-8.599.747-13.485 0 .006-2.08 13.558-1.891 28.72.19 15.166-10.474 21.28-10.474 21.28.419.084 1.258-.661 1.656-.618a24.817 24.817 0 0 0 2.069-.947c10.872-5.624 7.52-24.404 7.893-34.95"/>
        <path stroke="#322827" stroke-linecap="round" stroke-linejoin="round" stroke-width="1.5" d="M105.484 76.232s-3.285 3.887 1.895 6.857"/>
        <path stroke="#141212" stroke-linecap="round" stroke-linejoin="round" stroke-width="2" d="M129.875 35.76s27.907 14.54 34.249-.633M147 42.039s25.592 13.183 30.52-1.225"/>
        <path fill="#3F7393" d="M156.164 132.061s-7.077 6.065-14.408 4.297c0 0-10.617.252-23.759-4.297-3.548-1.229-9.604-2.529-16.652-3.088.654.053 9.136.862 22.97 8.143 14.406 7.583 25.984 4.986 37.51-7.364l.97-1.035c-2.165.827-4.378 1.93-6.631 3.344"/>
        <path fill="#D7997B" d="M234.703 146.845c.013.007.027.01.04.016-1.414-.807-1.994-1.83-1.994-1.83s4.55-6.069 3.033-7.836c-.756-.884-3.403.31-5.707 2.169.79 2.804 2.213 6.223 4.628 7.481"/>
        <path fill="#424344" d="M235.245 132.471l-2.222 2.763-.274 9.796s2.211 1.66 4.296.806c2.085-.852 5.403-11.848 5.403-11.848l-7.203-1.517z"/>
        <path fill="#3F6C8E" d="M175.576 168.523s8.088-1.01 9.604-1.516 20.21 25.153 20.21 25.153-15.912-19.592-19.956-20.604c-4.045-1.01-7.583-.505-9.858-3.033"/>
        <path fill="#38647F" d="M163.086 208.616s2.681.03 2.176 6.983c0 0 1.263-4.172 1.263-5.94 0 0 3.16 4.548 2.023 10.11 0 0 2.401-9.352 1.896-10.742 0 0 2.526-2.403 3.158-1.011.634 1.39 2.937 1.911 3.44 1.278.506-.63.051-3.412.051-3.412s.189-3.602-6.43-1.708c-3.226.922-3.21 4.644-38.871-2.203 0 0-17.708-3.771-24.157-8.152 0 0-6.573-1.432-8.976 0 0 0 5.562.8 7.204 1.937 1.643 1.138 43.097 18.325 55.103 13.017"/>
        <path fill="#D7997B" d="M171.502 237.517s43.079-12.725 59.298-36.792c0 0-19.442 30.89-65.843 44.064 0 0 2.09-1.277 6.545-7.272"/>
        <path fill="#FFF" d="M143.206 99.575l13.592.284s-6.02 12.297-13.592-.284"/>
        <path fill="#D7997B" d="M260.733 146.08s-3.213 3.928-2.708 6.075c.506 2.149 1.39 6.824-1.138 9.352-2.526 2.528-5.809 4.493-5.116 6.417 0 0 13.79-7.17 9.2-16.778 0 0-.815-3.536-.238-5.066"/>
    </g>
</svg>
