<svg xmlns="http://www.w3.org/2000/svg" width="57" height="47" viewBox="0 0 57 47">
    <g fill="none" fill-rule="evenodd">
        <path fill="#FFD4E2" d="M32.03 42.092c11.26-1.784 19.607-14.986 17.824-26.246C48.07 4.586 32.818 3.77 21.558 5.554 10.298 7.337 3.761 13.766 5.544 25.026 7.328 36.286 20.77 43.875 32.03 42.092z" transform="translate(1.2 .8)"/>
        <path fill="#FF7FA9" fill-rule="nonzero" d="M34.068 23.292c.288-1.056 1.776-1.056 2.064 0l1.728 6.192c.144.384.384.672.768.768l6.192 1.728c1.008.288 1.008 1.776 0 2.064l-6.192 1.728c-.384.096-.672.384-.768.768l-1.728 6.192c-.288 1.056-1.776 1.056-2.064 0L32.34 36.54c-.144-.384-.384-.672-.768-.768l-6.192-1.728c-1.056-.288-1.056-1.776 0-2.064l6.192-1.728c.384-.144.672-.384.768-.768zM12.564 10.428c.384-1.392 2.4-1.392 2.784 0l2.304 8.256c.144.48.528.864 1.008 1.008l8.256 2.304c1.392.384 1.392 2.352.048 2.784l-8.256 2.304c-.48.144-.864.528-1.008 1.008l-2.304 8.256c-.384 1.392-2.4 1.392-2.784 0l-2.304-8.256c-.144-.48-.528-.864-1.008-1.008L1.044 24.78c-1.392-.384-1.392-2.4 0-2.784l8.208-2.304c.48-.144.864-.528 1.008-1.008zM30.276.684c.288-.912 1.536-.912 1.776 0l1.44 5.184c.096.288.336.528.624.624l5.232 1.488c.912.288.912 1.536 0 1.776l-5.184 1.44c-.288.096-.528.336-.624.624l-1.488 5.184c-.288.912-1.536.912-1.776 0l-1.488-5.184c-.096-.288-.336-.528-.624-.624l-5.184-1.44c-.912-.288-.912-1.536 0-1.776l5.184-1.488c.288-.096.528-.336.624-.624z" transform="translate(1.2 .8)"/>
    </g>
</svg>
