<svg xmlns="http://www.w3.org/2000/svg" width="48" height="48" viewBox="0 0 48 48">
  <path fill="#E3193A" fill-rule="evenodd" d="M23,4 L23,7 L19,7 C18.4477153,7 18,7.44771525 18,8 L18,9 C18,9.55228475 18.4477153,10 19,10 L30,10 C30.5522847,10 31,9.55228475 31,9 L31,8 C31,7.44771525 30.5522847,7 30,7 L26,7 L26,4 L37,4 C40.3137085,4 43,6.6862915 43,10 L43,39.9 C43,42.109139 41.209139,43.9 39,43.9 L9,43.9 C6.790861,43.9 5,42.109139 5,39.9 L5,10 C5,6.6862915 7.6862915,4 11,4 L23,4 Z M19.9433962,29.8230769 C16.7358491,29.8230769 14,32.3524531 14,35.3179285 L14,37.4172623 C14,38.2022411 14.754717,38.9 15.6037736,38.9 L32.3962264,38.9 C33.245283,38.9 34,38.2022411 34,37.4172623 L34,35.3179285 C34,32.3524531 31.2641509,29.8230769 27.9622642,29.8230769 L19.9433962,29.8230769 Z M24,16.9 C20.937799,16.9 18.5454545,19.3291498 18.5454545,22.4384615 C18.5454545,25.4506073 20.937799,27.9769231 24,27.9769231 C26.9665072,27.9769231 29.4545455,25.4506073 29.4545455,22.4384615 C29.4545455,19.3291498 26.9665072,16.9 24,16.9 Z"/>
</svg>
