<?xml version="1.0" encoding="UTF-8"?>
<svg width="135px" height="40px" viewBox="0 0 135 40" version="1.1" xmlns="http://www.w3.org/2000/svg" xmlns:xlink="http://www.w3.org/1999/xlink">
    <title>ic_download_appstore</title>
    <g id="Designs" stroke="none" stroke-width="1" fill="none" fill-rule="evenodd">
        <g id="Become-a-Vendor-—-Landing-Page-~-Mixed-Assets-&amp;-Components-" transform="translate(-20.000000, -148.000000)">
            <g id="How-It-Works-(Malaysia)" transform="translate(20.000000, 28.000000)">
                <g id="Appstore" transform="translate(0.000000, 120.000000)">
                    <rect id="backfround-copy" fill="#000000" x="0" y="0" width="135" height="40" rx="3.71229698"></rect>
                    <path d="M51.81797,30.7192575 L54.0869645,30.7192575 L49.1199638,16.9871121 L46.8223685,16.9871121 L41.8553679,30.7192575 L44.0480937,30.7192575 L45.3160612,27.0744816 L50.559536,27.0744816 L51.81797,30.7192575 Z M47.8615299,19.4804053 L48.0236009,19.4804053 L50.0161214,25.285401 L45.8594759,25.285401 L47.8615299,19.4804053 Z M60.1032413,20.1846179 C58.6922699,20.1846179 57.4719703,20.8888305 56.8427533,22.0688624 L56.6902158,22.0688624 L56.6902158,20.3559128 L54.7167626,20.3559128 L54.7167626,34.0785419 L56.7664846,34.0785419 L56.7664846,29.1490538 L56.9285556,29.1490538 C57.4719703,30.2434382 58.6446019,30.8905525 60.1223084,30.8905525 C62.7440458,30.8905525 64.4124242,28.8254967 64.4124242,25.532827 C64.4124242,22.2401573 62.7440458,20.1846179 60.1032413,20.1846179 L60.1032413,20.1846179 Z M59.5216922,29.0538899 C57.8056459,29.0538899 56.7283502,27.7025631 56.7283502,25.5423434 C56.7283502,23.3726073 57.8056459,22.0212805 59.5312258,22.0212805 C61.2663393,22.0212805 62.3055007,23.3440581 62.3055007,25.532827 C62.3055007,27.7311122 61.2663393,29.0538899 59.5216922,29.0538899 L59.5216922,29.0538899 Z M70.7337758,20.1846179 C69.3228044,20.1846179 68.1025048,20.8888305 67.4732879,22.0688624 L67.3207504,22.0688624 L67.3207504,20.3559128 L65.3472972,20.3559128 L65.3472972,34.0785419 L67.3970191,34.0785419 L67.3970191,29.1490538 L67.5590902,29.1490538 C68.1025048,30.2434382 69.2751365,30.8905525 70.752843,30.8905525 C73.3745804,30.8905525 75.0429587,28.8254967 75.0429587,25.532827 C75.0429587,22.2401573 73.3745804,20.1846179 70.7337758,20.1846179 L70.7337758,20.1846179 Z M70.1522268,29.0538899 C68.4361805,29.0538899 67.3588848,27.7025631 67.3588848,25.5423434 C67.3588848,23.3726073 68.4361805,22.0212805 70.1617604,22.0212805 C71.8968739,22.0212805 72.9360352,23.3440581 72.9360352,25.532827 C72.9360352,27.7311122 71.8968739,29.0538899 70.1522268,29.0538899 L70.1522268,29.0538899 Z M79.3819047,27.0268997 C79.5344421,29.4821273 81.5841641,31.0523311 84.6349131,31.0523311 C87.895401,31.0523311 89.9355894,29.4059962 89.9355894,26.7794736 C89.9355894,24.7144178 88.7724913,23.5724514 85.9505486,22.9158208 L84.4347077,22.5446817 C82.6423926,22.1259607 81.9178398,21.5644939 81.9178398,20.5843061 C81.9178398,19.3471759 83.0428034,18.5382831 84.730249,18.5382831 C86.3318922,18.5382831 87.4377887,19.3281431 87.6379941,20.5938225 L89.7163168,20.5938225 C89.5923801,18.2813406 87.5521918,16.6540386 84.7588497,16.6540386 C81.7557687,16.6540386 79.7537147,18.2813406 79.7537147,20.7270519 C79.7537147,22.7445258 80.888212,23.9435905 83.3764791,24.5240901 L85.1497269,24.9523274 C86.9706427,25.3805648 87.7714643,26.0086463 87.7714643,27.0554488 C87.7714643,28.2735463 86.5130304,29.1585702 84.7969841,29.1585702 C82.9570011,29.1585702 81.6795,28.3306446 81.4983618,27.0268997 L79.3819047,27.0268997 Z M91.6998848,17.8435869 L91.6998848,20.4034948 L89.9933721,20.4034948 L89.9933721,22.1259607 L91.6998848,22.1259607 L91.6998848,27.9785383 C91.6998848,29.9769794 92.6055759,30.7763559 94.884104,30.7763559 C95.2845148,30.7763559 95.6563248,30.7287739 95.9804669,30.6716756 L95.9804669,28.9682425 C95.6944592,28.9967916 95.5323882,29.0158244 95.2177797,29.0158244 C94.1976855,29.0158244 93.7496067,28.5400051 93.7496067,27.455137 L93.7496067,22.1259607 L96.0758028,22.1259607 L96.0758028,20.4034948 L93.7496067,20.4034948 L93.7496067,17.8435869 L91.6998848,17.8435869 Z M101.157788,29.1014719 C99.3750063,29.1014719 98.3739793,27.7977269 98.3739793,25.532827 C98.3739793,23.2869598 99.3750063,21.9736985 101.157788,21.9736985 C102.931036,21.9736985 103.941596,23.2869598 103.941596,25.532827 C103.941596,27.7882106 102.931036,29.1014719 101.157788,29.1014719 L101.157788,29.1014719 Z M101.157788,30.9191017 C104.189469,30.9191017 106.04852,28.8921114 106.04852,25.532827 C106.04852,22.1925754 104.179936,20.1560687 101.157788,20.1560687 C98.1261059,20.1560687 96.2575222,22.1925754 96.2575222,25.532827 C96.2575222,28.8921114 98.1165723,30.9191017 101.157788,30.9191017 L101.157788,30.9191017 Z M106.983393,30.7192575 L109.033115,30.7192575 L109.033115,24.6002211 C109.033115,23.144214 110.129478,22.1640262 111.673919,22.1640262 C112.017128,22.1640262 112.646345,22.230641 112.808416,22.2877393 L112.808416,20.2702654 C112.589144,20.2131671 112.198267,20.1846179 111.902725,20.1846179 C110.548955,20.1846179 109.404925,20.926896 109.109383,21.9451494 L108.956846,21.9451494 L108.956846,20.3559128 L106.983393,20.3559128 L106.983393,30.7192575 Z M117.423255,21.8975674 C118.939096,21.8975674 119.93059,22.9538863 119.978258,24.5811884 L114.734783,24.5811884 C114.849186,22.9634027 115.907414,21.8975674 117.423255,21.8975674 L117.423255,21.8975674 Z M119.968724,27.92144 C119.58738,28.7303328 118.738891,29.177603 117.499524,29.177603 C115.859747,29.177603 114.801518,28.0261202 114.734783,26.2084904 L114.734783,26.0942938 L122.066114,26.0942938 L122.066114,25.3805648 C122.066114,22.1259607 120.321467,20.1560687 117.432789,20.1560687 C114.505977,20.1560687 112.646927,22.2591901 112.646927,25.5708925 C112.646927,28.882595 114.467842,30.9191017 117.442323,30.9191017 C119.816187,30.9191017 121.475031,29.7771353 121.942177,27.92144 L119.968724,27.92144 Z" id="App-Store" fill="#FFFFFF"></path>
                    <path d="M43.7762502,6.26830771 L43.7762502,12.8074246 L46.1414886,12.8074246 C48.0936047,12.8074246 49.2240162,11.6065473 49.2240162,9.5174739 C49.2240162,7.46012181 48.0845251,6.26830771 46.1414886,6.26830771 L43.7762502,6.26830771 Z M44.7931665,7.19275667 L46.0279934,7.19275667 C47.3853951,7.19275667 48.1889406,8.05376305 48.1889406,9.53106874 C48.1889406,11.0310325 47.3990146,11.8829756 46.0279934,11.8829756 L44.7931665,11.8829756 L44.7931665,7.19275667 Z M52.8022905,12.0370505 C51.9533469,12.0370505 51.4766674,11.4162195 51.4766674,10.3376958 C51.4766674,9.26823521 51.9533469,8.64287268 52.8022905,8.64287268 C53.6466942,8.64287268 54.1279135,9.26823521 54.1279135,10.3376958 C54.1279135,11.4116879 53.6466942,12.0370505 52.8022905,12.0370505 L52.8022905,12.0370505 Z M52.8022905,12.9025885 C54.2459485,12.9025885 55.1312105,11.937355 55.1312105,10.3376958 C55.1312105,8.74709977 54.2414087,7.77733469 52.8022905,7.77733469 C51.3586325,7.77733469 50.4688307,8.74709977 50.4688307,10.3376958 C50.4688307,11.937355 51.3540927,12.9025885 52.8022905,12.9025885 L52.8022905,12.9025885 Z M62.7816899,7.87249855 L61.8056318,7.87249855 L60.9249096,11.6382686 L60.8477329,11.6382686 L59.8308166,7.87249855 L58.8956168,7.87249855 L57.8787004,11.6382686 L57.8060636,11.6382686 L56.9208016,7.87249855 L55.9311241,7.87249855 L57.2930656,12.8074246 L58.2963625,12.8074246 L59.3132788,9.17307135 L59.3904555,9.17307135 L60.4119116,12.8074246 L61.4242882,12.8074246 L62.7816899,7.87249855 Z M64.0219646,12.8074246 L64.9980227,12.8074246 L64.9980227,9.92078741 C64.9980227,9.15041328 65.479242,8.67006235 66.2646283,8.67006235 C66.9909971,8.67006235 67.3451019,9.06431265 67.3451019,9.85734484 L67.3451019,12.8074246 L68.3211599,12.8074246 L68.3211599,9.61263776 C68.3211599,8.43895012 67.6992066,7.77733469 66.596034,7.77733469 C65.851506,7.77733469 65.2749508,8.1081424 65.0343411,8.65646752 L64.9617042,8.65646752 L64.9617042,7.87249855 L64.0219646,7.87249855 L64.0219646,12.8074246 Z M69.9700171,12.8074246 L70.9460752,12.8074246 L70.9460752,5.94656323 L69.9700171,5.94656323 L69.9700171,12.8074246 Z M74.7286407,12.0370505 C73.8796972,12.0370505 73.4030177,11.4162195 73.4030177,10.3376958 C73.4030177,9.26823521 73.8796972,8.64287268 74.7286407,8.64287268 C75.5730445,8.64287268 76.0542638,9.26823521 76.0542638,10.3376958 C76.0542638,11.4116879 75.5730445,12.0370505 74.7286407,12.0370505 L74.7286407,12.0370505 Z M74.7286407,12.9025885 C76.1722987,12.9025885 77.0575607,11.937355 77.0575607,10.3376958 C77.0575607,8.74709977 76.1677589,7.77733469 74.7286407,7.77733469 C73.2849827,7.77733469 72.3951809,8.74709977 72.3951809,10.3376958 C72.3951809,11.937355 73.2804429,12.9025885 74.7286407,12.9025885 L74.7286407,12.9025885 Z M80.077439,12.0687718 C79.5462818,12.0687718 79.1603984,11.8104698 79.1603984,11.3663718 C79.1603984,10.931337 79.4691051,10.7002248 80.1500759,10.6549086 L81.357664,10.5778712 L81.357664,10.990248 C81.357664,11.6020157 80.8128874,12.0687718 80.077439,12.0687718 L80.077439,12.0687718 Z M79.8277497,12.8889936 C80.4769418,12.8889936 81.0171786,12.6080336 81.3122659,12.1140879 L81.3894426,12.1140879 L81.3894426,12.8074246 L82.3291823,12.8074246 L82.3291823,9.43590487 C82.3291823,8.39363399 81.6300523,7.77733469 80.3906855,7.77733469 C79.2693537,7.77733469 78.470348,8.32112819 78.3704723,9.16853973 L79.3147517,9.16853973 C79.4237071,8.81960557 79.8005109,8.62021462 80.3452875,8.62021462 C81.0126388,8.62021462 81.357664,8.91476943 81.357664,9.43590487 L81.357664,9.86187645 L80.0184215,9.93891386 C78.842612,10.0114197 78.1798005,10.5234919 78.1798005,11.4116879 C78.1798005,12.3134788 78.8743907,12.8889936 79.8277497,12.8889936 L79.8277497,12.8889936 Z M85.757643,12.8889936 C86.4386138,12.8889936 87.015169,12.5672491 87.3102563,12.0279872 L87.387433,12.0279872 L87.387433,12.8074246 L88.3226328,12.8074246 L88.3226328,5.94656323 L87.3465748,5.94656323 L87.3465748,8.65646752 L87.2739379,8.65646752 C87.0060894,8.11267401 86.434074,7.79092952 85.757643,7.79092952 C84.5091966,7.79092952 83.7056511,8.77882106 83.7056511,10.3376958 C83.7056511,11.9011021 84.500117,12.8889936 85.757643,12.8889936 L85.757643,12.8889936 Z M86.0345711,8.66553074 C86.851736,8.66553074 87.364734,9.31355133 87.364734,10.3422274 C87.364734,11.375435 86.8562758,12.0143924 86.0345711,12.0143924 C85.2083266,12.0143924 84.7134879,11.3844983 84.7134879,10.3376958 C84.7134879,9.2999565 85.2128664,8.66553074 86.0345711,8.66553074 L86.0345711,8.66553074 Z M94.8799272,12.0370505 C94.0309837,12.0370505 93.5543041,11.4162195 93.5543041,10.3376958 C93.5543041,9.26823521 94.0309837,8.64287268 94.8799272,8.64287268 C95.7243309,8.64287268 96.2055503,9.26823521 96.2055503,10.3376958 C96.2055503,11.4116879 95.7243309,12.0370505 94.8799272,12.0370505 L94.8799272,12.0370505 Z M94.8799272,12.9025885 C96.3235852,12.9025885 97.2088472,11.937355 97.2088472,10.3376958 C97.2088472,8.74709977 96.3190454,7.77733469 94.8799272,7.77733469 C93.4362692,7.77733469 92.5464674,8.74709977 92.5464674,10.3376958 C92.5464674,11.937355 93.4317294,12.9025885 94.8799272,12.9025885 L94.8799272,12.9025885 Z M98.6125549,12.8074246 L99.588613,12.8074246 L99.588613,9.92078741 C99.588613,9.15041328 100.069832,8.67006235 100.855219,8.67006235 C101.581587,8.67006235 101.935692,9.06431265 101.935692,9.85734484 L101.935692,12.8074246 L102.91175,12.8074246 L102.91175,9.61263776 C102.91175,8.43895012 102.289797,7.77733469 101.186624,7.77733469 C100.442096,7.77733469 99.8655411,8.1081424 99.6249314,8.65646752 L99.5522945,8.65646752 L99.5522945,7.87249855 L98.6125549,7.87249855 L98.6125549,12.8074246 Z M107.634963,6.67615284 L107.634963,7.89515661 L106.822338,7.89515661 L106.822338,8.71537848 L107.634963,8.71537848 L107.634963,11.5023202 C107.634963,12.4539588 108.066245,12.8346143 109.151258,12.8346143 C109.34193,12.8346143 109.518982,12.8119562 109.673336,12.7847665 L109.673336,11.9736079 C109.537142,11.9872027 109.459965,11.996266 109.310151,11.996266 C108.824392,11.996266 108.611021,11.7696853 108.611021,11.2530815 L108.611021,8.71537848 L109.718734,8.71537848 L109.718734,7.89515661 L108.611021,7.89515661 L108.611021,6.67615284 L107.634963,6.67615284 Z M111.108822,12.8074246 L112.08488,12.8074246 L112.08488,9.92531903 C112.08488,9.17760296 112.579719,8.67459397 113.378725,8.67459397 C114.114173,8.67459397 114.481897,9.07337587 114.481897,9.86187645 L114.481897,12.8074246 L115.457955,12.8074246 L115.457955,9.62170099 C115.457955,8.44801334 114.822383,7.7818663 113.71013,7.7818663 C112.965602,7.7818663 112.393587,8.11267401 112.152977,8.66553074 L112.075801,8.66553074 L112.075801,5.94656323 L111.108822,5.94656323 L111.108822,12.8074246 Z M119.095247,8.60661978 C119.817076,8.60661978 120.289216,9.10962877 120.311915,9.88453451 L117.815022,9.88453451 C117.8695,9.11416038 118.373418,8.60661978 119.095247,8.60661978 L119.095247,8.60661978 Z M120.307375,11.4751305 C120.125783,11.8603176 119.72174,12.0733034 119.131566,12.0733034 C118.350719,12.0733034 117.846801,11.5249782 117.815022,10.6594403 L117.815022,10.6050609 L121.306132,10.6050609 L121.306132,10.26519 C121.306132,8.71537848 120.475348,7.77733469 119.099787,7.77733469 C117.706067,7.77733469 116.820805,8.77882106 116.820805,10.3558222 C116.820805,11.9328234 117.687908,12.9025885 119.104327,12.9025885 C120.234738,12.9025885 121.024664,12.358795 121.247115,11.4751305 L120.307375,11.4751305 Z" id="Download-on-the" fill="#FFFFFF"></path>
                    <g id="logo_apple" transform="translate(12.086777, 6.218097)" fill="#FFFFFF">
                        <path d="M17.9758977,13.9725503 C17.9459773,10.6532583 20.6986553,9.03841188 20.8245274,8.9632309 C19.2655707,6.6944129 16.8492394,6.38442007 16.0001187,6.35970303 C13.9706893,6.14651859 12.0021324,7.57186771 10.9683305,7.57186771 C9.91389389,7.57186771 8.32192155,6.38030056 6.6061406,6.41531636 C4.39822044,6.44930229 2.33268018,7.72531931 1.19983142,9.70680175 C-1.13808778,13.7470074 0.605550105,19.6842456 2.84545416,22.949984 C3.96592205,24.5504122 5.27519807,26.3351882 6.98891555,26.2723657 C8.66549043,26.2043939 9.29175564,25.2054137 11.3149946,25.2054137 C13.3196623,25.2054137 13.9077532,26.2723657 15.6555181,26.2311707 C17.4548698,26.2043939 18.5877186,24.6255932 19.6689804,23.0107468 C20.9638121,21.1796263 21.4838082,19.372193 21.504443,19.2795041 C21.4631735,19.2661157 18.0109768,17.9509634 17.9758977,13.9725503" id="Fill-2"></path>
                        <path d="M14.6743348,4.21138059 C15.5760742,3.08572554 16.1930538,1.55429914 16.0217852,0.000215458258 C14.7166361,0.0578885439 13.084426,0.901357422 12.1445123,2.00229543 C11.3129312,2.97243912 10.5700795,4.56256849 10.7619829,6.05794921 C12.2280831,6.16711612 13.7333894,5.31952774 14.6743348,4.21138059" id="Fill-3"></path>
                    </g>
                </g>
            </g>
        </g>
    </g>
</svg>