<?xml version="1.0" encoding="utf-8"?>
<!-- Generator: Adobe Illustrator 24.3.0, SVG Export Plug-In . SVG Version: 6.00 Build 0)  -->
<svg version="1.1" id="Layer_1" xmlns="http://www.w3.org/2000/svg" xmlns:xlink="http://www.w3.org/1999/xlink" width="135px" height="40px"
	 viewBox="0 0 135 40" style="enable-background:new 0 0 135 40;" xml:space="preserve">
<style type="text/css">
	.st0{fill-rule:evenodd;clip-rule:evenodd;}
	.st1{fill-rule:evenodd;clip-rule:evenodd;fill:#FFFFFF;}
	.st2{fill:url(#SVGID_1_);}
	.st3{fill:url(#SVGID_2_);}
	.st4{fill:url(#SVGID_3_);}
	.st5{fill:url(#SVGID_4_);}
	.st6{opacity:0.2;enable-background:new    ;}
	.st7{opacity:0.12;enable-background:new    ;}
	.st8{opacity:0.25;fill:#FFFFFF;enable-background:new    ;}
</style>
<g id="Designs">
	
		<g id="Become-a-Vendor-_x2014_-Landing-Page-_x7E_-Mixed-Assets-_x26_-Components-" transform="translate(-170.000000, -148.000000)">
		<g id="How-It-Works-_x28_Malaysia_x29_" transform="translate(20.000000, 28.000000)">
			<g id="Playstore" transform="translate(150.000000, 120.000000)">
				<path id="background" class="st0" d="M4.5,0h125.9c2.5,0,4.5,2,4.5,4.5v30.8c0,2.5-2,4.5-4.5,4.5H4.5c-2.5,0-4.5-2-4.5-4.5V4.5
					C0,2,2,0,4.5,0z"/>
				<g id="get-it-on" transform="translate(41.398790, 6.727273)">
					<path id="o" class="st1" d="M30.1,0c1.8,0,3.3,1.5,3.3,3.3s-1.5,3.3-3.3,3.3s-3.3-1.5-3.3-3.3S28.3,0,30.1,0z M30.1,1
						c-1.3,0-2.3,1-2.3,2.3s1,2.3,2.3,2.3s2.3-1,2.3-2.3S31.4,1,30.1,1z"/>
					<path id="e" class="st1" d="M10.6,0.3V1L8,1v1.9l2.4,0v0.7L8,3.6v2l2.6,0v0.7H7V0.3H10.6z"/>
					<path id="t" class="st1" d="M15.7,0.3V1l-1.5,0l0,5.4h-1l0-5.4l-1.5,0V0.3H15.7z"/>
					<path id="t_1_" class="st1" d="M24.6,0.3V1l-1.5,0l0,5.4h-1l0-5.4l-1.5,0V0.3H24.6z"/>
					<rect id="i" x="18.6" y="0.3" class="st1" width="1" height="6.1"/>
					<path id="n" class="st1" d="M35.2,1.6l0,4.8h-1V0.3h1.2l2.7,4.5l0-4.5h1v6.1h-1L35.2,1.6z"/>
					<g id="g" transform="translate(0.000000, 0.090909)">
						<polygon id="Rectangle-1" class="st1" points="3.2,2.9 6,2.9 6,3.8 3.2,3.8 						"/>
						<path id="Oval-1" class="st1" d="M3.2,0c0.9,0,1.7,0.3,2.2,0.9L4.8,1.5C4.4,1.1,3.9,0.9,3.2,0.9c-1.3,0-2.3,1-2.3,2.3
							s1,2.3,2.3,2.3s2.2-0.7,2.2-2.3c0-0.1,0-0.2,0-0.3l0.8,0l0,0c0.3,2.1-1.1,3.4-2.8,3.5l-0.2,0C1.4,6.4,0,5,0,3.2S1.4,0,3.2,0z"
							/>
					</g>
				</g>
				<g id="googleplay" transform="translate(40.944855, 17.454545)">
					<g id="big-P" transform="translate(56.650975, 0.454545)">
						<path id="Combined-Shape" class="st1" d="M5.6,0c0,0,3,0.5,3,3.9s-3,3.9-3,3.9l-5.1,0V0L5.6,0z M5,1.9l-3.5,0v4.2l3.5,0
							c0.2,0,1.6-0.1,1.6-2.1C6.5,1.9,4.9,1.9,5,1.9L5,1.9z"/>
						<rect id="Rectangle-6" x="0" y="0" class="st1" width="1.8" height="12.7"/>
					</g>
					<rect id="y" x="66.3" y="0.5" class="st1" width="1.8" height="12.7"/>
					<path id="a" class="st1" d="M72.9,4.7c3.1,0,3.7,2.1,3.7,2.8l0,0.1v5.5h-1.8l0-0.9c-0.5,0.4-1.3,0.8-2.6,0.9
						c-2.9,0.2-2.9-2.5-2.9-2.6l0,0c0,0,0,0,0,0l0-0.1c0-0.5,0.2-2.2,2.2-2.5c1.6-0.2,2.8,0.2,3.3,0.4l0-0.4
						c-0.1-0.5-0.5-1.4-1.7-1.4c-1.7,0-2,0.9-2,0.9l-1.5-0.9C69.6,6.5,70.4,4.7,72.9,4.7z M71.1,10.6c-0.1,2,3.4,1,3.7-0.4
						c0-0.4,0-0.7,0-0.7S71.2,8.6,71.1,10.6z"/>
					<path id="y_1_" class="st1" d="M78.6,5l2.3,5.5L83.3,5h1.8l-4.9,11.7h-1.8l1.7-4L76.8,5H78.6z"/>
					<path id="e_1_" class="st1" d="M48.7,4.7c2.9,0,3.7,2.9,3.8,3.2l0,0l-5.7,2.4c0,0,0.4,1.3,2.1,1.3c1.4,0,2.1-1.2,2.1-1.2l0,0
						l1.5,1c0,0,0,0,0,0l0,0.1c-0.2,0.3-1.4,1.8-3.5,1.8c-3,0-4.3-2.6-4.3-4.3C44.7,7.5,45.7,4.7,48.7,4.7z M48.6,6.4
						c-2.3,0.4-2,2.5-2,2.5l3.9-1.6C50.4,7.3,49.7,6.2,48.6,6.4z"/>
					<rect id="i_1_" x="41.9" y="0.5" class="st1" width="1.9" height="12.7"/>
					<path id="g_1_" class="st1" d="M36.5,4.7c1.6,0,2.4,1.1,2.4,1.1l0,0V5l1.8,0v8c0,2-1.2,4.2-4.1,4.2c-2.9,0-3.8-2.5-3.8-2.5l0,0
						l1.6-0.7c0,0,0.5,1.6,2.2,1.6c2,0,2.2-1.8,2.2-2.4l0,0v-0.9c0,0-0.7,1.1-2.4,1.1c-1.9,0-4.1-1.6-4.1-4.3S34.5,4.8,36.5,4.7z
						 M36.6,6.4c-1.3,0-2.3,1.2-2.3,2.7s1,2.7,2.3,2.7S39,10.5,39,9.1S37.9,6.4,36.6,6.4z"/>
					<path id="o_1_" class="st1" d="M27.3,4.7c2.4,0,4.3,1.9,4.3,4.3s-1.9,4.3-4.3,4.3S23,11.4,23,9S24.9,4.7,27.3,4.7z M27.3,6.4
						c-1.3,0-2.4,1.2-2.4,2.6s1.1,2.6,2.4,2.6s2.4-1.2,2.4-2.6S28.6,6.4,27.3,6.4z"/>
					<path id="o_2_" class="st1" d="M17.9,4.7c2.4,0,4.3,1.9,4.3,4.3s-1.9,4.3-4.3,4.3s-4.3-1.9-4.3-4.3S15.6,4.7,17.9,4.7z
						 M17.9,6.4c-1.3,0-2.4,1.2-2.4,2.6s1.1,2.6,2.4,2.6s2.4-1.2,2.4-2.6S19.3,6.4,17.9,6.4z"/>
					<g id="big-g">
						<polygon id="Rectangle-1_1_" class="st1" points="6.8,6.1 12.5,6.1 12.4,7.9 6.8,7.9 						"/>
						<path id="Oval-1_1_" class="st1" d="M6.7,0c1.9,0,3.6,0.7,4.7,1.8l-1.3,1.3c-0.8-0.8-2-1.3-3.3-1.3C4.1,1.9,1.9,4,1.9,6.7
							s2.2,4.8,4.8,4.8s4.6-1.5,4.6-4.8c0-0.2,0-0.4,0-0.6l1.7,0l0,0.1c0.6,4.5-2.4,7.1-6.1,7.2l-0.2,0C3,13.4,0,10.4,0,6.7
							S3,0,6.7,0z"/>
					</g>
				</g>
			</g>
		</g>
	</g>
</g>
<g>
	
		<linearGradient id="SVGID_1_" gradientUnits="userSpaceOnUse" x1="22.6025" y1="33.0708" x2="5.8201" y2="16.2884" gradientTransform="matrix(1 0 0 -1 0 41.7795)">
		<stop  offset="0" style="stop-color:#00A0FF"/>
		<stop  offset="6.574450e-03" style="stop-color:#00A1FF"/>
		<stop  offset="0.2601" style="stop-color:#00BEFF"/>
		<stop  offset="0.5122" style="stop-color:#00D2FF"/>
		<stop  offset="0.7604" style="stop-color:#00DFFF"/>
		<stop  offset="1" style="stop-color:#00E3FF"/>
	</linearGradient>
	<path class="st2" d="M11.2,7.5c-0.3,0.3-0.5,0.8-0.5,1.4v22.1c0,0.6,0.2,1.1,0.5,1.4l0.1,0.1l12.4-12.4V20v-0.1L11.2,7.5L11.2,7.5z
		"/>
	
		<linearGradient id="SVGID_2_" gradientUnits="userSpaceOnUse" x1="34.6371" y1="21.779" x2="10.4402" y2="21.779" gradientTransform="matrix(1 0 0 -1 0 41.7795)">
		<stop  offset="0" style="stop-color:#FFE000"/>
		<stop  offset="0.4087" style="stop-color:#FFBD00"/>
		<stop  offset="0.7754" style="stop-color:#FFA500"/>
		<stop  offset="1" style="stop-color:#FF9C00"/>
	</linearGradient>
	<path class="st3" d="M27.8,24.3l-4.1-4.1V20v-0.1l4.1-4.1l0.1,0.1l4.9,2.8c1.4,0.8,1.4,2.1,0,2.9L27.8,24.3L27.8,24.3z"/>
	
		<linearGradient id="SVGID_3_" gradientUnits="userSpaceOnUse" x1="25.6297" y1="19.4844" x2="2.8714" y2="-3.2739" gradientTransform="matrix(1 0 0 -1 0 41.7795)">
		<stop  offset="0" style="stop-color:#FF3A44"/>
		<stop  offset="1" style="stop-color:#C31162"/>
	</linearGradient>
	<path class="st4" d="M27.9,24.2L23.7,20L11.2,32.5c0.5,0.5,1.2,0.5,2.1,0.1L27.9,24.2"/>
	
		<linearGradient id="SVGID_4_" gradientUnits="userSpaceOnUse" x1="8.1001" y1="41.6043" x2="18.2626" y2="31.4418" gradientTransform="matrix(1 0 0 -1 0 41.7795)">
		<stop  offset="0" style="stop-color:#32A071"/>
		<stop  offset="6.850000e-02" style="stop-color:#2DA771"/>
		<stop  offset="0.4762" style="stop-color:#15CF74"/>
		<stop  offset="0.8009" style="stop-color:#06E775"/>
		<stop  offset="1" style="stop-color:#00F076"/>
	</linearGradient>
	<path class="st5" d="M27.9,15.8L13.3,7.5C12.5,7,11.7,7,11.2,7.5L23.7,20L27.9,15.8z"/>
	<g>
		<path class="st6" d="M27.8,24.1l-14.5,8.2c-0.8,0.5-1.5,0.4-2,0l0,0l-0.1,0.1l0,0l0.1,0.1l0,0c0.5,0.4,1.2,0.5,2,0L27.8,24.1
			L27.8,24.1z"/>
		<path class="st7" d="M11.2,32.3c-0.3-0.3-0.5-0.8-0.5-1.4v0.1c0,0.6,0.2,1.1,0.5,1.4V32.3L11.2,32.3z"/>
	</g>
	<path class="st7" d="M32.8,21.3l-5,2.8l0.1,0.1l4.9-2.8c0.7-0.4,1-0.9,1-1.4l0,0C33.8,20.5,33.5,20.9,32.8,21.3z"/>
	<path class="st8" d="M13.3,7.6l19.5,11.1c0.6,0.4,1,0.8,1,1.3l0,0c0-0.5-0.3-1-1-1.4L13.3,7.5c-1.4-0.8-2.5-0.1-2.5,1.5v0.1
		C10.8,7.5,11.9,6.8,13.3,7.6z"/>
</g>
</svg>
