<svg xmlns="http://www.w3.org/2000/svg" width="46" height="38" viewBox="0 0 46 38">
    <g fill="none" fill-rule="evenodd">
        <path fill="#FDEDD3" d="M21.262 37.8c10.811 0 20.925-13.152 20.925-23.963C42.187 3.027 32.073 0 21.262 0 10.452 0 0 5.727 0 16.537 0 27.348 10.452 37.8 21.262 37.8z" transform="translate(1.766)"/>
        <path fill="#F5A623" fill-rule="nonzero" d="M24.491 7.623c.18-.187.436-.213.69-.158.253.054.448.258.521.499l1.621 5.302.241-.074c1.205-.368 2.464.3 2.815 1.537l.531 1.735c.368 1.205-.3 2.464-1.506 2.832l-.24.074 1.694 5.543c.073.24.02.495-.153.705-.099.11-.205.195-.35.239-.096.03-.2.035-.31.016l-10.788-1.308-.576.913 1.94 3.24c.113.2.138.453.044.664-.094.211-.281.373-.498.44l-2.94.898c-.313.096-.661-.006-.852-.287l-3.756-5.475c-.022-.071-.068-.136-.09-.207l-2.201-7.202c-.124-.405.094-.81.504-.936l5.051-1.545z" transform="translate(1.766)"/>
    </g>
</svg>
